<?xml version="1.0" encoding="UTF-8"?>
<svg version="1.1" xmlns="http://www.w3.org/2000/svg" width="341" height="330">
<path d="M0 0 C4.42599222 4.30765018 6.86088136 8.35674586 7.1875 14.5625 C7.03905336 17.28402166 6.70834515 19.41029015 6 22 C6.51949219 22.4125 7.03898438 22.825 7.57421875 23.25 C17.00722716 31.06143765 21.48445597 39.92180649 23 52 C23.24709033 56.65499407 23.31196854 61.30750601 23.35009766 65.96801758 C23.36660059 67.4388823 23.39381611 68.90966869 23.43212891 70.38012695 C23.67618584 79.83998603 23.41135432 88.80035242 18 97 C15.87963867 98.19458008 15.87963867 98.19458008 14 99 C13.11693483 100.99634631 13.11693483 100.99634631 12.6875 103.375 C11.54715814 107.85261351 9.78752095 111.08348303 7.25 114.9375 C4.1844133 120.02715996 2.96547961 123.68615186 3.95703125 129.6015625 C5.58640558 133.34851321 8.1695514 134.69621035 11.671875 136.6015625 C14.09464835 138.05685253 15.28063127 139.36823052 16.9375 141.625 C20.51946394 146.03505238 24.72188929 147.23208913 30 149 C63.89098082 160.73395279 63.89098082 160.73395279 70.2578125 172.28125 C74.8241311 183.96444354 76.48269614 196.35899172 78.05078125 208.73828125 C78.23344371 210.14794256 78.41657808 211.55754278 78.60014343 212.96708679 C78.9842694 215.92577672 79.36466334 218.88491184 79.74194336 221.84448242 C80.29468184 226.18039302 80.85687582 230.5150248 81.41992188 234.84960938 C84.73657682 260.55225315 87.8500308 286.27525153 91 312 C18.4 312 -54.2 312 -129 312 C-127.87488772 293.99820352 -127.87488772 293.99820352 -127.08984375 287.8671875 C-126.95823853 286.82210274 -126.95823853 286.82210274 -126.82397461 285.75590515 C-126.5336542 283.46157614 -126.23591159 281.16828963 -125.9375 278.875 C-125.72241894 277.19917824 -125.50766913 275.52331394 -125.29321289 273.84741211 C-124.93792956 271.0745883 -124.58177364 268.30188755 -124.22337341 265.52946472 C-123.39822973 259.14088131 -122.59174333 252.75018174 -121.79750729 246.35768127 C-121.1110971 240.83382995 -120.41804256 235.31083638 -119.72089481 229.78833008 C-119.28825556 226.3591448 -118.85850888 222.9296565 -118.43600464 219.49920654 C-112.58803736 172.09346612 -112.58803736 172.09346612 -102.625 163.8125 C-93.82649944 158.00646543 -84.16017103 154.32184989 -74.19018555 151.11621094 C-62.11250135 147.34620112 -62.11250135 147.34620112 -52.7890625 139.07421875 C-50.74377002 136.70292987 -48.75447988 135.64149015 -46 134.1875 C-43.20934682 132.40894991 -42.1805824 131.46376844 -40.96875 128.3515625 C-40.0226542 122.21770808 -40.87376048 118.46698956 -44.3125 113.3125 C-45.29089844 111.97832031 -45.29089844 111.97832031 -46.2890625 110.6171875 C-48.41044224 107.37215456 -49.01152298 104.5869117 -49.41796875 100.77734375 C-49.8320084 98.80688312 -49.8320084 98.80688312 -51.8828125 98.0390625 C-52.58148438 97.69617188 -53.28015625 97.35328125 -54 97 C-57.86262745 91.49237218 -60.51658823 84.8083679 -60 78 C-59.66871094 77.42121094 -59.33742188 76.84242187 -58.99609375 76.24609375 C-57.71745571 73.36289033 -57.82124436 71.20173248 -57.91015625 68.0546875 C-57.93013672 66.89453125 -57.95011719 65.734375 -57.97070312 64.5390625 C-58.03131678 62.11967499 -58.09633378 59.70039331 -58.16601562 57.28125 C-58.31798161 47.78599608 -57.43072064 39.54316961 -51.6875 31.6875 C-51.08164063 30.85476562 -50.47578125 30.02203125 -49.8515625 29.1640625 C-48.17153937 27.20049116 -46.69805428 25.96933434 -44.5625 24.5625 C-41.76502413 22.3100624 -41.76502413 22.3100624 -41.76953125 19.5390625 C-41.84049464 17.6204226 -41.92803732 15.70233178 -42.03125 13.78515625 C-41.97512444 8.7829653 -39.92498602 5.11964753 -36.609375 1.46875 C-27.21194483 -7.03839732 -10.00936076 -7.55808873 0 0 Z " fill="#F2AD92" transform="translate(192,18)"/>
<path d="M0 0 C-0.04125 1.2375 -0.0825 2.475 -0.125 3.75 C-0.125 10.98034459 1.29657434 17.9947406 2.93603516 25.01220703 C4.1144696 30.30376733 4.90026017 35.62636623 5.65625 40.9921875 C5.80404907 42.01877472 5.95184814 43.04536194 6.10412598 44.10305786 C6.57266568 47.35991604 7.03669803 50.61739294 7.5 53.875 C7.96378896 57.12539165 8.4286287 60.37562212 8.89587402 63.6255188 C9.18518729 65.63878508 9.47251892 67.65233757 9.75744629 69.66622925 C10.57007599 75.33239093 11.51601945 80.95859939 12.55938721 86.58673096 C17.63074742 114.36294811 16.21807161 142.94145285 16 171 C-16.67 171 -49.34 171 -83 171 C-81.87488772 152.99820352 -81.87488772 152.99820352 -81.08984375 146.8671875 C-81.00210693 146.17046432 -80.91437012 145.47374115 -80.82397461 144.75590515 C-80.5336542 142.46157614 -80.23591159 140.16828963 -79.9375 137.875 C-79.72241894 136.19917824 -79.50766913 134.52331394 -79.29321289 132.84741211 C-78.93792956 130.0745883 -78.58177364 127.30188755 -78.22337341 124.52946472 C-77.39822973 118.14088131 -76.59174333 111.75018174 -75.79750729 105.35768127 C-75.1110971 99.83382995 -74.41804256 94.31083638 -73.72089481 88.78833008 C-73.28825556 85.3591448 -72.85850888 81.9296565 -72.43600464 78.49920654 C-66.58803736 31.09346612 -66.58803736 31.09346612 -56.625 22.8125 C-45.61419567 15.52654026 -27.30297756 6 -14 6 C-14.9851725 9.182865 -16.04562914 12.08943312 -17.5625 15.0625 C-19.57675426 19.17858479 -20.04850243 22.71081674 -20.03515625 27.25 C-20.04304506 39.83660085 -20.04304506 39.83660085 -22.73828125 43.11328125 C-24.875 44.3125 -24.875 44.3125 -26.9921875 45.05078125 C-29.98196212 46.46423501 -30.70001646 47.97885445 -32 51 C-32.20984775 53.85672736 -32.28649823 56.47201222 -32.1875 59.3125 C-32.17396484 60.05306641 -32.16042969 60.79363281 -32.14648438 61.55664062 C-32.11135979 63.37141075 -32.05755972 65.18580288 -32 67 C-31.01 67.33 -30.02 67.66 -29 68 C-29.05800781 66.91460937 -29.11601563 65.82921875 -29.17578125 64.7109375 C-29.22270558 63.26566824 -29.26820287 61.82035216 -29.3125 60.375 C-29.35439453 59.66214844 -29.39628906 58.94929688 -29.43945312 58.21484375 C-29.53113143 54.21766984 -29.23100947 51.76331877 -26.66796875 48.6015625 C-22.00411383 44.05379181 -22.00411383 44.05379181 -17.5 43.8125 C-12.86318925 44.06090058 -11.54903394 44.39867711 -8.375 47.875 C-4.71548729 52.6901483 -4.73938952 56.75713153 -4.37890625 62.6015625 C-4.25386719 63.39304688 -4.12882812 64.18453125 -4 65 C-3.34 65.33 -2.68 65.66 -2 66 C-2.15837552 54.16295973 -2.15837552 54.16295973 -7.75 44.1875 C-10.70642506 42.62716455 -13.79166688 41.90801881 -17 41 C-20.03567697 34.92864605 -17.76472076 25.27362453 -16 19 C-8.55694618 0 -8.55694618 0 0 0 Z " fill="#FDFDFC" transform="translate(146,159)"/>
<path d="M0 0 C7.36318949 3.18142263 11.83743449 9.95021617 14.875 17.125 C15.61028256 19.07337499 16.32171689 21.03105673 17 23 C17.24621094 23.70769531 17.49242187 24.41539062 17.74609375 25.14453125 C18.8026147 28.48896654 19.21208445 31.50060654 19 35 C19.66 35 20.32 35 21 35 C22.69375198 45.57210576 23.25919254 55.74893763 23.125 66.4375 C23.11492845 67.86262377 23.10581014 69.2877546 23.09765625 70.71289062 C23.07602292 74.14207846 23.04173497 77.57099067 23 81 C23.99 81 24.98 81 26 81 C25.88017597 76.51989125 25.75585898 72.03993442 25.62768555 67.56005859 C25.58483569 66.04153683 25.54313499 64.52298213 25.50268555 63.00439453 C25.09518766 43.99169072 25.09518766 43.99169072 21 25.5 C20.45782579 23.78141004 19.91614017 22.06266584 19.375 20.34375 C19.13523438 19.60318359 18.89546875 18.86261719 18.6484375 18.09960938 C18.02458236 16.07959651 17.49241109 14.05558403 17 12 C16.34 12 15.68 12 15 12 C14.67 10.35 14.34 8.7 14 7 C53.50348427 18.00916775 53.50348427 18.00916775 63 31 C69.34829911 42.51368535 70.42792387 56.92735129 72.05078125 69.73828125 C72.23164945 71.133158 72.41299816 72.52797251 72.5947876 73.92272949 C73.07549525 77.62300722 73.5488348 81.32419055 74.02043533 85.02563858 C74.41255313 88.09591431 74.80906764 91.16561591 75.20554256 94.23533154 C78.59363375 120.47532778 81.82842741 146.73287314 85 173 C56.95 173 28.9 173 0 173 C-3.10786989 154.35278064 -2.23834133 135.04792824 -2.25 116.1875 C-2.251031 115.42544628 -2.252062 114.66339256 -2.25312424 113.87824631 C-2.33654595 48.10146773 -2.33654595 48.10146773 2 19 C2.11164933 16.62680265 2.17444623 14.25078636 2.1875 11.875 C2.20167969 10.69679687 2.21585938 9.51859375 2.23046875 8.3046875 C2.00623989 5.08947364 1.37866716 2.88811697 0 0 Z " fill="#FDFDFD" transform="translate(198,157)"/>
<path d="M0 0 C0.33 0 0.66 0 1 0 C0.91583949 1.80723628 0.83136003 3.61445795 0.74584961 5.42163086 C0.6613511 7.22443633 0.57900748 9.02734351 0.49829102 10.83032227 C0.25406909 16.1501855 -0.02233746 21.46480655 -0.37574768 26.77865601 C-1.86875072 49.41111434 -2.19441789 72.00258846 -2.18803024 94.67604446 C-2.18750715 96.96867303 -2.1886629 99.26129641 -2.18997192 101.55392456 C-2.19378286 119.39698453 -1.88145641 137.17342564 -1 155 C-12.88 155 -24.76 155 -37 155 C-37.02578125 151.68710937 -37.0515625 148.37421875 -37.078125 144.9609375 C-37.29634026 123.83238948 -37.55621981 102.76906039 -39.875 81.75 C-39.95609009 81.00159851 -40.03718018 80.25319702 -40.12072754 79.4821167 C-41.01990292 71.36136862 -42.24725864 63.36843009 -43.81669617 55.3465271 C-45.42798456 47.0018251 -46.5989998 38.59140083 -47.78979492 30.17822266 C-48.19200864 27.34322089 -48.60256044 24.50950492 -49.01367188 21.67578125 C-49.27393382 19.85423751 -49.53371733 18.03262534 -49.79296875 16.2109375 C-49.91480026 15.37339935 -50.03663177 14.53586121 -50.16215515 13.67294312 C-50.75916999 9.40904914 -51.13440478 5.31922148 -51 1 C-46.10202847 4.89838551 -42.37785551 8.8935162 -38.625 13.89453125 C-36.61683986 16.49645027 -34.38406792 18.74140934 -32 21 C-30.33333333 22.66666667 -28.66666667 24.33333333 -27 26 C-24.04199472 25.29231642 -24.04199472 25.29231642 -21 24 C-20.72285156 23.4328125 -20.44570312 22.865625 -20.16015625 22.28125 C-18.49921713 19.01529564 -15.92382573 16.75885043 -13.3125 14.25 C-9.06583017 10.10075714 -5.01742229 5.88946902 -1.20703125 1.328125 C-0.80871094 0.88984375 -0.41039062 0.4515625 0 0 Z " fill="#36587B" transform="translate(199,175)"/>
<path d="M0 0 C4.42599222 4.30765018 6.86088136 8.35674586 7.1875 14.5625 C7.03905336 17.28402166 6.70834515 19.41029015 6 22 C6.51949219 22.4125 7.03898437 22.825 7.57421875 23.25 C15.79179861 30.05494598 20.47825932 37.80631678 22.6875 48.25 C23.35356601 56.24279217 23.21943128 64.07369668 22 72 C21.34 72 20.68 72 20 72 C19.87882812 72.64066406 19.75765625 73.28132813 19.6328125 73.94140625 C18.64320773 79.04928933 17.51489049 84.02250269 16 89 C15.67 89 15.34 89 15 89 C14.99589111 88.39639648 14.99178223 87.79279297 14.98754883 87.17089844 C14.99365127 70.38256774 14.99365127 70.38256774 9 55 C8.36771484 53.94619141 8.36771484 53.94619141 7.72265625 52.87109375 C3.30939001 46.74368932 -3.39431262 44.89712009 -10.546875 43.50390625 C-19.98240412 42.28690329 -29.81842742 42.74270043 -38 48 C-46.43468363 55.24855625 -49.40925087 66.21657031 -50.33984375 76.90234375 C-50.60638785 80.59917561 -50.81466562 84.29818954 -51 88 C-57.10043147 78.8493528 -58.4774237 68.95118361 -58.5 58.1875 C-58.50596191 57.23391602 -58.51192383 56.28033203 -58.51806641 55.29785156 C-58.36809074 46.72993478 -56.83146303 38.72349541 -51.6875 31.6875 C-51.08164063 30.85476562 -50.47578125 30.02203125 -49.8515625 29.1640625 C-48.17153937 27.20049116 -46.69805428 25.96933434 -44.5625 24.5625 C-41.76502413 22.3100624 -41.76502413 22.3100624 -41.76953125 19.5390625 C-41.84049464 17.6204226 -41.92803732 15.70233178 -42.03125 13.78515625 C-41.97512444 8.7829653 -39.92498602 5.11964753 -36.609375 1.46875 C-27.21194483 -7.03839732 -10.00936076 -7.55808873 0 0 Z " fill="#2F221F" transform="translate(192,18)"/>
<path d="M0 0 C1.27310312 0.93441535 2.543388 1.87267111 3.8125 2.8125 C4.52019531 3.33457031 5.22789062 3.85664063 5.95703125 4.39453125 C8 6 8 6 9.625 7.65625 C11.31917055 9.31191668 12.69817024 9.6031328 15 10 C15 10.66 15 11.32 15 12 C23.415 11.01 23.415 11.01 32 10 C32 9.34 32 8.68 32 8 C33.6796875 6.78125 33.6796875 6.78125 35.875 5.5 C38.25362486 4.10181191 40.03792084 2.96207916 42 1 C43.37841851 4.03252073 44.00110925 6.06100893 44.0625 9.4375 C45.32275916 14.22648482 47.53820074 15.01094654 51.63671875 17.46875 C56.33395184 20.51224648 59.48877151 23.99160235 60.875 29.4375 C60.91625 30.283125 60.9575 31.12875 61 32 C61.66 32 62.32 32 63 32 C70.28929306 50.12239263 72.17389099 65.91840871 72.0625 85.25 C72.05747043 86.78515478 72.05291012 88.32031116 72.04882812 89.85546875 C72.03794839 93.5703467 72.02076577 97.28516259 72 101 C71.01 101 70.02 101 69 101 C68.97494385 100.08710205 68.9498877 99.1742041 68.92407227 98.23364258 C68.82868393 94.83232369 68.72946598 91.43116061 68.62768555 88.0300293 C68.58449295 86.56067232 68.54280744 85.0912702 68.50268555 83.62182617 C68.44460118 81.50425645 68.38101902 79.38691063 68.31640625 77.26953125 C68.27974854 75.99698486 68.24309082 74.72443848 68.20532227 73.41333008 C68.02951718 70.49070116 67.62628158 67.84970696 67 65 C66.93540958 63.23022239 66.91388935 61.45829848 66.9375 59.6875 C66.94652344 58.80449219 66.95554687 57.92148438 66.96484375 57.01171875 C66.97644531 56.34785156 66.98804688 55.68398437 67 55 C66.34 55 65.68 55 65 55 C64.78085938 54.05640625 64.56171875 53.1128125 64.3359375 52.140625 C61.46501867 40.30370116 57.89220712 28.87807217 48 21 C47.34 20.67 46.68 20.34 46 20 C46.73669922 21.01126953 46.73669922 21.01126953 47.48828125 22.04296875 C49.35982777 25.70384916 49.30209194 28.22538733 49.1875 32.3125 C49.14689453 34.19388672 49.14689453 34.19388672 49.10546875 36.11328125 C49.07066406 37.06589844 49.03585938 38.01851562 49 39 C48.45988281 39.20367187 47.91976562 39.40734375 47.36328125 39.6171875 C44.04620463 41.55808853 41.72307129 44.28966855 39.1875 47.125 C38.65705078 47.70813965 38.12660156 48.2912793 37.58007812 48.89208984 C34.15130033 52.67358379 30.77979279 56.50222631 27.5 60.4140625 C25.81537829 62.195199 23.99473183 63.58133297 22 65 C18.9350908 63.66198588 17.14639067 62.29092019 15.0625 59.6875 C13.22953003 57.45746349 11.42396512 55.42396512 9.375 53.375 C7.03930944 51.03930944 5.06145226 48.57681532 3 46 C1.35259924 44.3142876 -0.31066078 42.6436814 -2 41 C-2.33 40.67 -2.66 40.34 -3 40 C-3.66 40.99 -4.32 41.98 -5 43 C-8.09243697 26.18487395 -8.09243697 26.18487395 -6 22 C-14.58186125 26.29093063 -17.92014478 33.17471833 -21.03125 41.9296875 C-23.24285083 48.93903528 -23.11842977 55.72314833 -23 63 C-21.96875 63.061875 -20.9375 63.12375 -19.875 63.1875 C-15.22663762 64.16215663 -13.26290384 65.58533319 -10 69 C-8.13793684 73.40750976 -7.77789325 77.11676906 -7.875 81.875 C-7.89304688 83.02742188 -7.91109375 84.17984375 -7.9296875 85.3671875 C-7.95289063 86.23601562 -7.97609375 87.10484375 -8 88 C-9.485 87.505 -9.485 87.505 -11 87 C-11.04898438 86.26394531 -11.09796875 85.52789062 -11.1484375 84.76953125 C-11.22320312 83.79371094 -11.29796875 82.81789063 -11.375 81.8125 C-11.47941406 80.36810547 -11.47941406 80.36810547 -11.5859375 78.89453125 C-12.01000859 75.9300343 -12.64536034 73.66781077 -14 71 C-15.485 70.01 -15.485 70.01 -17 69 C-17 68.34 -17 67.68 -17 67 C-24.26624581 66.25821841 -24.26624581 66.25821841 -30.5625 69.375 C-34.36442004 73.46937543 -34.27933786 76.74956132 -34.5625 82.125 C-34.60568359 82.87910156 -34.64886719 83.63320312 -34.69335938 84.41015625 C-34.7994832 86.27321888 -34.90025001 88.13658524 -35 90 C-36.32 89.67 -37.64 89.34 -39 89 C-39.08132187 86.43685501 -39.14064175 83.87631582 -39.1875 81.3125 C-39.21263672 80.59126953 -39.23777344 79.87003906 -39.26367188 79.12695312 C-39.32688237 74.51258688 -38.83634857 71.66699351 -36 68 C-33.04177251 65.26932847 -30.90230459 63.82851477 -27 63 C-27.05220703 61.20755859 -27.05220703 61.20755859 -27.10546875 59.37890625 C-27.44219461 43.1203461 -27.44219461 43.1203461 -24 36 C-23.48953125 34.77603516 -23.48953125 34.77603516 -22.96875 33.52734375 C-19.26300897 25.22698462 -14.06016858 19.63858198 -6.125 15.25 C-3.0380023 13.34785684 -2.15160601 12.45540339 -0.98828125 8.9609375 C-0.49299254 5.96110374 -0.15225626 3.03530229 0 0 Z " fill="#F1A98C" transform="translate(152,137)"/>
<path d="M0 0 C7.36318949 3.18142263 11.83743449 9.95021617 14.875 17.125 C15.61028256 19.07337499 16.32171689 21.03105673 17 23 C17.24621094 23.70769531 17.49242187 24.41539062 17.74609375 25.14453125 C18.8026147 28.48896654 19.21208445 31.50060654 19 35 C19.66 35 20.32 35 21 35 C22.69375198 45.57210576 23.25919254 55.74893763 23.125 66.4375 C23.11492845 67.86262377 23.10581014 69.2877546 23.09765625 70.71289062 C23.07602292 74.14207846 23.04173497 77.57099067 23 81 C23.99 81 24.98 81 26 81 C26 70.77 26 60.54 26 50 C26.33 50 26.66 50 27 50 C27.00410889 50.94319092 27.00821777 51.88638184 27.01245117 52.8581543 C27.03948859 56.37193676 27.08862841 59.88398682 27.15258789 63.3972168 C27.17572451 64.91501168 27.19015348 66.43296613 27.19555664 67.95092773 C27.20487922 70.1388643 27.24593151 72.32430687 27.29296875 74.51171875 C27.3086792 75.82615967 27.32438965 77.14060059 27.34057617 78.49487305 C28.15159231 82.80577965 29.79451392 84.12941545 33 87 C33.48828125 90.11328125 33.48828125 90.11328125 33.3125 93.3125 C33.26738281 94.38113281 33.22226563 95.44976562 33.17578125 96.55078125 C33.08876953 97.76314453 33.08876953 97.76314453 33 99 C28.72254003 101.43037498 24.83579252 101.76588979 20 101 C17.5625 99 17.5625 99 16 97 C15.34 97 14.68 97 14 97 C12.02 103.27 10.04 109.54 8 116 C7.34 116 6.68 116 6 116 C5.7525 117.27875 5.505 118.5575 5.25 119.875 C4.49127205 123.38479906 3.42533882 126.42507525 1.9375 129.6875 C-0.71026494 135.91811414 -0.80711822 142.30700211 -1 149 C-1.33 149 -1.66 149 -2 149 C-2.58940746 81.82314288 -2.58940746 81.82314288 -0.5625 48.5625 C-0.49501556 47.44880035 -0.42753113 46.33510071 -0.35800171 45.18765259 C0.74204861 27.44179496 0.74204861 27.44179496 2 19 C2.11164933 16.62680265 2.17444623 14.25078636 2.1875 11.875 C2.20167969 10.69679687 2.21585938 9.51859375 2.23046875 8.3046875 C2.00623989 5.08947364 1.37866716 2.88811697 0 0 Z " fill="#F9FBFA" transform="translate(198,157)"/>
<path d="M0 0 C-0.04125 1.2375 -0.0825 2.475 -0.125 3.75 C-0.125 10.98034459 1.29657434 17.9947406 2.93603516 25.01220703 C4.1144696 30.30376733 4.90026017 35.62636623 5.65625 40.9921875 C5.80404907 42.01877472 5.95184814 43.04536194 6.10412598 44.10305786 C6.57266568 47.35991604 7.03669803 50.61739294 7.5 53.875 C7.96378896 57.12539165 8.4286287 60.37562212 8.89587402 63.6255188 C9.18518729 65.63878508 9.47251892 67.65233757 9.75744629 69.66622925 C10.57007599 75.33239093 11.51601945 80.95859939 12.55938721 86.58673096 C17.62972928 114.35737164 16.3199062 142.91547587 16 171 C15.67 171 15.34 171 15 171 C14.98541748 169.82493896 14.97083496 168.64987793 14.95581055 167.43920898 C14.89760489 163.05739728 14.82037392 158.67608752 14.73754883 154.29467773 C14.70440393 152.40250833 14.67633983 150.51024254 14.65356445 148.61791992 C14.61982579 145.88939546 14.56750135 143.161746 14.51171875 140.43359375 C14.50532883 139.59477158 14.4989389 138.7559494 14.49235535 137.89170837 C14.3596717 132.52715106 13.40483804 128.80392838 11 124 C10.66097656 123.2059375 10.32195312 122.411875 9.97265625 121.59375 C7.91824886 116.86773128 5.63769227 112.42755488 3 108 C2.42894531 108.20496094 1.85789063 108.40992188 1.26953125 108.62109375 C-8.92406517 112.0081552 -18.62050239 112.9907027 -29 110 C-29.33 108.68 -29.66 107.36 -30 106 C-27.525 105.505 -27.525 105.505 -25 105 C-25 105.66 -25 106.32 -25 107 C-23.68 107 -22.36 107 -21 107 C-21 107.99 -21 108.98 -21 110 C-19.35 110 -17.7 110 -16 110 C-16 109.34 -16 108.68 -16 108 C-15.195625 107.71125 -14.39125 107.4225 -13.5625 107.125 C-10.8673532 106.26737432 -10.8673532 106.26737432 -10 104 C-9.34 104 -8.68 104 -8 104 C-5.86108073 94.22460862 -5.7594275 87.8897101 -10.47265625 78.94140625 C-12.26841431 75.48307935 -13.92274335 71.97178396 -15.5625 68.4375 C-15.86260986 67.79184082 -16.16271973 67.14618164 -16.47192383 66.48095703 C-22.45798043 53.56688389 -22.45798043 53.56688389 -25 47 C-22.38340697 44.4880707 -21.13559064 44.00951513 -17.4375 43.75 C-12.85643231 44.08316856 -11.51903804 44.43152976 -8.375 47.875 C-4.71548729 52.6901483 -4.73938952 56.75713153 -4.37890625 62.6015625 C-4.25386719 63.39304688 -4.12882812 64.18453125 -4 65 C-3.34 65.33 -2.68 65.66 -2 66 C-2.15837552 54.16295973 -2.15837552 54.16295973 -7.75 44.1875 C-10.70642506 42.62716455 -13.79166688 41.90801881 -17 41 C-20.03567697 34.92864605 -17.76472076 25.27362453 -16 19 C-8.55694618 0 -8.55694618 0 0 0 Z " fill="#F5F6F7" transform="translate(146,159)"/>
<path d="M0 0 C0.27972656 0.63164062 0.55945313 1.26328125 0.84765625 1.9140625 C3.27943117 7.34059561 5.82176086 12.69040555 8.5 18 C11.11291547 23.18028992 13.59702132 28.39535846 15.95703125 33.6953125 C16.9481244 35.98516894 16.9481244 35.98516894 18.15234375 38 C20.44210998 43.40258208 18.04744099 50.8131495 16 56 C15.34 56 14.68 56 14 56 C13.690625 56.9590625 13.690625 56.9590625 13.375 57.9375 C12 60 12 60 8.875 60.75 C7.92625 60.8325 6.9775 60.915 6 61 C-3.40350814 48.4943036 -6.03116269 35.1584466 -8 20 C-7.01 20 -6.02 20 -5 20 C-5.03480469 18.89140625 -5.06960937 17.7828125 -5.10546875 16.640625 C-5.13361349 15.17709852 -5.16091292 13.71355561 -5.1875 12.25 C-5.22520508 11.15558594 -5.22520508 11.15558594 -5.26367188 10.0390625 C-5.308764 6.7323069 -5.22638385 4.41067943 -3.61328125 1.484375 C-2 0 -2 0 0 0 Z " fill="#FCFCFC" transform="translate(122,207)"/>
<path d="M0 0 C0.66 0.33 1.32 0.66 2 1 C2.23775311 2.72297622 2.41515564 4.45444973 2.5625 6.1875 C3.24956628 10.50655746 3.24956628 10.50655746 5.91796875 13.81640625 C7.48366648 14.77890385 9.06919409 15.70980571 10.671875 16.609375 C15.43143982 19.45233654 18.50990496 23.07462661 19.875 28.4375 C19.91625 29.283125 19.9575 30.12875 20 31 C20.66 31 21.32 31 22 31 C29.28929306 49.12239263 31.17389099 64.91840871 31.0625 84.25 C31.05747043 85.78515478 31.05291012 87.32031116 31.04882812 88.85546875 C31.03794839 92.5703467 31.02076577 96.28516259 31 100 C30.01 100 29.02 100 28 100 C27.97494385 99.08710205 27.9498877 98.1742041 27.92407227 97.23364258 C27.82868393 93.83232369 27.72946598 90.43116061 27.62768555 87.0300293 C27.58449295 85.56067232 27.54280744 84.0912702 27.50268555 82.62182617 C27.44460118 80.50425645 27.38101902 78.38691063 27.31640625 76.26953125 C27.27974854 74.99698486 27.24309082 73.72443848 27.20532227 72.41333008 C27.02951718 69.49070116 26.62628158 66.84970696 26 64 C25.93540958 62.23022239 25.91388935 60.45829848 25.9375 58.6875 C25.94652344 57.80449219 25.95554687 56.92148438 25.96484375 56.01171875 C25.97644531 55.34785156 25.98804688 54.68398437 26 54 C25.34 54 24.68 54 24 54 C23.78085938 53.05640625 23.56171875 52.1128125 23.3359375 51.140625 C20.48453278 39.37453679 16.72743872 28.10337638 7.72265625 19.515625 C2.43210903 16.57052841 -3.27415357 17.88415226 -9 19 C-9 19.66 -9 20.32 -9 21 C-10.72880982 21.05449838 -12.45812712 21.09301688 -14.1875 21.125 C-15.15042969 21.14820313 -16.11335938 21.17140625 -17.10546875 21.1953125 C-20.12812778 20.9913544 -22.26769985 20.26874632 -25 19 C-25 18.34 -25 17.68 -25 17 C-25.5775 16.896875 -26.155 16.79375 -26.75 16.6875 C-29.35661158 15.89103535 -30.9735311 14.80934723 -33 13 C-33 12.34 -33 11.68 -33 11 C-33.598125 10.79375 -34.19625 10.5875 -34.8125 10.375 C-37.8383427 8.47304173 -38.64708502 6.24699596 -40 3 C-40 2.34 -40 1.68 -40 1 C-35.51960711 2.40812348 -33.27650612 4.72349388 -30 8 C-27.82653432 8.86119134 -27.82653432 8.86119134 -26 9 C-26 9.66 -26 10.32 -26 11 C-17.585 10.01 -17.585 10.01 -9 9 C-9 8.34 -9 7.68 -9 7 C-7.28515625 5.78125 -7.28515625 5.78125 -5.0625 4.5 C-1.94567974 2.81545121 -1.94567974 2.81545121 0 0 Z " fill="#E39177" transform="translate(193,138)"/>
<path d="M0 0 C0.33 0 0.66 0 1 0 C0.31345964 14.76215242 -0.58204436 29.50469324 -1.5625 44.25 C-1.70261818 46.37499049 -1.84259285 48.49999046 -1.98242188 50.625 C-2.31996808 55.75011014 -2.65942865 60.87509003 -3 66 C1.65016453 62.89989031 2.51267965 58.24004993 4 53 C4.25686235 51.29828695 4.47092549 49.58907894 4.625 47.875 C4.74875 46.59625 4.8725 45.3175 5 44 C5.99 43.505 5.99 43.505 7 43 C11.04711438 51.09422877 6.77695316 63.57004958 5 72 C4.34 72 3.68 72 3 72 C1.39385449 80.08808989 0.73694048 87.7574683 1 96 C1.59296875 96.29132813 2.1859375 96.58265625 2.796875 96.8828125 C5.75130954 98.38098321 8.37552111 99.97199358 11 102 C11 103.32 11 104.64 11 106 C4.25 110 4.25 110 2 110 C2 110.66 2 111.32 2 112 C-1.6441774 114.4294516 -3.71241272 114.16179575 -8 114 C-8.18676508 98.42078226 -7.72519448 82.98095543 -6.6875 67.4375 C-6.58720993 65.88499039 -6.58720993 65.88499039 -6.4848938 64.30111694 C-5.09283155 42.77556057 -3.44532804 21.30886482 0 0 Z " fill="#D4D6D8" transform="translate(250,216)"/>
<path d="M0 0 C4.51961865 8.74638709 5.57157666 18.75895002 6.5625 28.4375 C6.68544434 29.59491699 6.80838867 30.75233398 6.93505859 31.94482422 C10.011926 61.90506646 11.17202104 91.89631739 11 122 C2.42 122 -6.16 122 -15 122 C-15 121.67 -15 121.34 -15 121 C-6.09 120.01 -6.09 120.01 3 119 C2.67 117.02 2.34 115.04 2 113 C0.21771064 111.85790183 0.21771064 111.85790183 -2 111 C-3.71108689 109.37897032 -5.37253306 107.70496537 -7 106 C-7.54527344 105.47535156 -8.09054688 104.95070313 -8.65234375 104.41015625 C-10.13974595 102.97875037 -11.57387006 101.49246156 -13 100 C-13 99.34 -13 98.68 -13 98 C-9.5645351 99.51634313 -7.03059551 101.56434023 -4.1875 104 C-0.1335669 107.3152164 2.86092775 109.1062483 8 110 C6.69080024 103.90104501 5.2452448 98.18569026 2.5 92.5625 C-2.53063869 81.95408367 -3.47062095 71.6260805 -3 60 C-2.67 60 -2.34 60 -2 60 C-1.83395264 60.84594727 -1.83395264 60.84594727 -1.66455078 61.70898438 C-1.15346884 64.30640811 -0.63925346 66.9032024 -0.125 69.5 C0.04902344 70.386875 0.22304687 71.27375 0.40234375 72.1875 C1.45757623 77.50274509 2.63957667 82.75440373 4 88 C4.66 88 5.32 88 6 88 C5.56137794 58.56694699 2.67443957 29.29627143 0 0 Z " fill="#D2D2D5" transform="translate(93,208)"/>
<path d="M0 0 C0.22265625 2.32421875 0.22265625 2.32421875 0 5 C-1.50390625 6.51953125 -1.50390625 6.51953125 -3.5625 7.8125 C-13.64970872 14.86998172 -18.13129555 23.6627032 -20.8125 35.625 C-21.07886727 40.4196108 -21.07812543 45.19962663 -21 50 C-19.96875 50.061875 -18.9375 50.12375 -17.875 50.1875 C-13.22663762 51.16215663 -11.26290384 52.58533319 -8 56 C-6.13793684 60.40750976 -5.77789325 64.11676906 -5.875 68.875 C-5.89304688 70.02742188 -5.91109375 71.17984375 -5.9296875 72.3671875 C-5.95289063 73.23601562 -5.97609375 74.10484375 -6 75 C-7.485 74.505 -7.485 74.505 -9 74 C-9.04898438 73.26394531 -9.09796875 72.52789062 -9.1484375 71.76953125 C-9.22320312 70.79371094 -9.29796875 69.81789063 -9.375 68.8125 C-9.47941406 67.36810547 -9.47941406 67.36810547 -9.5859375 65.89453125 C-10.01000859 62.9300343 -10.64536034 60.66781077 -12 58 C-12.99 57.34 -13.98 56.68 -15 56 C-15 55.34 -15 54.68 -15 54 C-22.26624581 53.25821841 -22.26624581 53.25821841 -28.5625 56.375 C-32.36442004 60.46937543 -32.27933786 63.74956132 -32.5625 69.125 C-32.60568359 69.87910156 -32.64886719 70.63320312 -32.69335938 71.41015625 C-32.7994832 73.27321888 -32.90025001 75.13658524 -33 77 C-34.32 76.67 -35.64 76.34 -37 76 C-37.08132187 73.43685501 -37.14064175 70.87631582 -37.1875 68.3125 C-37.21263672 67.59126953 -37.23777344 66.87003906 -37.26367188 66.12695312 C-37.32688237 61.51258688 -36.83634857 58.66699351 -34 55 C-31.04177251 52.26932847 -28.90230459 50.82851477 -25 50 C-25.05220703 48.20755859 -25.05220703 48.20755859 -25.10546875 46.37890625 C-25.44219461 30.1203461 -25.44219461 30.1203461 -22 23 C-21.6596875 22.18402344 -21.319375 21.36804688 -20.96875 20.52734375 C-17.88866093 13.62836046 -8.87578975 0 0 0 Z " fill="#35302E" transform="translate(150,150)"/>
<path d="M0 0 C4.16960826 0.21945307 5.93837947 0.68225957 9.1875 3.3125 C12.81427728 7.71023891 12.28741544 13.59361262 12.421875 19.01953125 C12.1992361 22.04925404 12.1992361 22.04925404 13.5625 23.1875 C13.64881874 24.53017413 13.66956473 25.87724322 13.66015625 27.22265625 C13.65693359 28.03154297 13.65371094 28.84042969 13.65039062 29.67382812 C13.64201172 30.52396484 13.63363281 31.37410156 13.625 32.25 C13.62048828 33.10400391 13.61597656 33.95800781 13.61132812 34.83789062 C13.59950373 36.95445663 13.58156769 39.07098685 13.5625 41.1875 C12.9025 41.1875 12.2425 41.1875 11.5625 41.1875 C11.28277344 40.49527344 11.00304687 39.80304688 10.71484375 39.08984375 C8.00643955 32.47994411 5.12177564 25.98178051 2.06225586 19.52905273 C-0.63697646 13.82637293 -3.12482902 8.05812632 -5.4375 2.1875 C-3.4375 0.1875 -3.4375 0.1875 0 0 Z " fill="#F7F7F6" transform="translate(128.4375,202.8125)"/>
<path d="M0 0 C7.00699044 2.87787107 11.662925 6.73773959 16 13 C17 16.5625 17 16.5625 17 19 C17.66 19 18.32 19 19 19 C26.28929306 37.12239263 28.17389099 52.91840871 28.0625 72.25 C28.05747043 73.78515478 28.05291012 75.32031116 28.04882812 76.85546875 C28.03794839 80.5703467 28.02076577 84.28516259 28 88 C27.01 88 26.02 88 25 88 C24.97494385 87.08710205 24.9498877 86.1742041 24.92407227 85.23364258 C24.82868393 81.83232369 24.72946598 78.43116061 24.62768555 75.0300293 C24.58449295 73.56067232 24.54280744 72.0912702 24.50268555 70.62182617 C24.44460118 68.50425645 24.38101902 66.38691063 24.31640625 64.26953125 C24.27974854 62.99698486 24.24309082 61.72443848 24.20532227 60.41333008 C24.02951718 57.49070116 23.62628158 54.84970696 23 52 C22.93540958 50.23022239 22.91388935 48.45829848 22.9375 46.6875 C22.94652344 45.80449219 22.95554688 44.92148438 22.96484375 44.01171875 C22.97644531 43.34785156 22.98804688 42.68398437 23 42 C22.34 42 21.68 42 21 42 C20.78085938 41.05640625 20.56171875 40.1128125 20.3359375 39.140625 C17.0783909 25.68760942 12.60951463 15.70612511 2.1953125 6.375 C0 4 0 4 0 0 Z " fill="#3D3937" transform="translate(196,150)"/>
<path d="M0 0 C0.33 0 0.66 0 1 0 C1.00410889 0.94319092 1.00821777 1.88638184 1.01245117 2.8581543 C1.03948859 6.37193676 1.08862841 9.88398682 1.15258789 13.3972168 C1.17572451 14.91501168 1.19015348 16.43296613 1.19555664 17.95092773 C1.20487922 20.1388643 1.24593151 22.32430687 1.29296875 24.51171875 C1.31653442 26.48338013 1.31653442 26.48338013 1.34057617 28.49487305 C2.15159231 32.80577965 3.79451392 34.12941545 7 37 C7.48828125 40.11328125 7.48828125 40.11328125 7.3125 43.3125 C7.24482422 44.91544922 7.24482422 44.91544922 7.17578125 46.55078125 C7.11777344 47.35902344 7.05976563 48.16726562 7 49 C2.67532648 51.44182246 -1.12089569 51.80739627 -6 51 C-9.0625 49.125 -9.0625 49.125 -11 46 C-11.83469804 41.38680282 -11.91130497 37.49454015 -9.4375 33.4375 C-7 32 -7 32 0 31 C0 20.77 0 10.54 0 0 Z " fill="#B4B4B6" transform="translate(224,207)"/>
<path d="M0 0 C3.4354649 1.51634313 5.96940449 3.56434023 8.8125 6 C12.8664331 9.3152164 15.86092775 11.1062483 21 12 C21 10.35 21 8.7 21 7 C21.99 7.33 22.98 7.66 24 8 C24 13.28 24 18.56 24 24 C15.42 24 6.84 24 -2 24 C-2 23.67 -2 23.34 -2 23 C6.91 22.01 6.91 22.01 16 21 C15.67 19.02 15.34 17.04 15 15 C13.21771064 13.85790183 13.21771064 13.85790183 11 13 C9.28891311 11.37897032 7.62746694 9.70496537 6 8 C5.45472656 7.47535156 4.90945312 6.95070313 4.34765625 6.41015625 C2.86025405 4.97875037 1.42612994 3.49246156 0 2 C0 1.34 0 0.68 0 0 Z " fill="#D1D3D5" transform="translate(80,306)"/>
<path d="M0 0 C-0.03480469 1.32064453 -0.03480469 1.32064453 -0.0703125 2.66796875 C-0.08835938 3.82941406 -0.10640625 4.99085938 -0.125 6.1875 C-0.15980469 7.91033203 -0.15980469 7.91033203 -0.1953125 9.66796875 C0.06383535 14.08903112 1.35898029 16.93985202 3.625 20.6875 C5 23 5 23 5 25 C6.1446875 25.0928125 6.1446875 25.0928125 7.3125 25.1875 C10 26 10 26 11.5 28.1875 C11.995 29.115625 12.49 30.04375 13 31 C15.9753722 35.0870935 15.9753722 35.0870935 20 38 C20.33 37.34 20.66 36.68 21 36 C21.99 36.66 22.98 37.32 24 38 C23.34 39.32 22.68 40.64 22 42 C23.98 42 25.96 42 28 42 C28.061875 41.443125 28.12375 40.88625 28.1875 40.3125 C29.33874823 37.03587043 31.48159664 35.33412994 34 33 C34.66 32.34 35.32 31.68 36 31 C36.99 31.33 37.98 31.66 39 32 C34.33333333 36.66666667 29.66666667 41.33333333 25 46 C21.9350908 44.66198588 20.14639067 43.29092019 18.0625 40.6875 C16.22953003 38.45746349 14.42396512 36.42396512 12.375 34.375 C10.03930944 32.03930944 8.06145226 29.57681532 6 27 C4.35259924 25.3142876 2.68933922 23.6436814 1 22 C0.67 21.67 0.34 21.34 0 21 C-0.66 21.99 -1.32 22.98 -2 24 C-5.09243697 7.18487395 -5.09243697 7.18487395 -3 3 C-3.66 2.67 -4.32 2.34 -5 2 C-2 0 -2 0 0 0 Z " fill="#D3A99D" transform="translate(149,156)"/>
<path d="M0 0 C2.78192079 3.25432244 4.66767506 6.13036434 6.1875 10.125 C8.82582006 16.77057979 11.9011847 23.17218561 15.0534668 29.58837891 C15.43414307 30.37519043 15.81481934 31.16200195 16.20703125 31.97265625 C16.5522583 32.67656494 16.89748535 33.38047363 17.25317383 34.10571289 C18 36 18 36 18 39 C18.66 39 19.32 39 20 39 C19.85982174 36.02046641 19.71313658 33.04150696 19.5625 30.0625 C19.52318359 29.21236328 19.48386719 28.36222656 19.44335938 27.48632812 C19.40146484 26.67744141 19.35957031 25.86855469 19.31640625 25.03515625 C19.27974854 24.2862915 19.24309082 23.53742676 19.20532227 22.76586914 C19.18228937 20.97538674 19.18228937 20.97538674 18 20 C17.92755947 17.98035801 17.91622812 15.95832876 17.9375 13.9375 C17.94652344 12.83277344 17.95554688 11.72804687 17.96484375 10.58984375 C17.97644531 9.73519531 17.98804688 8.88054687 18 8 C18.33 8 18.66 8 19 8 C19.04898438 8.78246094 19.09796875 9.56492188 19.1484375 10.37109375 C19.22320312 11.38300781 19.29796875 12.39492187 19.375 13.4375 C19.44460937 14.44683594 19.51421875 15.45617187 19.5859375 16.49609375 C19.72257812 17.32238281 19.85921875 18.14867187 20 19 C20.66 19.33 21.32 19.66 22 20 C21.67 15.05 21.34 10.1 21 5 C21.66 5.33 22.32 5.66 23 6 C23.10866202 14.18587214 23.01023521 22.32522164 22.5625 30.5 C22.52326416 31.24040527 22.48402832 31.98081055 22.44360352 32.74365234 C22.18087711 37.21050544 21.69222148 41.57908973 21 46 C20.34 46 19.68 46 19 46 C18.649375 44.989375 18.29875 43.97875 17.9375 42.9375 C14.7092936 34.32384976 10.55500381 26.00054543 6.375 17.8125 C3.59844305 12.34240608 1.2955898 6.68524793 -1 1 C-0.67 0.67 -0.34 0.34 0 0 Z " fill="#C8C8C7" transform="translate(122,205)"/>
<path d="M0 0 C1.37095624 3.69037278 0.60010967 5.70883835 -0.9375 9.25 C-1.31777344 10.14203125 -1.69804687 11.0340625 -2.08984375 11.953125 C-2.39019531 12.62859375 -2.69054687 13.3040625 -3 14 C-1.68 14 -0.36 14 1 14 C1.12375 13.38125 1.2475 12.7625 1.375 12.125 C2 10 2 10 4 8 C6.625 8.375 6.625 8.375 9 9 C9 9.99 9 10.98 9 12 C-0.16921047 18.11280698 -10.25675029 18.97943977 -21 17 C-23.34765625 15.953125 -23.34765625 15.953125 -25 15 C-24.67 13.68 -24.34 12.36 -24 11 C-22.68 11 -21.36 11 -20 11 C-20 11.66 -20 12.32 -20 13 C-18.68 13 -17.36 13 -16 13 C-16 13.99 -16 14.98 -16 16 C-14.35 16 -12.7 16 -11 16 C-11 15.34 -11 14.68 -11 14 C-10.195625 13.71125 -9.39125 13.4225 -8.5625 13.125 C-5.8673532 12.26737432 -5.8673532 12.26737432 -5 10 C-4.34 10 -3.68 10 -3 10 C-2.86722656 9.36191406 -2.73445313 8.72382813 -2.59765625 8.06640625 C-2.42105469 7.24011719 -2.24445313 6.41382813 -2.0625 5.5625 C-1.80146484 4.32693359 -1.80146484 4.32693359 -1.53515625 3.06640625 C-1 1 -1 1 0 0 Z " fill="#C7C7C7" transform="translate(141,253)"/>
<path d="M0 0 C5.49610436 10.67056811 7.2995547 25.04085468 7 37 C6.67 37 6.34 37 6 37 C6.0721875 38.15628906 6.144375 39.31257813 6.21875 40.50390625 C7.14468064 56.67385719 7.10225746 72.81028454 7 89 C6.34 88.67 5.68 88.34 5 88 C5.0314209 87.05930664 5.0314209 87.05930664 5.06347656 86.09960938 C5.74347557 61.80901187 3.48382579 37.81186961 1.24465942 13.6473999 C0.82429751 9.09876621 0.41254456 4.54934831 0 0 Z " fill="#E5E5E5" transform="translate(93,208)"/>
<path d="M0 0 C3.38583795 0.55118292 5.42957388 1.23353596 7.51171875 4.03125 C11 10.18821633 11 10.18821633 11 14 C11.66 14 12.32 14 13 14 C16 19.625 16 19.625 16 23 C15.21625 23.28875 14.4325 23.5775 13.625 23.875 C10.90328368 24.84912254 10.90328368 24.84912254 9 27 C8.73445312 25.99839844 8.46890625 24.99679688 8.1953125 23.96484375 C7.83857569 22.62238679 7.48180293 21.27993939 7.125 19.9375 C6.86396484 18.95233398 6.86396484 18.95233398 6.59765625 17.94726562 C5.44578418 13.61707986 4.24279335 9.30499139 3 5 C2.34 5 1.68 5 1 5 C0.67 3.35 0.34 1.7 0 0 Z " fill="#F4F2F0" transform="translate(212,164)"/>
<path d="M0 0 C0.22265625 2.32421875 0.22265625 2.32421875 0 5 C-1.50390625 6.51953125 -1.50390625 6.51953125 -3.5625 7.8125 C-11.57803086 13.37805411 -16.06795436 20.15742731 -20 29 C-20.66 28.67 -21.32 28.34 -22 28 C-19.93866259 17.08703723 -15.91262462 9.9461021 -6.734375 3.37890625 C-1.41235836 0 -1.41235836 0 0 0 Z " fill="#1F1B19" transform="translate(150,150)"/>
<path d="M0 0 C0.33 0 0.66 0 1 0 C1.0093457 0.60247559 1.01869141 1.20495117 1.02832031 1.82568359 C1.29034759 15.3611905 2.41525976 27.93260727 6 41 C6.24878906 41.95648438 6.49757813 42.91296875 6.75390625 43.8984375 C8.22414064 48.95604381 10.37505977 52.17911705 14 56 C10 56 10 56 8.69140625 54.70703125 C1.32380269 42.34271386 -1.17245574 30.07060502 -3 16 C-2.01 16 -1.02 16 0 16 C0 10.72 0 5.44 0 0 Z " fill="#C6C5C5" transform="translate(117,211)"/>
<path d="M0 0 C0.33 0 0.66 0 1 0 C1.33 6.27 1.66 12.54 2 19 C3.32 14.38 4.64 9.76 6 5 C6.66 5 7.32 5 8 5 C10.36095099 9.72190199 9.59285831 16.04537982 8.10546875 20.94921875 C7.13997541 23.34077646 6.12699214 25.68060992 5 28 C4.360625 27.67 3.72125 27.34 3.0625 27 C1.23205433 25.92728775 1.23205433 25.92728775 0 26 C0 17.42 0 8.84 0 0 Z " fill="#D19983" transform="translate(206,85)"/>
<path d="M0 0 C0.99 0 1.98 0 3 0 C3.82147238 4.99989592 4.1358223 9.83177018 4.09765625 14.90234375 C4.0962413 15.6249086 4.09482635 16.34747345 4.09336853 17.0919342 C4.08782225 19.37383365 4.0752802 21.65563079 4.0625 23.9375 C4.05747804 25.49544128 4.05291636 27.05338412 4.04882812 28.61132812 C4.0378705 32.40759081 4.02064372 36.20377813 4 40 C3.01 40 2.02 40 1 40 C0.67 26.8 0.34 13.6 0 0 Z " fill="#1C1816" transform="translate(220,198)"/>
<path d="M0 0 C7.00620316 2.87754772 11.70582365 6.70255956 16 13 C17.10166734 15.75416836 17.56952936 18.04051436 18 21 C15.51592812 20.62314294 14.29287076 20.32264059 12.578125 18.43359375 C12.13984375 17.77488281 11.7015625 17.11617187 11.25 16.4375 C8.41819169 12.39309685 5.19050482 9.16892197 1.5390625 5.859375 C0 4 0 4 0 0 Z " fill="#2C201B" transform="translate(196,150)"/>
<path d="M0 0 C4.62259834 3.61055018 8.18341945 7.35355738 11.59765625 12.1171875 C13.49978926 14.67102625 15.69302851 16.81133474 18 19 C19.66666667 20.66666667 21.33333333 22.33333333 23 24 C25.95800528 23.29231642 25.95800528 23.29231642 29 22 C29.68486725 20.67592331 30.34870203 19.34090759 31 18 C32.32774288 16.5389496 33.70631676 15.12291926 35.125 13.75 C35.84945312 13.04359375 36.57390625 12.3371875 37.3203125 11.609375 C37.87460938 11.07828125 38.42890625 10.5471875 39 10 C39.66 11.32 40.32 12.64 41 14 C40.40058594 14.2578125 39.80117187 14.515625 39.18359375 14.78125 C36.81370376 16.1039793 35.6992857 17.3599367 34.0625 19.5 C31.61519111 22.50012739 29.75088146 23.82115154 26 25 C25.67 25.66 25.34 26.32 25 27 C19.02281582 23.65980884 13.95731703 19.63156655 10 14 C10 13.34 10 12.68 10 12 C9.01 11.67 8.02 11.34 7 11 C6.855625 10.360625 6.71125 9.72125 6.5625 9.0625 C6.19895007 6.79688294 6.19895007 6.79688294 3.9375 5.75 C3.298125 5.5025 2.65875 5.255 2 5 C2 4.34 2 3.68 2 3 C1.34 3 0.68 3 0 3 C0 2.01 0 1.02 0 0 Z " fill="#4E5363" transform="translate(149,177)"/>
<path d="M0 0 C2.83188775 3.4505463 4.74503018 7.25962359 6.6875 11.25 C7.16799805 12.22453125 7.16799805 12.22453125 7.65820312 13.21875 C8.44247141 14.81069757 9.22174255 16.40510529 10 18 C10.66 16.68 11.32 15.36 12 14 C12 31.16 12 48.32 12 66 C11.67 66 11.34 66 11 66 C10.98541748 64.82493896 10.97083496 63.64987793 10.95581055 62.43920898 C10.89760489 58.05739728 10.82037392 53.67608752 10.73754883 49.29467773 C10.70440393 47.40250833 10.67633983 45.51024254 10.65356445 43.61791992 C10.61982579 40.88939546 10.56750135 38.161746 10.51171875 35.43359375 C10.50532883 34.59477158 10.4989389 33.7559494 10.49235535 32.89170837 C10.3596717 27.52715106 9.40483804 23.80392838 7 19 C6.66097656 18.2059375 6.32195312 17.411875 5.97265625 16.59375 C2.82946188 8.13619273 2.82946188 8.13619273 -3 2 C-2.01 1.34 -1.02 0.68 0 0 Z " fill="#D4DCE0" transform="translate(150,264)"/>
<path d="M0 0 C0.66 0 1.32 0 2 0 C2.65043719 1.72744016 3.29514844 3.4570369 3.9375 5.1875 C4.47697266 6.63189453 4.47697266 6.63189453 5.02734375 8.10546875 C5.91968203 10.76098145 6.64791048 13.2213476 7 16 C5.6875 18.3125 5.6875 18.3125 4 20 C3.34 20 2.68 20 2 20 C-0.52947951 14.83106361 -2.22639737 9.83242739 -2 4 C-1.01171875 1.73046875 -1.01171875 1.73046875 0 0 Z " fill="#D59B84" transform="translate(134,92)"/>
<path d="M0 0 C-0.9851725 3.182865 -2.04562914 6.08943312 -3.5625 9.0625 C-6.26374479 14.582435 -6.27173719 20.27321343 -6.5625 26.3125 C-6.60568359 27.14845703 -6.64886719 27.98441406 -6.69335938 28.84570312 C-6.79885307 30.89696935 -6.89987315 32.9484648 -7 35 C-7.33 35 -7.66 35 -8 35 C-8.03867188 33.73542969 -8.03867188 33.73542969 -8.078125 32.4453125 C-8.16320312 30.80175781 -8.16320312 30.80175781 -8.25 29.125 C-8.29640625 28.03445312 -8.3428125 26.94390625 -8.390625 25.8203125 C-8.68846128 22.8667935 -8.68846128 22.8667935 -11.046875 21.6171875 C-11.69140625 21.41351563 -12.3359375 21.20984375 -13 21 C-12.37406396 16.90502084 -11.03471847 13.63661344 -9.1875 9.9375 C-8.68605469 8.91527344 -8.18460937 7.89304688 -7.66796875 6.83984375 C-3.65061898 0 -3.65061898 0 0 0 Z " fill="#E7E6E5" transform="translate(132,165)"/>
<path d="M0 0 C0.33 1.32 0.66 2.64 1 4 C1.66 4 2.32 4 3 4 C4.27530911 5.47151051 5.5457574 6.94862247 6.7578125 8.47265625 C8.02889999 10.0978611 8.02889999 10.0978611 9.8125 11.75 C11 13 11 13 11 15 C9.02 15.99 7.04 16.98 5 18 C5 20.31 5 22.62 5 25 C4.34 25 3.68 25 3 25 C2.49420286 21.95919579 1.99519241 18.91753354 1.5 15.875 C1.35691406 15.0190625 1.21382812 14.163125 1.06640625 13.28125 C0.34304266 8.80328495 -0.17918816 4.55436565 0 0 Z " fill="#345270" transform="translate(148,176)"/>
<path d="M0 0 C0.33 0 0.66 0 1 0 C1.44298885 5.98034941 0.47782173 9.91782137 -1.91015625 15.390625 C-3.62136156 19.48770439 -4.80078826 23.73007942 -6 28 C-6.66 28 -7.32 28 -8 28 C-8.2475 29.27875 -8.495 30.5575 -8.75 31.875 C-9.50872795 35.38479906 -10.57466118 38.42507525 -12.0625 41.6875 C-14.71026494 47.91811414 -14.80711822 54.30700211 -15 61 C-15.33 61 -15.66 61 -16 61 C-16.65286614 49.82873495 -15.47430004 41.43259485 -11 31 C-10.40223002 29.5440817 -9.80730137 28.08699439 -9.21484375 26.62890625 C-8.04172663 23.74836569 -6.85250242 20.87553811 -5.6484375 18.0078125 C-1.99770799 9.24939424 -1.99770799 9.24939424 0 0 Z " fill="#D8DADD" transform="translate(212,245)"/>
<path d="M0 0 C2.61100681 5.22201362 1.86245287 10.44197042 1 16 C0.79340704 20.50678725 0.75898183 24.63673771 2 29 C-0.31 28.67 -2.62 28.34 -5 28 C-4.34 27.67 -3.68 27.34 -3 27 C-3.03480469 25.80503906 -3.06960937 24.61007813 -3.10546875 23.37890625 C-3.4216419 7.69869427 -3.4216419 7.69869427 0 0 Z " fill="#342D2B" transform="translate(128,173)"/>
<path d="M0 0 C0.33 0.66 0.66 1.32 1 2 C1.825 2.268125 2.65 2.53625 3.5 2.8125 C6 4 6 4 7 6.0625 C7 8.9612273 6.57408993 10.32134051 5.54296875 12.9609375 C3.64477638 18.47194456 3.44656646 23.77465937 3.3125 29.5625 C3.27833984 30.57119141 3.24417969 31.57988281 3.20898438 32.61914062 C3.12736719 35.07931568 3.05794324 37.53917309 3 40 C2.67 40 2.34 40 2 40 C1.97494385 39.0713916 1.9498877 38.1427832 1.92407227 37.18603516 C1.82902068 33.74564196 1.72978293 30.30542287 1.62768555 26.86523438 C1.58433411 25.37537359 1.54265916 23.88546305 1.50268555 22.39550781 C1.44498785 20.25570673 1.38129245 18.11615615 1.31640625 15.9765625 C1.27974854 14.68830566 1.24309082 13.40004883 1.20532227 12.07275391 C1.20469325 9.0872318 1.20469325 9.0872318 0 7 C-0.04022391 4.6670134 -0.04320247 2.33293334 0 0 Z " fill="#DDDDDC" transform="translate(223,198)"/>
<path d="M0 0 C0.33 0 0.66 0 1 0 C1.103125 1.216875 1.20625 2.43375 1.3125 3.6875 C1.77061209 7.45198628 2.88237702 9.82356553 5 13 C5.6875 15.3125 5.6875 15.3125 6 17 C5.21625 17.2475 4.4325 17.495 3.625 17.75 C0.67682892 19.15389099 0.0975223 20.00675737 -1 23 C-2.32 23 -3.64 23 -5 23 C-4.77183594 22.33613281 -4.54367188 21.67226563 -4.30859375 20.98828125 C-4.02113281 20.10527344 -3.73367187 19.22226562 -3.4375 18.3125 C-3.14746094 17.44238281 -2.85742188 16.57226562 -2.55859375 15.67578125 C-1.94858039 12.75368926 -2.22296367 10.85599447 -3 8 C-2.01 7.67 -1.02 7.34 0 7 C0 4.69 0 2.38 0 0 Z " fill="#F4F4F4" transform="translate(143,244)"/>
<path d="M0 0 C-0.03480469 1.32064453 -0.03480469 1.32064453 -0.0703125 2.66796875 C-0.08835938 3.82941406 -0.10640625 4.99085938 -0.125 6.1875 C-0.15980469 7.91033203 -0.15980469 7.91033203 -0.1953125 9.66796875 C0.06465241 14.1029701 1.30943211 16.92578328 3.6875 20.625 C4.120625 21.40875 4.55375 22.1925 5 23 C4.67 23.99 4.34 24.98 4 26 C2.68 24.35 1.36 22.7 0 21 C-0.66 21.99 -1.32 22.98 -2 24 C-5.09243697 7.18487395 -5.09243697 7.18487395 -3 3 C-3.66 2.67 -4.32 2.34 -5 2 C-2 0 -2 0 0 0 Z " fill="#CDA697" transform="translate(149,156)"/>
<path d="M0 0 C0.66 0 1.32 0 2 0 C1.6875 1.9375 1.6875 1.9375 1 4 C0.01 4.33 -0.98 4.66 -2 5 C-2.7784608 6.93065653 -2.7784608 6.93065653 -3.25 9.3125 C-5.0022336 15.78733111 -8.11026432 21.54499719 -12 27 C-12.66 27 -13.32 27 -14 27 C-14.25 24.75 -14.25 24.75 -14 22 C-13.4121875 21.443125 -12.824375 20.88625 -12.21875 20.3125 C-9.31798513 17.28916761 -7.92434733 14.05141517 -6.25 10.25 C-5.93417969 9.55261719 -5.61835938 8.85523437 -5.29296875 8.13671875 C-4.52058048 6.42810227 -3.75917018 4.71453041 -3 3 C-2.01 3 -1.02 3 0 3 C0 2.01 0 1.02 0 0 Z " fill="#E3AE9A" transform="translate(208,112)"/>
<path d="M0 0 C2.475 0.99 2.475 0.99 5 2 C4.63259093 10.08299944 3.74049239 17.36454007 1 25 C0.67 25 0.34 25 0 25 C0 16.75 0 8.5 0 0 Z " fill="#3D251E" transform="translate(207,82)"/>
<path d="M0 0 C0.33 0.99 0.66 1.98 1 3 C2.05270463 4.15811388 2.05270463 4.15811388 4 5 C4 6.65 4 8.3 4 10 C-2.3782235 10.36103152 -2.3782235 10.36103152 -4.9375 8.875 C-6.44484863 6.214973 -6.19986253 3.99793795 -6 1 C-4 0 -4 0 0 0 Z " fill="#BBBCBF" transform="translate(222,246)"/>
<path d="M0 0 C0.33 0 0.66 0 1 0 C1.10546143 0.55872803 1.21092285 1.11745605 1.31958008 1.69311523 C1.81085368 4.27583359 2.3116249 6.85662721 2.8125 9.4375 C2.97814453 10.31599609 3.14378906 11.19449219 3.31445312 12.09960938 C4.45135395 17.91281925 5.98040934 23.43144473 8 29 C7.34 29 6.68 29 6 29 C5.67 29.99 5.34 30.98 5 32 C4.35105763 29.93847611 3.7059736 27.87573742 3.0625 25.8125 C2.70285156 24.66394531 2.34320313 23.51539063 1.97265625 22.33203125 C0.3977656 16.93692392 -0.11521226 12.32771208 -0.0625 6.6875 C-0.05347656 5.43324219 -0.04445313 4.17898438 -0.03515625 2.88671875 C-0.01775391 1.45779297 -0.01775391 1.45779297 0 0 Z " fill="#D9D9D9" transform="translate(90,268)"/>
<path d="M0 0 C1.32 0 2.64 0 4 0 C4 0.66 4 1.32 4 2 C5.32 2 6.64 2 8 2 C8 2.99 8 3.98 8 5 C9.65 5 11.3 5 13 5 C13 4.34 13 3.68 13 3 C18.75 2.875 18.75 2.875 21 4 C21 4.66 21 5.32 21 6 C13.46462229 6.94351599 7.33152608 7.07726572 0 5 C-0.5625 3.0625 -0.5625 3.0625 -1 1 C-0.67 0.67 -0.34 0.34 0 0 Z " fill="#B2B2B2" transform="translate(117,264)"/>
<path d="M0 0 C3.38583795 0.55118292 5.42957388 1.23353596 7.51171875 4.03125 C11 10.18821633 11 10.18821633 11 14 C11.66 14 12.32 14 13 14 C16 19.625 16 19.625 16 23 C15.21625 23.28875 14.4325 23.5775 13.625 23.875 C10.90328368 24.84912254 10.90328368 24.84912254 9 27 C9 25.68 9 24.36 9 23 C11 21.25 11 21.25 13 20 C12.4225 19.01257813 11.845 18.02515625 11.25 17.0078125 C10.499774 15.71367265 9.74978632 14.41939463 9 13.125 C8.6184375 12.47402344 8.236875 11.82304687 7.84375 11.15234375 C5 6.2265625 5 6.2265625 5 4 C3.68 4.33 2.36 4.66 1 5 C0.67 3.35 0.34 1.7 0 0 Z " fill="#E1E1E0" transform="translate(212,164)"/>
<path d="M0 0 C0.99 0.33 1.98 0.66 3 1 C2.505 1.350625 2.01 1.70125 1.5 2.0625 C-0.80056475 5.0340628 -0.38385574 7.35337051 0 11 C0.88329643 13.53958234 0.88329643 13.53958234 3 15 C7.25058287 15.46369995 10.35918336 15.33012265 14 13 C12.125 16.875 12.125 16.875 11 18 C6.34902355 18.67266188 2.99006582 18.60616275 -1.0625 16.125 C-3.70262542 11.86673319 -3.99774539 7.90558148 -3 3 C-1.46875 1.1953125 -1.46875 1.1953125 0 0 Z " fill="#646568" transform="translate(216,240)"/>
<path d="M0 0 C2 2 2 2 2.1953125 5.2578125 C2.16050781 7.17207031 2.16050781 7.17207031 2.125 9.125 C2.10695312 10.40632812 2.08890625 11.68765625 2.0703125 13.0078125 C2.04710937 13.99523437 2.02390625 14.98265625 2 16 C1.42765625 16.23460937 0.8553125 16.46921875 0.265625 16.7109375 C-2.51684301 18.29406585 -4.17070214 20.1991525 -6.25 22.625 C-6.95640625 23.44226563 -7.6628125 24.25953125 -8.390625 25.1015625 C-8.92171875 25.72804687 -9.4528125 26.35453125 -10 27 C-10.33 25.68 -10.66 24.36 -11 23 C-8.70507812 21.19335938 -8.70507812 21.19335938 -6.41015625 19.38671875 C-4.72844923 17.94316909 -4.72844923 17.94316909 -4 15 C-3.34 15 -2.68 15 -2 15 C-1.34 10.05 -0.68 5.1 0 0 Z " fill="#DFB6A7" transform="translate(199,160)"/>
<path d="M0 0 C0.33 0.33 0.66 0.66 1 1 C0.71269945 3.33944736 0.38063221 5.6739143 0 8 C-1.98 8 -3.96 8 -6 8 C-6.33 5.69 -6.66 3.38 -7 1 C-4.51588385 -0.24205807 -2.74800896 -0.14092354 0 0 Z " fill="#EBEBEB" transform="translate(208,298)"/>
<path d="M0 0 C0.33 0.99 0.66 1.98 1 3 C2.32 3 3.64 3 5 3 C6.29243536 7.1196377 7.26252625 10.66831683 7 15 C6.01 15 5.02 15 4 15 C3.67 16.32 3.34 17.64 3 19 C3 15.7 3 12.4 3 9 C2.34 9 1.68 9 1 9 C0.67 6.03 0.34 3.06 0 0 Z " fill="#403B3A" transform="translate(216,183)"/>
<path d="M0 0 C0.2265625 2.29296875 0.2265625 2.29296875 0 5 C-3.14321956 8.67772644 -6.70973073 10.86175686 -11.5 11.375 C-12.325 11.25125 -13.15 11.1275 -14 11 C-11.04751303 7.03259563 -5.52626177 0 0 0 Z " fill="#231814" transform="translate(150,150)"/>
<path d="M0 0 C0.99 0.495 0.99 0.495 2 1 C3.07076424 4.25737752 4.00352168 7.52060249 4.88085938 10.83398438 C6.3549228 15.96713773 8.33622786 19.10302293 12 23 C10.68 23 9.36 23 8 23 C2.96264429 17.76286248 0.18759879 9.56437698 -0.1875 2.4375 C-0.125625 1.633125 -0.06375 0.82875 0 0 Z " fill="#BEBEBE" transform="translate(119,244)"/>
<path d="M0 0 C-0.99 1.485 -0.99 1.485 -2 3 C-2.6909375 2.51144531 -3.381875 2.02289062 -4.09375 1.51953125 C-7.50362898 -0.26332214 -9.67555686 -0.3705815 -13.5 -0.3125 C-14.6034375 -0.30863281 -15.706875 -0.30476562 -16.84375 -0.30078125 C-19.95677842 -0.00411889 -22.14984699 0.78134819 -25 2 C-27.3125 1.625 -27.3125 1.625 -29 1 C-22.70265196 -5.29734804 -7.26424542 -4.19025031 0 0 Z " fill="#100907" transform="translate(189,16)"/>
<path d="M0 0 C0.66 0.33 1.32 0.66 2 1 C1.1875 3.9375 1.1875 3.9375 0 7 C-0.99 7.33 -1.98 7.66 -3 8 C-3.66 14.6 -4.32 21.2 -5 28 C-7 26 -7 26 -7.23828125 22.85546875 C-6.99013459 18.84037441 -6.25779377 15.16944954 -5.1875 11.3125 C-5.02185547 10.66216797 -4.85621094 10.01183594 -4.68554688 9.34179688 C-3.68786258 5.64848255 -2.54165121 2.87665395 0 0 Z " fill="#C89885" transform="translate(148,72)"/>
<path d="M0 0 C0.66 1.32 1.32 2.64 2 4 C1.40058594 4.2578125 0.80117187 4.515625 0.18359375 4.78125 C-2.18629624 6.1039793 -3.3007143 7.3599367 -4.9375 9.5 C-7.38480889 12.50012739 -9.24911854 13.82115154 -13 15 C-13.33 15.66 -13.66 16.32 -14 17 C-14.66 16.34 -15.32 15.68 -16 15 C-12.25 12 -12.25 12 -10 12 C-9.75507813 11.42765625 -9.51015625 10.8553125 -9.2578125 10.265625 C-7.78889901 7.61975598 -6.04651756 5.85146861 -3.875 3.75 C-3.15054688 3.04359375 -2.42609375 2.3371875 -1.6796875 1.609375 C-1.12539062 1.07828125 -0.57109375 0.5471875 0 0 Z " fill="#555B6C" transform="translate(188,187)"/>
<path d="M0 0 C2 2 2 2 2.265625 4.25 C2.22882278 10.72719025 1.52944085 16.7047122 0 23 C-0.33 23 -0.66 23 -1 23 C-1.02887512 19.35418313 -1.04675585 15.70839537 -1.0625 12.0625 C-1.07087891 11.02158203 -1.07925781 9.98066406 -1.08789062 8.90820312 C-1.09272461 7.42416992 -1.09272461 7.42416992 -1.09765625 5.91015625 C-1.10289307 4.99371338 -1.10812988 4.07727051 -1.11352539 3.13305664 C-1 1 -1 1 0 0 Z " fill="#DBDBDC" transform="translate(256,259)"/>
<path d="M0 0 C2.42130331 3.63195496 2.21022785 5.38349348 2.125 9.6875 C2.10695312 10.86699219 2.08890625 12.04648438 2.0703125 13.26171875 C2.03550781 14.61716797 2.03550781 14.61716797 2 16 C1.01 15.67 0.02 15.34 -1 15 C-1.33 10.38 -1.66 5.76 -2 1 C-1.34 0.67 -0.68 0.34 0 0 Z " fill="#120E0D" transform="translate(142,209)"/>
<path d="M0 0 C0.99 0.33 1.98 0.66 3 1 C-1.66666667 5.66666667 -6.33333333 10.33333333 -11 15 C-11.99 14.67 -12.98 14.34 -14 14 C-14 13.01 -14 12.02 -14 11 C-12.02 11 -10.04 11 -8 11 C-7.938125 10.443125 -7.87625 9.88625 -7.8125 9.3125 C-6.66125177 6.03587043 -4.51840336 4.33412994 -2 2 C-1.34 1.34 -0.68 0.68 0 0 Z " fill="#D5A99E" transform="translate(185,187)"/>
<path d="M0 0 C0.66 0 1.32 0 2 0 C2.08226668 3.04386724 1.97608217 5.07175348 1 8 C1.64949225 10.33817209 2.31744011 12.67126625 3 15 C3.125 17.9375 3.125 17.9375 3 20 C-0.24280482 16.46239474 -1.38344258 12.67194215 -2 8 C-1.48275862 1.48275862 -1.48275862 1.48275862 0 0 Z " fill="#DFAF9F" transform="translate(134,92)"/>
<path d="M0 0 C0.33 0.66 0.66 1.32 1 2 C0.06553465 4.03144641 -0.93224776 6.03533587 -2 8 C-0.68 7.67 0.64 7.34 2 7 C2 12.28 2 17.56 2 23 C1.67 23 1.34 23 1 23 C0.96132812 21.73542969 0.96132812 21.73542969 0.921875 20.4453125 C0.83679688 18.80175781 0.83679688 18.80175781 0.75 17.125 C0.70359375 16.03445312 0.6571875 14.94390625 0.609375 13.8203125 C0.31153872 10.8667935 0.31153872 10.8667935 -2.046875 9.6171875 C-2.69140625 9.41351563 -3.3359375 9.20984375 -4 9 C-3.46930939 5.17902761 -2.50298434 2.93828597 0 0 Z " fill="#C2C0BF" transform="translate(123,177)"/>
<path d="M0 0 C0.33 0 0.66 0 1 0 C1.103125 1.216875 1.20625 2.43375 1.3125 3.6875 C1.77061209 7.45198628 2.88237702 9.82356553 5 13 C5.6875 15.3125 5.6875 15.3125 6 17 C5.01 17 4.02 17 3 17 C2.34 14.69 1.68 12.38 1 10 C-0.32 10 -1.64 10 -3 10 C-2.67 9.01 -2.34 8.02 -2 7 C-1.34 7 -0.68 7 0 7 C0 4.69 0 2.38 0 0 Z " fill="#D9DADA" transform="translate(143,244)"/>
<path d="M0 0 C2.03219488 3.40351338 2.36891039 6.3232927 2.625 10.25 C2.69976562 11.32765625 2.77453125 12.4053125 2.8515625 13.515625 C2.92503906 14.74539062 2.92503906 14.74539062 3 16 C2.34 16.33 1.68 16.66 1 17 C-0.5625 15.875 -0.5625 15.875 -2 14 C-1.75 11.3125 -1.75 11.3125 -1 8 C-0.79794261 6.54361229 -0.61064545 5.08510719 -0.4375 3.625 C-0.293125 2.42875 -0.14875 1.2325 0 0 Z " fill="#D59786" transform="translate(194,139)"/>
<path d="M0 0 C0.66 0 1.32 0 2 0 C3.32229189 2.64458379 3.09677194 4.67761301 3.0625 7.625 C3.05347656 8.62789062 3.04445312 9.63078125 3.03515625 10.6640625 C3.02355469 11.43492188 3.01195312 12.20578125 3 13 C2.01 13.495 2.01 13.495 1 14 C1 12.35 1 10.7 1 9 C0.34 9 -0.32 9 -1 9 C-0.67 6.03 -0.34 3.06 0 0 Z " fill="#CFA290" transform="translate(212,90)"/>
<path d="M0 0 C2.625 0.375 2.625 0.375 5 1 C5 1.99 5 2.98 5 4 C3.25 5.75 3.25 5.75 1 7 C-1.25 6.6875 -1.25 6.6875 -3 6 C-2.42655063 3.13275314 -2.1385485 2.1385485 0 0 Z " fill="#363434" transform="translate(145,261)"/>
<path d="M0 0 C2.42776667 1.29480889 3.76967674 2.35838519 4.7109375 4.98046875 C5.19782198 6.9738726 5.60391861 8.98658625 6 11 C2.96867715 10.42260517 2.20746921 10.25754798 0.1875 7.75 C-1.17213761 4.60136553 -1.0111514 3.21729991 0 0 Z " fill="#241E1C" transform="translate(208,160)"/>
<path d="M0 0 C-0.66 5.94 -1.32 11.88 -2 18 C-2.33 18 -2.66 18 -3 18 C-3.19448477 15.87562788 -3.38038289 13.75046809 -3.5625 11.625 C-3.66691406 10.44164062 -3.77132812 9.25828125 -3.87890625 8.0390625 C-4 5 -4 5 -3 3 C-3.66 2.67 -4.32 2.34 -5 2 C-2 0 -2 0 0 0 Z " fill="#E1C2B2" transform="translate(149,156)"/>
<path d="M0 0 C-2.475 3.465 -2.475 3.465 -5 7 C-5.33 6.34 -5.66 5.68 -6 5 C-6.66 5 -7.32 5 -8 5 C-8 5.66 -8 6.32 -8 7 C-8.66 6.67 -9.32 6.34 -10 6 C-7.50151301 1.25287472 -5.58854642 -1.86284881 0 0 Z " fill="#322A27" transform="translate(141,161)"/>
<path d="M0 0 C4.03384128 2.07143201 5.92856799 3.96615872 8 8 C7.01 9.485 7.01 9.485 6 11 C6 10.34 6 9.68 6 9 C5.34 9 4.68 9 4 9 C0.88002198 5.69649386 0 4.67590167 0 0 Z " fill="#312D2C" transform="translate(135,201)"/>
<path d="M0 0 C1.32 0 2.64 0 4 0 C4 4.62 4 9.24 4 14 C1.01520806 9.52281208 0 5.36175907 0 0 Z " fill="#2A0D04" transform="translate(137,92)"/>
<path d="M0 0 C0.33 0 0.66 0 1 0 C1.08690253 4.43737712 1.14035926 8.87453634 1.1875 13.3125 C1.22520508 15.20645508 1.22520508 15.20645508 1.26367188 17.13867188 C1.27333984 18.34716797 1.28300781 19.55566406 1.29296875 20.80078125 C1.3086792 21.91622314 1.32438965 23.03166504 1.34057617 24.1809082 C1 27 1 27 -0.51831055 28.88745117 C-1.25174683 29.43816284 -1.25174683 29.43816284 -2 30 C-1.84152588 29.29786377 -1.68305176 28.59572754 -1.51977539 27.87231445 C-0.98109408 24.89552459 -0.79208274 22.06516197 -0.68359375 19.04296875 C-0.62075195 17.37524414 -0.62075195 17.37524414 -0.55664062 15.67382812 C-0.51732422 14.52333984 -0.47800781 13.37285156 -0.4375 12.1875 C-0.39431641 11.01767578 -0.35113281 9.84785156 -0.30664062 8.64257812 C-0.20081721 5.76182969 -0.09873175 2.88099877 0 0 Z " fill="#D5D2D1" transform="translate(220,207)"/>
<path d="M0 0 C2.875 0.25 2.875 0.25 6 1 C7.375 3.0625 7.375 3.0625 8 5 C7.38125 4.835 6.7625 4.67 6.125 4.5 C1.74529271 3.79924683 -2.57428989 3.92265749 -7 4 C-7 3.01 -7 2.02 -7 1 C-4.69 1 -2.38 1 0 1 C0 0.67 0 0.34 0 0 Z " fill="#171411" transform="translate(129,200)"/>
<path d="M0 0 C1.32 0 2.64 0 4 0 C4 0.66 4 1.32 4 2 C4.99 2.33 5.98 2.66 7 3 C6.67 3.99 6.34 4.98 6 6 C3.03 5.505 3.03 5.505 0 5 C-0.5625 3.0625 -0.5625 3.0625 -1 1 C-0.67 0.67 -0.34 0.34 0 0 Z " fill="#2B2727" transform="translate(117,264)"/>
<path d="M0 0 C0.66 0.66 1.32 1.32 2 2 C-2.75 6 -2.75 6 -5 6 C-5.66 7.65 -6.32 9.3 -7 11 C-7.66 11 -8.32 11 -9 11 C-9.66 12.32 -10.32 13.64 -11 15 C-10.67666114 9.66490885 -7.59438544 6.63023966 -4 3 C-1.625 1.0625 -1.625 1.0625 0 0 Z " fill="#1A0E0C" transform="translate(150,40)"/>
<path d="M0 0 C0.33 0 0.66 0 1 0 C1 2.64 1 5.28 1 8 C0.67 7.01 0.34 6.02 0 5 C-3.14349841 6.0478328 -3.73251185 6.57913668 -5.6875 9.0625 C-6.450625 10.031875 -7.21375 11.00125 -8 12 C-8.66 11.67 -9.32 11.34 -10 11 C-8.35742342 9.16365304 -6.71117305 7.3308593 -5.0625 5.5 C-4.59392578 4.97535156 -4.12535156 4.45070312 -3.64257812 3.91015625 C-2.44904592 2.5878256 -1.22665821 1.29166061 0 0 Z " fill="#535A69" transform="translate(199,175)"/>
<path d="M0 0 C0.99 0 1.98 0 3 0 C3 3.63 3 7.26 3 11 C2.34 11 1.68 11 1 11 C-0.28317892 7.15046324 -0.06643637 4.05261865 0 0 Z " fill="#181413" transform="translate(113,212)"/>
<path d="M0 0 C0.66 0 1.32 0 2 0 C2 1.32 2 2.64 2 4 C2.99 4.33 3.98 4.66 5 5 C5 5.99 5 6.98 5 8 C5.66 8 6.32 8 7 8 C7.33 9.98 7.66 11.96 8 14 C4.31534095 10.71012585 2.22105818 7.36279286 0 3 C0 2.01 0 1.02 0 0 Z " fill="#DFAF9B" transform="translate(144,123)"/>
<path d="M0 0 C0.33 0 0.66 0 1 0 C1 4.95 1 9.9 1 15 C-0.32 14.67 -1.64 14.34 -3 14 C-3 12.02 -3 10.04 -3 8 C-2.67 8.99 -2.34 9.98 -2 11 C-1.34 11 -0.68 11 0 11 C0 7.37 0 3.74 0 0 Z " fill="#413C3C" transform="translate(116,212)"/>
<path d="M0 0 C0.33 0.66 0.66 1.32 1 2 C1.66 2 2.32 2 3 2 C3 3.65 3 5.3 3 7 C1.02 6.34 -0.96 5.68 -3 5 C-2.625 3.0625 -2.625 3.0625 -2 1 C-1.34 0.67 -0.68 0.34 0 0 Z " fill="#D3D2D2" transform="translate(216,190)"/>
<path d="M0 0 C1.66611905 -0.042721 3.33382885 -0.04063832 5 0 C6 1 6 1 6.0625 3.5625 C6.041875 4.366875 6.02125 5.17125 6 6 C4.35 6.33 2.7 6.66 1 7 C1.99 6.67 2.98 6.34 4 6 C4 4.68 4 3.36 4 2 C0.9254644 2.7763932 0.9254644 2.7763932 -1 5 C-0.67 3.35 -0.34 1.7 0 0 Z " fill="#D9D8D9" transform="translate(203,298)"/>
<path d="M0 0 C1.32 0.66 2.64 1.32 4 2 C3.34 3.98 2.68 5.96 2 8 C0.02 6.35 -1.96 4.7 -4 3 C-2.68 2.67 -1.36 2.34 0 2 C0 1.34 0 0.68 0 0 Z " fill="#D3A28F" transform="translate(169,192)"/>
<path d="M0 0 C0.66 0.66 1.32 1.32 2 2 C1.2884375 2.7734375 1.2884375 2.7734375 0.5625 3.5625 C-2.415128 8.20759968 -2.13109961 13.62491588 -2 19 C-4.35930537 15.31358535 -4.43072427 12.30724265 -4 8 C-2.87429501 5.20531499 -1.51411212 2.6023802 0 0 Z " fill="#170B09" transform="translate(154,21)"/>
<path d="M0 0 C0.66 0 1.32 0 2 0 C3.4606285 2.64738916 4 3.89448334 4 7 C3.21625 7.28875 2.4325 7.5775 1.625 7.875 C-1.09671632 8.84912254 -1.09671632 8.84912254 -3 11 C-3 9.68 -3 8.36 -3 7 C-1 5.25 -1 5.25 1 4 C0.67 2.68 0.34 1.36 0 0 Z " fill="#D0CFCD" transform="translate(224,180)"/>
<path d="M0 0 C0.66 0.66 1.32 1.32 2 2 C1.66621509 7.00677362 0.76961889 11.28101628 -1 16 C-2.26823485 12.34606463 -1.75715321 9.50929974 -1.0625 5.75 C-0.86785156 4.67234375 -0.67320312 3.5946875 -0.47265625 2.484375 C-0.31667969 1.66453125 -0.16070312 0.8446875 0 0 Z " fill="#D2A18F" transform="translate(152,137)"/>
<path d="M0 0 C0.66 0.33 1.32 0.66 2 1 C1.34 5.29 0.68 9.58 0 14 C-2 11 -2 11 -1.7578125 8.30078125 C-1.54898438 7.31464844 -1.34015625 6.32851562 -1.125 5.3125 C-0.92132813 4.31863281 -0.71765625 3.32476562 -0.5078125 2.30078125 C-0.34023437 1.54152344 -0.17265625 0.78226563 0 0 Z " fill="#ECECEC" transform="translate(252,205)"/>
<path d="M0 0 C1.98 0.99 1.98 0.99 4 2 C3.67 2.99 3.34 3.98 3 5 C2.96079185 6.99961564 2.95556653 9.00049364 3 11 C2.34 11 1.68 11 1 11 C0.67 7.37 0.34 3.74 0 0 Z M4 1 C6 2 6 2 6 2 Z " fill="#2A4D65" transform="translate(150,190)"/>
<path d="M0 0 C0.33 0.66 0.66 1.32 1 2 C1.825 2.309375 2.65 2.61875 3.5 2.9375 C4.325 3.288125 5.15 3.63875 6 4 C6.33 4.99 6.66 5.98 7 7 C6.34 7 5.68 7 5 7 C5 6.34 5 5.68 5 5 C4.34 5 3.68 5 3 5 C2.34 6.32 1.68 7.64 1 9 C-0.4783226 6.04335481 -0.06032783 3.25770263 0 0 Z " fill="#C1C0BE" transform="translate(223,198)"/>
<path d="M0 0 C1.12377697 3.30435084 0.89554742 5.0506862 -0.4375 8.25 C-0.72496094 8.95640625 -1.01242188 9.6628125 -1.30859375 10.390625 C-1.53675781 10.92171875 -1.76492187 11.4528125 -2 12 C-2.66 12 -3.32 12 -4 12 C-3.52494322 10.18641846 -3.04483958 8.37415821 -2.5625 6.5625 C-2.29566406 5.55316406 -2.02882812 4.54382813 -1.75390625 3.50390625 C-1 1 -1 1 0 0 Z " fill="#BDBEBE" transform="translate(141,253)"/>
<path d="M0 0 C2.91517292 1.07401108 4.77810176 1.77810176 7 4 C6.01 4.33 5.02 4.66 4 5 C4 4.34 4 3.68 4 3 C3.01 3 2.02 3 1 3 C0.67 5.31 0.34 7.62 0 10 C-0.33 10 -0.66 10 -1 10 C-1.02689216 8.52093108 -1.04634621 7.04172517 -1.0625 5.5625 C-1.07410156 4.73878906 -1.08570312 3.91507813 -1.09765625 3.06640625 C-1 1 -1 1 0 0 Z " fill="#BEBCBC" transform="translate(129,188)"/>
<path d="M0 0 C1.9453125 0.7265625 1.9453125 0.7265625 4 2 C4.6796875 4.0234375 4.6796875 4.0234375 4.875 6.375 C4.95492187 7.14585937 5.03484375 7.91671875 5.1171875 8.7109375 C4.98566262 11.2800568 4.29480364 12.80184499 3 15 C2.92652344 14.00419922 2.92652344 14.00419922 2.8515625 12.98828125 C2.28874188 6.2887764 2.28874188 6.2887764 0 0 Z " fill="#FCF4E9" transform="translate(198,157)"/>
<path d="M0 0 C-6.14285714 5.57142857 -6.14285714 5.57142857 -11 6 C-8.34806708 2.26764996 -4.95872866 -2.47936433 0 0 Z " fill="#D0A08D" transform="translate(162,63)"/>
<path d="M0 0 C0 0.99 0 1.98 0 3 C-2 5 -2 5 -3.9453125 5.1953125 C-5.96354167 5.13020833 -7.98177083 5.06510417 -10 5 C-10 4.34 -10 3.68 -10 3 C-9.04287109 2.80083984 -9.04287109 2.80083984 -8.06640625 2.59765625 C-7.24011719 2.42105469 -6.41382813 2.24445313 -5.5625 2.0625 C-4.73878906 1.88847656 -3.91507813 1.71445313 -3.06640625 1.53515625 C-1.02338796 1.19247006 -1.02338796 1.19247006 0 0 Z " fill="#515255" transform="translate(229,253)"/>
<path d="M0 0 C1.9375 0.3125 1.9375 0.3125 4 1 C4.33 1.99 4.66 2.98 5 4 C3.625 5.5 3.625 5.5 2 7 C1.34 7 0.68 7 0 7 C0 4.69 0 2.38 0 0 Z " fill="#E8E8E9" transform="translate(129,190)"/>
<path d="M0 0 C0.99 0.33 1.98 0.66 3 1 C3 1.66 3 2.32 3 3 C4.32 3.33 5.64 3.66 7 4 C7 5.98 7 7.96 7 10 C5 7 5 7 5 5 C4.360625 4.731875 3.72125 4.46375 3.0625 4.1875 C1 3 1 3 0 0 Z " fill="#DFB29D" transform="translate(137,112)"/>
<path d="M0 0 C2 2 2 2 2.1953125 4.6015625 C2.17210937 5.59929687 2.14890625 6.59703125 2.125 7.625 C2.10695313 8.62789063 2.08890625 9.63078125 2.0703125 10.6640625 C2.03550781 11.82035156 2.03550781 11.82035156 2 13 C1.67 13 1.34 13 1 13 C0.67 11.02 0.34 9.04 0 7 C-0.33 7 -0.66 7 -1 7 C-1.04254356 5.00045254 -1.04080783 2.99958364 -1 1 C-0.67 0.67 -0.34 0.34 0 0 Z " fill="#EBEBEB" transform="translate(256,259)"/>
<path d="M0 0 C0.99 0.33 1.98 0.66 3 1 C2.525625 1.37125 2.05125 1.7425 1.5625 2.125 C-0.52205802 4.62646962 -0.64621491 6.81593418 -1 10 C-3 7 -3 7 -2.75 4.4375 C-2 2 -2 2 0 0 Z " fill="#707174" transform="translate(216,240)"/>
<path d="M0 0 C0.99 0 1.98 0 3 0 C3 2.64 3 5.28 3 8 C2.01 7.67 1.02 7.34 0 7 C0 4.69 0 2.38 0 0 Z " fill="#140F0C" transform="translate(220,198)"/>
<path d="M0 0 C0.66 0.33 1.32 0.66 2 1 C-0.31 3.64 -2.62 6.28 -5 9 C-5.33 7.68 -5.66 6.36 -6 5 C-4.02 3.35 -2.04 1.7 0 0 Z " fill="#CFA99F" transform="translate(194,178)"/>
<path d="M0 0 C2.83374881 3.20336822 3.5205537 5.78087253 4 10 C3.34 10 2.68 10 2 10 C1.01 7.03 0.02 4.06 -1 1 C-0.67 0.67 -0.34 0.34 0 0 Z " fill="#41251B" transform="translate(202,71)"/>
<path d="M0 0 C0.99 0.33 1.98 0.66 3 1 C2.74438677 3.3431213 2.40729228 5.67843403 2 8 C1.01 8.495 1.01 8.495 0 9 C0 6.03 0 3.06 0 0 Z " fill="#F8F8F8" transform="translate(225,202)"/>
<path d="M0 0 C1.98 0.66 3.96 1.32 6 2 C6 2.99 6 3.98 6 5 C4.35 5 2.7 5 1 5 C0.67 3.35 0.34 1.7 0 0 Z " fill="#DEDBD8" transform="translate(212,164)"/>
<path d="M0 0 C0.99 0 1.98 0 3 0 C3.33 1.98 3.66 3.96 4 6 C3.01 6 2.02 6 1 6 C0.67 4.02 0.34 2.04 0 0 Z " fill="#221C1A" transform="translate(216,180)"/>
<path d="M0 0 C0.33 0 0.66 0 1 0 C1 1.98 1 3.96 1 6 C-0.32 6.33 -1.64 6.66 -3 7 C-1.125 1.125 -1.125 1.125 0 0 Z " fill="#FAFAF9" transform="translate(124,178)"/>
<path d="M0 0 C0.66 0.33 1.32 0.66 2 1 C2 2.98 2 4.96 2 7 C1.34 7 0.68 7 0 7 C-0.33 7.99 -0.66 8.98 -1 10 C-0.67 6.7 -0.34 3.4 0 0 Z " fill="#19110C" transform="translate(212,83)"/>
<path d="M0 0 C1.98 1.65 3.96 3.3 6 5 C5.67 5.99 5.34 6.98 5 8 C2.20127563 5.47211993 0.54226981 3.79588866 0 0 Z " fill="#190F0D" transform="translate(202,44)"/>
<path d="M0 0 C-4.43076923 2.09230769 -4.43076923 2.09230769 -7.3125 1.625 C-7.869375 1.41875 -8.42625 1.2125 -9 1 C-5.66794923 -2.33205077 -3.95714908 -2.63809939 0 0 Z " fill="#1A1210" transform="translate(169,16)"/>
<path d="M0 0 C1.98 0 3.96 0 6 0 C4.515 1.98 4.515 1.98 3 4 C2.01 3.67 1.02 3.34 0 3 C0 2.01 0 1.02 0 0 Z " fill="#D8AFA6" transform="translate(171,198)"/>
<path d="M0 0 C2.97 0.495 2.97 0.495 6 1 C6.33 1.99 6.66 2.98 7 4 C6.01 4.33 5.02 4.66 4 5 C2.68 3.35 1.36 1.7 0 0 Z " fill="#3C3434" transform="translate(202,159)"/>
<path d="M0 0 C0.99 0 1.98 0 3 0 C3 2.31 3 4.62 3 7 C2.34 7 1.68 7 1 7 C0.67 4.69 0.34 2.38 0 0 Z " fill="#251811" transform="translate(137,92)"/>
<path d="M0 0 C2.1875 0.3125 2.1875 0.3125 4 1 C2.75 2.5625 2.75 2.5625 1 4 C-1.1875 3.6875 -1.1875 3.6875 -3 3 C-1.75 1.4375 -1.75 1.4375 0 0 Z " fill="#251B1A" transform="translate(158,17)"/>
</svg>
