<?xml version="1.0" encoding="UTF-8"?>
<svg version="1.1" xmlns="http://www.w3.org/2000/svg" width="473" height="519">
<path d="M0 0 C4.47443022 3.48944473 8.74842495 7.49684991 11.3125 12.625 C13.0043104 13.21625554 14.71698245 13.74837772 16.4375 14.25 C23.4356089 16.70977628 27.07757911 20.52422773 30.58984375 26.96875 C39.76040878 46.55002764 33.21140313 71.33203874 29.3125 91.625 C30.10068115 91.74746094 30.8888623 91.86992187 31.70092773 91.99609375 C34.3125 92.625 34.3125 92.625 36.09765625 94.6875 C37.6221424 98.37371732 37.80595997 101.69766734 37.75 105.625 C37.74170166 106.37467041 37.73340332 107.12434082 37.72485352 107.89672852 C37.38186997 119.36897897 33.80747858 128.88645995 26.3125 137.625 C23.98367511 139.74681824 22.09724693 141.23262653 19.3125 142.625 C18.65304891 145.22983179 18.08659416 147.80524549 17.5625 150.4375 C16.37398509 156.06712239 14.97801787 160.72348217 12.0625 165.75 C8.68664184 172.04137203 8.6271198 177.40809986 9.17822266 184.43847656 C9.32739558 186.86755424 9.32558434 189.27746169 9.32421875 191.7109375 C9.2458117 200.44310637 9.2458117 200.44310637 12.55419922 208.22851562 C15.12539675 210.48175592 17.96210981 212.06217983 20.9609375 213.67578125 C25.97973023 216.59463623 29.29164224 220.71186337 32.3125 225.625 C32.50585938 226.69814453 32.50585938 226.69814453 32.703125 227.79296875 C32.90421875 228.39753906 33.1053125 229.00210938 33.3125 229.625 C34.96252027 230.33186303 36.63328586 230.99060099 38.3125 231.625 C40.15489834 232.54053103 41.98908 233.4727135 43.81640625 234.41796875 C50.16411341 237.61752351 56.64791766 240.31274387 63.25 242.9375 C65.62942159 243.89716074 68.0083224 244.85811365 70.38671875 245.8203125 C71.55509277 246.29243164 72.7234668 246.76455078 73.92724609 247.25097656 C121.84501875 266.70007685 121.84501875 266.70007685 129.3125 283.625 C133.6800036 294.4364043 136.70811178 305.65394464 139.33984375 316.99609375 C139.63176605 318.25201828 139.92368835 319.50794281 140.22445679 320.80192566 C145.10919773 342.05697403 149.33760498 363.46225758 153.70007324 384.82885742 C154.68405312 389.64402267 155.67153266 394.45846702 156.65919685 399.27287769 C159.34055526 412.34373053 162.02049991 425.41485414 164.67337799 438.49151993 C165.35520813 441.83438894 166.0468188 445.17516024 166.7387085 448.51596069 C167.20213494 450.77712172 167.66537676 453.0383206 168.12841797 455.29956055 C168.45691081 456.86931625 168.45691081 456.86931625 168.79203987 458.47078419 C168.99149649 459.45126571 169.1909531 460.43174723 169.39645386 461.44194031 C169.57375471 462.30008174 169.75105556 463.15822317 169.93372917 464.04236889 C170.3125 466.625 170.3125 466.625 170.3125 472.625 C34.6825 472.625 -100.9475 472.625 -240.6875 472.625 C-240.00142041 463.70596538 -239.08126368 455.46200112 -237.29833984 446.78344727 C-237.05584503 445.5715271 -236.81335022 444.35960693 -236.56350708 443.11096191 C-235.90356535 439.82141601 -235.23677373 436.53341277 -234.56647062 433.24597287 C-233.85727483 429.76038781 -233.15636264 426.27313574 -232.45425415 422.78611755 C-231.27092292 416.91548096 -230.08151539 411.04610169 -228.88818359 405.17749023 C-227.52621352 398.47928095 -226.17272832 391.77940383 -224.82423246 385.07846981 C-223.51037112 378.55028497 -222.19117203 372.02318978 -220.86943436 365.49659538 C-220.31552362 362.76130217 -219.76314501 360.02570714 -219.21213913 357.28982735 C-216.31202765 342.90181549 -213.28116593 328.55302089 -209.95556641 314.25756836 C-209.52450624 312.39948343 -209.52450624 312.39948343 -209.08473778 310.50386143 C-204.52416301 291.13724286 -200.03606387 276.60253565 -182.6875 265.625 C-179.60803839 263.82543962 -176.47593038 262.14684464 -173.3125 260.5 C-172.42111328 260.03480957 -171.52972656 259.56961914 -170.61132812 259.09033203 C-158.88159426 253.06690093 -146.78395651 247.85909535 -134.6875 242.625 C-132.58190422 241.70602016 -130.47643077 240.78675999 -128.37109375 239.8671875 C-126.45611593 239.03556716 -124.54077213 238.20478887 -122.625 237.375 C-121.74457031 236.9919873 -120.86414063 236.60897461 -119.95703125 236.21435547 C-118.75433594 235.69832764 -118.75433594 235.69832764 -117.52734375 235.171875 C-116.82988037 234.87120117 -116.13241699 234.57052734 -115.41381836 234.26074219 C-113.6875 233.625 -113.6875 233.625 -111.6875 233.625 C-111.48125 232.965 -111.275 232.305 -111.0625 231.625 C-106.94720993 222.6461853 -99.35328193 214.99237812 -90.6875 210.3125 C-87.40955092 208.91084434 -87.40955092 208.91084434 -86.6875 205.625 C-86.13643627 200.30485389 -85.91339946 194.9670449 -85.6875 189.625 C-85.6467334 188.76825684 -85.6059668 187.91151367 -85.56396484 187.02880859 C-85.12423137 176.78395432 -84.97271859 168.11082358 -89.3984375 158.62890625 C-90.83188163 155.28854705 -91.46881016 152.1320146 -92.125 148.5625 C-93.0829229 143.71946536 -93.0829229 143.71946536 -96.5 140.25 C-97.551875 139.71375 -98.60375 139.1775 -99.6875 138.625 C-108.27611956 131.1208021 -112.10125266 118.6963696 -112.90625 107.61328125 C-113.21125063 97.28138477 -113.21125063 97.28138477 -109.6875 92.625 C-107.578125 91.98046875 -107.578125 91.98046875 -105.6875 91.625 C-105.99494141 89.86736328 -105.99494141 89.86736328 -106.30859375 88.07421875 C-114.39078617 41.26339828 -114.39078617 41.26339828 -103.9765625 23.296875 C-100.50069751 18.78878343 -96.33105969 15.08353643 -91 13 C-87.216214 11.42937185 -85.4984553 9.57307507 -82.6875 6.625 C-61.69669032 -11.66354452 -23.56545585 -15.44304281 0 0 Z " fill="#EEF3F8" transform="translate(278.6875,46.375)"/>
<path d="M0 0 C4.47443022 3.48944473 8.74842495 7.49684991 11.3125 12.625 C13.0043104 13.21625554 14.71698245 13.74837772 16.4375 14.25 C23.4356089 16.70977628 27.07757911 20.52422773 30.58984375 26.96875 C39.76040878 46.55002764 33.21140313 71.33203874 29.3125 91.625 C30.10068115 91.74746094 30.8888623 91.86992187 31.70092773 91.99609375 C34.3125 92.625 34.3125 92.625 36.09765625 94.6875 C37.6221424 98.37371732 37.80595997 101.69766734 37.75 105.625 C37.74170166 106.37467041 37.73340332 107.12434082 37.72485352 107.89672852 C37.38186997 119.36897897 33.80747858 128.88645995 26.3125 137.625 C23.98367511 139.74681824 22.09724693 141.23262653 19.3125 142.625 C18.65304891 145.22983179 18.08659416 147.80524549 17.5625 150.4375 C16.37398509 156.06712239 14.97801787 160.72348217 12.0625 165.75 C8.68664184 172.04137203 8.6271198 177.40809986 9.17822266 184.43847656 C9.32739558 186.86755424 9.32558434 189.27746169 9.32421875 191.7109375 C9.2458117 200.44310637 9.2458117 200.44310637 12.55419922 208.22851562 C15.12936198 210.4852308 17.98747048 212.08526639 20.98046875 213.72265625 C33.37650566 220.79987779 36.88973382 236.0302444 40.4074707 248.90478516 C40.62363037 249.71995605 40.83979004 250.53512695 41.0625 251.375 C41.36063599 252.46047119 41.36063599 252.46047119 41.66479492 253.56787109 C45.77920747 270.12075414 45.59021386 287.44105013 45.4375 304.375 C45.42743039 306.35546412 45.41831171 308.33593332 45.41015625 310.31640625 C45.3885033 315.08606691 45.35420288 319.85547427 45.3125 324.625 C45.90933594 324.75261719 46.50617188 324.88023437 47.12109375 325.01171875 C51.89887136 326.34881516 55.79196576 329.3798897 58.3125 333.625 C60.32712054 338.753125 59.76759128 344.21182181 58.125 349.3125 C54.60748646 355.74105922 50.94777576 358.12420895 44.10546875 360.14453125 C43.21794922 360.38236328 43.21794922 360.38236328 42.3125 360.625 C42.6425 360.955 42.9725 361.285 43.3125 361.625 C43.38508946 363.81139453 43.39623783 366.00000389 43.375 368.1875 C43.36597656 369.38503906 43.35695313 370.58257812 43.34765625 371.81640625 C43.33025391 373.20666016 43.33025391 373.20666016 43.3125 374.625 C42.6525 374.625 41.9925 374.625 41.3125 374.625 C41.3125 381.885 41.3125 389.145 41.3125 396.625 C39.9925 396.625 38.6725 396.625 37.3125 396.625 C35.59506789 362.70114817 35.59506789 362.70114817 38.3125 358.625 C37.260625 358.5321875 37.260625 358.5321875 36.1875 358.4375 C32.29208055 357.33662059 30.1895929 355.4381575 27.3125 352.625 C24.50303414 346.94911965 24.33384253 340.58249077 25.84765625 334.4609375 C27.2712386 330.80474239 28.89769583 328.53327292 32.3125 326.625 C33.97453541 325.94686983 35.64074598 325.27880479 37.3125 324.625 C40.51234989 270.13659988 40.51234989 270.13659988 19.14453125 222.19921875 C17.29467768 220.40881828 17.29467768 220.40881828 14.3125 219.625 C14.209375 220.718125 14.10625 221.81125 14 222.9375 C13.05978775 230.41947069 10.8086618 237.54668165 8.05859375 244.54296875 C7.18575078 246.97870333 6.52995728 249.43450111 5.875 251.9375 C4.9005357 255.62834666 3.78659536 259.17950265 2.4375 262.75 C0.7428869 267.27749462 -0.66936979 271.85514476 -2 276.5 C-4.15508076 284.00971888 -6.58950656 291.40416423 -9.09423828 298.80371094 C-11.21912682 305.11919068 -13.14782191 311.47060974 -14.984375 317.875 C-16.34607199 322.58232337 -17.94097055 327.14416886 -19.66796875 331.7265625 C-21.1647884 335.98188887 -22.3739528 340.31651789 -23.61669922 344.65087891 C-25.62432666 351.57347013 -27.91908607 358.38926255 -30.23266602 365.21459961 C-32.04934444 370.60646908 -33.65307996 376.00277463 -35.06640625 381.515625 C-35.93170495 384.4543753 -37.17827495 386.9658892 -38.6875 389.625 C-40.6875 388.625 -40.6875 388.625 -41.7578125 385.5703125 C-42.10585937 384.30960937 -42.45390625 383.04890625 -42.8125 381.75 C-43.16570312 380.49445313 -43.51890625 379.23890625 -43.8828125 377.9453125 C-44.6875 374.625 -44.6875 374.625 -44.6875 371.625 C-45.3475 371.625 -46.0075 371.625 -46.6875 371.625 C-46.94966309 370.66609863 -47.21182617 369.70719727 -47.48193359 368.71923828 C-48.45548571 365.16527361 -49.43782521 361.61378821 -50.42285156 358.06298828 C-50.8481101 356.52524044 -51.27097602 354.98682885 -51.69140625 353.44775391 C-52.29581361 351.23682037 -52.90875883 349.02840927 -53.5234375 346.8203125 C-53.70997894 346.13067413 -53.89652039 345.44103577 -54.0887146 344.73049927 C-55.18800381 340.79756338 -55.18800381 340.79756338 -57.6875 337.625 C-58.43740693 335.14386263 -59.09261278 332.70566338 -59.6875 330.1875 C-59.86120117 329.47335937 -60.03490234 328.75921875 -60.21386719 328.0234375 C-61.59211075 322.26222426 -62.74568714 316.47415353 -63.6875 310.625 C-64.3475 310.625 -65.0075 310.625 -65.6875 310.625 C-67.74684274 305.90491355 -68.86905817 301.03305426 -70.01171875 296.03515625 C-70.96529828 292.04252651 -72.15724117 288.24418227 -73.59765625 284.3984375 C-76.25758197 277.26039333 -78.15970344 269.94125014 -80.13085938 262.58984375 C-81.64599718 257.03772802 -83.33654769 251.87205297 -85.6875 246.625 C-86.3125 244.2890625 -86.3125 244.2890625 -86.6875 242.25 C-87.50241066 238.21688282 -88.70196518 234.43652687 -90.1015625 230.5703125 C-90.6875 228.625 -90.6875 228.625 -90.6875 225.625 C-92.6675 225.295 -94.6475 224.965 -96.6875 224.625 C-111.25809964 244.48833882 -113.35390152 263.35431478 -112.6875 287.625 C-111.76952637 287.7017395 -111.76952637 287.7017395 -110.83300781 287.7800293 C-110.02702148 287.85648682 -109.22103516 287.93294434 -108.390625 288.01171875 C-107.19421387 288.11939575 -107.19421387 288.11939575 -105.97363281 288.22924805 C-102.53800204 288.82398934 -100.38384566 290.48017959 -97.6875 292.625 C-96.841875 293.181875 -95.99625 293.73875 -95.125 294.3125 C-85.94256274 303.02404304 -83.95620772 316.39582595 -83.5625 328.453125 C-83.42751755 336.06015594 -83.42751755 336.06015594 -83.6875 339.625 C-84.3475 340.285 -85.0075 340.945 -85.6875 341.625 C-88.3125 341.25 -88.3125 341.25 -90.6875 340.625 C-90.73237549 339.95557373 -90.77725098 339.28614746 -90.82348633 338.59643555 C-91.03757037 335.50088154 -91.26870052 332.40681346 -91.5 329.3125 C-91.57025391 328.25998047 -91.64050781 327.20746094 -91.71289062 326.12304688 C-92.45280401 316.50417284 -93.23464907 306.41537529 -100.6875 299.625 C-103.2780923 298.08894248 -105.9137959 296.79504888 -108.6875 295.625 C-108.6875 294.965 -108.6875 294.305 -108.6875 293.625 C-112.3175 293.625 -115.9475 293.625 -119.6875 293.625 C-119.6875 294.285 -119.6875 294.945 -119.6875 295.625 C-121.07341235 296.52821211 -122.4979334 297.37251955 -123.9375 298.1875 C-129.01390599 301.45204411 -131.0775135 304.8750482 -132.6875 310.625 C-134.70881356 320.39468222 -134.03363939 330.71869721 -132.7109375 340.55078125 C-132.70320312 341.23527344 -132.69546875 341.91976563 -132.6875 342.625 C-134.6875 344.625 -134.6875 344.625 -137.3125 344.75 C-138.09625 344.70875 -138.88 344.6675 -139.6875 344.625 C-142.14820591 328.74026452 -144.58092388 311.92796724 -135.32421875 297.78515625 C-131.3085692 292.48526556 -126.71826159 290.12417039 -120.6875 287.625 C-120.71070313 286.45066406 -120.73390625 285.27632813 -120.7578125 284.06640625 C-121.07893296 260.63196671 -119.1713633 236.59402261 -102.1015625 218.8203125 C-97.74071866 214.85462604 -92.97353226 211.26801613 -87.6875 208.625 C-85.68060607 202.60431822 -85.95447951 195.93850125 -85.6875 189.625 C-85.6467334 188.76825684 -85.6059668 187.91151367 -85.56396484 187.02880859 C-85.12423137 176.78395432 -84.97271859 168.11082358 -89.3984375 158.62890625 C-90.83188163 155.28854705 -91.46881016 152.1320146 -92.125 148.5625 C-93.0829229 143.71946536 -93.0829229 143.71946536 -96.5 140.25 C-97.551875 139.71375 -98.60375 139.1775 -99.6875 138.625 C-108.27611956 131.1208021 -112.10125266 118.6963696 -112.90625 107.61328125 C-113.21125063 97.28138477 -113.21125063 97.28138477 -109.6875 92.625 C-107.578125 91.98046875 -107.578125 91.98046875 -105.6875 91.625 C-105.89246094 90.45324219 -106.09742188 89.28148437 -106.30859375 88.07421875 C-114.39078617 41.26339828 -114.39078617 41.26339828 -103.9765625 23.296875 C-100.50069751 18.78878343 -96.33105969 15.08353643 -91 13 C-87.216214 11.42937185 -85.4984553 9.57307507 -82.6875 6.625 C-61.69669032 -11.66354452 -23.56545585 -15.44304281 0 0 Z " fill="#EABBA2" transform="translate(278.6875,46.375)"/>
<path d="M0 0 C1.96423572 2.50343768 3.30652658 4.64711168 4.6875 7.5625 C10.78313187 19.98553682 19.91397326 30.10329322 33 35 C52.69474488 41.50117792 76.38795327 41.9182653 96 35 C95.34 34.01 94.68 33.02 94 32 C93.875 29.3125 93.875 29.3125 94 27 C101.92116154 27.83925224 106.72524526 32.44859604 111.98828125 38.15625 C129.43939037 60.75369507 129.36849568 95.7495455 129.125 122.75 C129.11493039 124.73046412 129.10581171 126.71093332 129.09765625 128.69140625 C129.0760033 133.46106691 129.04170288 138.23047427 129 143 C129.59683594 143.12761719 130.19367188 143.25523437 130.80859375 143.38671875 C135.58637136 144.72381516 139.47946576 147.7548897 142 152 C144.01462054 157.128125 143.45509128 162.58682181 141.8125 167.6875 C138.29498646 174.11605922 134.63527576 176.49920895 127.79296875 178.51953125 C127.20128906 178.67808594 126.60960937 178.83664062 126 179 C126.33 179.33 126.66 179.66 127 180 C127.07258946 182.18639453 127.08373783 184.37500389 127.0625 186.5625 C127.05347656 187.76003906 127.04445313 188.95757812 127.03515625 190.19140625 C127.02355469 191.11824219 127.01195312 192.04507813 127 193 C126.34 193 125.68 193 125 193 C125 200.26 125 207.52 125 215 C123.68 215 122.36 215 121 215 C119.28256789 181.07614817 119.28256789 181.07614817 122 177 C121.29875 176.938125 120.5975 176.87625 119.875 176.8125 C115.97958055 175.71162059 113.8770929 173.8131575 111 171 C108.19053414 165.32411965 108.02134253 158.95749077 109.53515625 152.8359375 C110.9587386 149.17974239 112.58519583 146.90827292 116 145 C117.66203541 144.32186983 119.32824598 143.65380479 121 143 C124.19984989 88.51159988 124.19984989 88.51159988 102.83203125 40.57421875 C100.98217768 38.78381828 100.98217768 38.78381828 98 38 C97.8453125 39.6396875 97.8453125 39.6396875 97.6875 41.3125 C96.74728775 48.79447069 94.4961618 55.92168165 91.74609375 62.91796875 C90.87325078 65.35370333 90.21745728 67.80950111 89.5625 70.3125 C88.5880357 74.00334666 87.47409536 77.55450265 86.125 81.125 C84.4303869 85.65249462 83.01813021 90.23014476 81.6875 94.875 C79.53241924 102.38471888 77.09799344 109.77916423 74.59326172 117.17871094 C72.46837318 123.49419068 70.53967809 129.84560974 68.703125 136.25 C67.34142801 140.95732337 65.74652945 145.51916886 64.01953125 150.1015625 C62.5227116 154.35688887 61.3135472 158.69151789 60.07080078 163.02587891 C58.06317334 169.94847013 55.76841393 176.76426255 53.45483398 183.58959961 C51.63815556 188.98146908 50.03442004 194.37777463 48.62109375 199.890625 C47.75579505 202.8293753 46.50922505 205.3408892 45 208 C43 207 43 207 41.9296875 203.9453125 C41.58164063 202.68460938 41.23359375 201.42390625 40.875 200.125 C40.52179688 198.86945313 40.16859375 197.61390625 39.8046875 196.3203125 C39 193 39 193 39 190 C38.34 190 37.68 190 37 190 C36.73783691 189.04109863 36.47567383 188.08219727 36.20556641 187.09423828 C35.23201429 183.54027361 34.24967479 179.98878821 33.26464844 176.43798828 C32.8393899 174.90024044 32.41652398 173.36182885 31.99609375 171.82275391 C31.39168639 169.61182037 30.77874117 167.40340927 30.1640625 165.1953125 C29.97752106 164.50567413 29.79097961 163.81603577 29.5987854 163.10549927 C28.49949619 159.17256338 28.49949619 159.17256338 26 156 C25.25009307 153.51886263 24.59488722 151.08066338 24 148.5625 C23.82629883 147.84835937 23.65259766 147.13421875 23.47363281 146.3984375 C22.09538925 140.63722426 20.94181286 134.84915353 20 129 C19.34 129 18.68 129 18 129 C15.94065726 124.27991355 14.81844183 119.40805426 13.67578125 114.41015625 C12.72220172 110.41752651 11.53025883 106.61918227 10.08984375 102.7734375 C7.42991803 95.63539333 5.52779656 88.31625014 3.55664062 80.96484375 C2.04150282 75.41272802 0.35095231 70.24705297 -2 65 C-2.625 62.6640625 -2.625 62.6640625 -3 60.625 C-3.81491066 56.59188282 -5.01446518 52.81152687 -6.4140625 48.9453125 C-7 47 -7 47 -7 44 C-9.97 43.505 -9.97 43.505 -13 43 C-27.57059964 62.86333882 -29.66640152 81.72931478 -29 106 C-28.08202637 106.0767395 -28.08202637 106.0767395 -27.14550781 106.1550293 C-26.33952148 106.23148682 -25.53353516 106.30794434 -24.703125 106.38671875 C-23.90551758 106.45850342 -23.10791016 106.53028809 -22.28613281 106.60424805 C-18.85050204 107.19898934 -16.69634566 108.85517959 -14 111 C-13.154375 111.556875 -12.30875 112.11375 -11.4375 112.6875 C-2.25506274 121.39904304 -0.26870772 134.77082595 0.125 146.828125 C0.25998245 154.43515594 0.25998245 154.43515594 0 158 C-0.66 158.66 -1.32 159.32 -2 160 C-4.625 159.625 -4.625 159.625 -7 159 C-7.04487549 158.33057373 -7.08975098 157.66114746 -7.13598633 156.97143555 C-7.35007037 153.87588154 -7.58120052 150.78181346 -7.8125 147.6875 C-7.88275391 146.63498047 -7.95300781 145.58246094 -8.02539062 144.49804688 C-8.76530401 134.87917284 -9.54714907 124.79037529 -17 118 C-19.5905923 116.46394248 -22.2262959 115.17004888 -25 114 C-25 113.34 -25 112.68 -25 112 C-28.63 112 -32.26 112 -36 112 C-36 112.66 -36 113.32 -36 114 C-37.38591235 114.90321211 -38.8104334 115.74751955 -40.25 116.5625 C-45.32640599 119.82704411 -47.3900135 123.2500482 -49 129 C-51.02131356 138.76968222 -50.34613939 149.09369721 -49.0234375 158.92578125 C-49.01570312 159.61027344 -49.00796875 160.29476562 -49 161 C-51 163 -51 163 -53.625 163.125 C-54.40875 163.08375 -55.1925 163.0425 -56 163 C-58.46070591 147.11526452 -60.89342388 130.30296724 -51.63671875 116.16015625 C-47.6210692 110.86026556 -43.03076159 108.49917039 -37 106 C-37.02320313 104.82566406 -37.04640625 103.65132813 -37.0703125 102.44140625 C-37.39102069 79.03705293 -35.50861009 54.91564994 -18.40234375 37.1953125 C-13.1975829 32.43909202 -8.13421727 28.02459503 -1 27 C-1.01160156 26.22398437 -1.02320313 25.44796875 -1.03515625 24.6484375 C-1.10418029 16.38527392 -0.69121931 8.23291573 0 0 Z " fill="#E8B69B" transform="translate(195,228)"/>
<path d="M0 0 C4.47443022 3.48944473 8.74842495 7.49684991 11.3125 12.625 C13.0043104 13.21625554 14.71698245 13.74837772 16.4375 14.25 C23.4356089 16.70977628 27.07757911 20.52422773 30.58984375 26.96875 C39.48256632 45.95676973 34.72598522 73.63237342 28.00610352 92.71777344 C27.66276978 93.66185059 27.66276978 93.66185059 27.3125 94.625 C26.86003906 95.93017578 26.86003906 95.93017578 26.3984375 97.26171875 C26.16382813 97.93847656 25.92921875 98.61523438 25.6875 99.3125 C24.54370771 102.72591154 23.77163976 106.04370989 23.3125 109.625 C22.6525 109.625 21.9925 109.625 21.3125 109.625 C21.3031543 109.0172876 21.29380859 108.4095752 21.28417969 107.78344727 C21.07487043 96.89013155 20.71849403 86.47481127 17.82519531 75.93457031 C16.10893218 69.48849704 15.53972464 63.04848775 15.17211914 56.39770508 C14.77977869 50.90549523 13.64737275 48.00202048 10.3125 43.625 C10.3125 42.965 10.3125 42.305 10.3125 41.625 C8.6625 40.965 7.0125 40.305 5.3125 39.625 C5.3125 38.965 5.3125 38.305 5.3125 37.625 C3.70754433 37.73942461 2.10351881 37.86694694 0.5 38 C-0.83998047 38.10441406 -0.83998047 38.10441406 -2.20703125 38.2109375 C-4.93148499 38.49145036 -4.93148499 38.49145036 -7.6875 40.625 C-9.62939453 41.20336914 -9.62939453 41.20336914 -11.8203125 41.66015625 C-13.03074219 41.91442383 -13.03074219 41.91442383 -14.265625 42.17382812 C-15.10609375 42.34333984 -15.9465625 42.51285156 -16.8125 42.6875 C-18.03839844 42.94756836 -18.03839844 42.94756836 -19.2890625 43.21289062 C-27.4216942 44.89217613 -35.4448263 45.82044944 -43.75 45.8125 C-44.47751465 45.81314453 -45.2050293 45.81378906 -45.95458984 45.81445312 C-50.97505774 45.76673211 -55.84469177 45.3274443 -60.8125 44.625 C-66.1992946 43.89141068 -71.5064584 43.33122764 -76.9375 43.1875 C-78.13890625 43.14753906 -79.3403125 43.10757813 -80.578125 43.06640625 C-83.83396267 43.3587956 -83.83396267 43.3587956 -86.03515625 45.83984375 C-87.66899483 48.59380806 -88.39164499 50.48558528 -88.875 53.625 C-89.02582031 54.59179688 -89.17664063 55.55859375 -89.33203125 56.5546875 C-89.68713635 59.62185905 -89.88868366 62.66765684 -90.0625 65.75 C-90.39385614 70.95965483 -91.36754434 75.66805694 -92.6875 80.6875 C-95.17818518 90.25283805 -95.48391367 99.78160095 -95.6875 109.625 C-96.3475 109.625 -97.0075 109.625 -97.6875 109.625 C-97.94144531 108.56539063 -98.19539062 107.50578125 -98.45703125 106.4140625 C-98.80407479 105.02588835 -99.15176477 103.63787569 -99.5 102.25 C-99.66564453 101.55132812 -99.83128906 100.85265625 -100.00195312 100.1328125 C-101.11921207 95.58823061 -101.11921207 95.58823061 -104.6875 92.625 C-112.37005241 73.50398068 -112.09232673 46.5444576 -105.87890625 27.09375 C-103.35156673 21.25278757 -98.50442234 16.48633867 -92.7890625 13.69921875 C-92.19867188 13.46847656 -91.60828125 13.23773438 -91 13 C-87.216214 11.42937185 -85.4984553 9.57307507 -82.6875 6.625 C-61.69669032 -11.66354452 -23.56545585 -15.44304281 0 0 Z " fill="#37251E" transform="translate(278.6875,46.375)"/>
<path d="M0 0 C0.67095703 0.58007812 0.67095703 0.58007812 1.35546875 1.171875 C2.6127729 2.25492591 3.87337222 3.33415971 5.13671875 4.41015625 C6.6001332 5.65881386 8.05224748 6.92071655 9.5 8.1875 C12.50622297 10.36701165 15.56151369 11.61254061 19 13 C19.99 13.515625 20.98 14.03125 22 14.5625 C39.79247642 23.08806162 62.56287314 18.99329476 81 15 C81 14.34 81 13.68 81 13 C81.65226562 12.68546875 82.30453125 12.3709375 82.9765625 12.046875 C83.85054688 11.61890625 84.72453125 11.1909375 85.625 10.75 C86.48351562 10.33234375 87.34203125 9.9146875 88.2265625 9.484375 C91.29473246 7.84225586 94.13212895 5.96798189 97 4 C93.35481873 21.79934258 93.35481873 21.79934258 90.12109375 29.16015625 C88.55108585 33.13714491 87.38735145 37.21095502 86.1875 41.3125 C84.08283116 48.49127285 81.83817254 55.60219079 79.4375 62.6875 C77.01845921 69.83178659 74.78202805 77.00077864 72.70288086 84.25073242 C71.34132388 88.9578294 69.74643804 93.51941142 68.01953125 98.1015625 C66.5227116 102.35688887 65.3135472 106.69151789 64.07080078 111.02587891 C62.06317334 117.94847013 59.76841393 124.76426255 57.45483398 131.58959961 C55.63815556 136.98146908 54.03442004 142.37777463 52.62109375 147.890625 C51.75579505 150.8293753 50.50922505 153.3408892 49 156 C47 155 47 155 45.9296875 151.9453125 C45.58164063 150.68460938 45.23359375 149.42390625 44.875 148.125 C44.52179688 146.86945313 44.16859375 145.61390625 43.8046875 144.3203125 C43 141 43 141 43 138 C42.34 138 41.68 138 41 138 C40.73783691 137.04109863 40.47567383 136.08219727 40.20556641 135.09423828 C39.23201429 131.54027361 38.24967479 127.98878821 37.26464844 124.43798828 C36.8393899 122.90024044 36.41652398 121.36182885 35.99609375 119.82275391 C35.39168639 117.61182037 34.77874117 115.40340927 34.1640625 113.1953125 C33.97752106 112.50567413 33.79097961 111.81603577 33.5987854 111.10549927 C32.49949619 107.17256338 32.49949619 107.17256338 30 104 C29.25009307 101.51886263 28.59488722 99.08066338 28 96.5625 C27.82629883 95.84835937 27.65259766 95.13421875 27.47363281 94.3984375 C26.09538925 88.63722426 24.94181286 82.84915353 24 77 C23.34 77 22.68 77 22 77 C19.94065726 72.27991355 18.81844183 67.40805426 17.67578125 62.41015625 C16.72220172 58.41752651 15.53025883 54.61918227 14.08984375 50.7734375 C11.42991803 43.63539333 9.52779656 36.31625014 7.55664062 28.96484375 C6.04148503 23.41266286 4.3553655 18.24542604 2 13 C1.26953125 10.48828125 1.26953125 10.48828125 0.8125 8.3125 C0.65394531 7.58675781 0.49539062 6.86101562 0.33203125 6.11328125 C0 4 0 4 0 0 Z " fill="#699CBD" transform="translate(191,280)"/>
<path d="M0 0 C3.20894825 3.1088771 5.53736576 6.26873601 8 10 C11.34305685 14.36454645 14.96848447 17.85732455 19.16796875 21.40234375 C21 23 21 23 22.875 25.1875 C29.63798516 30.95592852 38.03201666 31.63567369 46.5625 31.5 C48.02719727 31.52320313 48.02719727 31.52320313 49.52148438 31.546875 C55.49665186 31.51490086 59.91723445 30.61004077 65.23803711 27.85742188 C67 27 67 27 69 27 C69 26.34 69 25.68 69 25 C71.66238608 23.06371921 74.236821 21.33919066 77.25 20 C79.54374885 18.68928637 79.91052321 17.38323047 81 15 C83.1653496 12.13615053 85.3965028 9.47332234 88 7 C90.83221708 9.83221708 90.37102472 11.98985006 90.5625 15.9375 C90.79844579 21.05885565 90.79844579 21.05885565 92 26 C92.22325814 28.05893621 92.40705759 30.12233653 92.5625 32.1875 C92.64628906 33.27417969 92.73007812 34.36085937 92.81640625 35.48046875 C92.87699219 36.31191406 92.93757813 37.14335937 93 38 C94.98 38.495 94.98 38.495 97 39 C96.01 39 95.02 39 94 39 C95.21044132 43.60742865 95.21044132 43.60742865 97 48 C75.38818803 55.00585511 47.61766563 55.63263459 26.9375 45.25 C14.74859381 37.77637404 4.05890814 25.94892374 0 12 C-0.36205311 7.95628999 -0.3176265 4.04444407 0 0 Z " fill="#DE977D" transform="translate(195,216)"/>
<path d="M0 0 C7.92116154 0.83925224 12.72524526 5.44859604 17.98828125 11.15625 C35.43939037 33.75369507 35.36849568 68.7495455 35.125 95.75 C35.11493039 97.73046412 35.10581171 99.71093332 35.09765625 101.69140625 C35.0760033 106.46106691 35.04170288 111.23047427 35 116 C35.59683594 116.12761719 36.19367188 116.25523437 36.80859375 116.38671875 C41.58637136 117.72381516 45.47946576 120.7548897 48 125 C50.01462054 130.128125 49.45509128 135.58682181 47.8125 140.6875 C44.29498646 147.11605922 40.63527576 149.49920895 33.79296875 151.51953125 C33.20128906 151.67808594 32.60960937 151.83664062 32 152 C32.33 152.33 32.66 152.66 33 153 C33.07258946 155.18639453 33.08373783 157.37500389 33.0625 159.5625 C33.05347656 160.76003906 33.04445313 161.95757812 33.03515625 163.19140625 C33.02355469 164.11824219 33.01195312 165.04507813 33 166 C32.34 166 31.68 166 31 166 C31 173.26 31 180.52 31 188 C29.68 188 28.36 188 27 188 C25.28256789 154.07614817 25.28256789 154.07614817 28 150 C27.29875 149.938125 26.5975 149.87625 25.875 149.8125 C21.97958055 148.71162059 19.8770929 146.8131575 17 144 C14.19053414 138.32411965 14.02134253 131.95749077 15.53515625 125.8359375 C16.9587386 122.17974239 18.58519583 119.90827292 22 118 C23.66203541 117.32186983 25.32824598 116.65380479 27 116 C30.19941579 61.10296108 30.19941579 61.10296108 8.24609375 13.0859375 C5.99333171 10.91981849 5.99333171 10.91981849 3.2734375 8.9609375 C1 7 1 7 0.1875 3.25 C0.125625 2.1775 0.06375 1.105 0 0 Z " fill="#171C22" transform="translate(289,255)"/>
<path d="M0 0 C-0.28997452 4.12512143 -0.66027873 7.77527627 -3.8203125 10.6640625 C-4.56023437 11.16679687 -5.30015625 11.66953125 -6.0625 12.1875 C-16.81318333 19.67829871 -21.96895556 32.72528841 -24.67578125 45.0859375 C-26.5765047 55.97307451 -26.19444414 66.9884787 -26 78 C-25.08202637 78.0767395 -25.08202637 78.0767395 -24.14550781 78.1550293 C-23.33952148 78.23148682 -22.53353516 78.30794434 -21.703125 78.38671875 C-20.90551758 78.45850342 -20.10791016 78.53028809 -19.28613281 78.60424805 C-15.85050204 79.19898934 -13.69634566 80.85517959 -11 83 C-10.154375 83.556875 -9.30875 84.11375 -8.4375 84.6875 C0.74493726 93.39904304 2.73129228 106.77082595 3.125 118.828125 C3.25998245 126.43515594 3.25998245 126.43515594 3 130 C2.34 130.66 1.68 131.32 1 132 C-1.625 131.625 -1.625 131.625 -4 131 C-4.04487549 130.33057373 -4.08975098 129.66114746 -4.13598633 128.97143555 C-4.35007037 125.87588154 -4.58120052 122.78181346 -4.8125 119.6875 C-4.88275391 118.63498047 -4.95300781 117.58246094 -5.02539062 116.49804688 C-5.76530401 106.87917284 -6.54714907 96.79037529 -14 90 C-16.5905923 88.46394248 -19.2262959 87.17004888 -22 86 C-22 85.34 -22 84.68 -22 84 C-25.63 84 -29.26 84 -33 84 C-33 84.66 -33 85.32 -33 86 C-34.38591235 86.90321211 -35.8104334 87.74751955 -37.25 88.5625 C-42.32640599 91.82704411 -44.3900135 95.2500482 -46 101 C-48.02131356 110.76968222 -47.34613939 121.09369721 -46.0234375 130.92578125 C-46.01570312 131.61027344 -46.00796875 132.29476562 -46 133 C-48 135 -48 135 -50.625 135.125 C-51.40875 135.08375 -52.1925 135.0425 -53 135 C-55.46070591 119.11526452 -57.89342388 102.30296724 -48.63671875 88.16015625 C-44.6210692 82.86026556 -40.03076159 80.49917039 -34 78 C-34.02320313 76.82566406 -34.04640625 75.65132813 -34.0703125 74.44140625 C-34.39111557 51.03012875 -32.50171491 26.93574188 -15.41015625 9.19921875 C-5.3285968 0 -5.3285968 0 0 0 Z " fill="#1C2127" transform="translate(192,256)"/>
<path d="M0 0 C3.63 0 7.26 0 11 0 C11 0.66 11 1.32 11 2 C12.0209375 2.061875 12.0209375 2.061875 13.0625 2.125 C18.13159687 3.63494375 21.59595092 7.20862704 24.8125 11.3125 C28.61120627 19.90957209 28.58598128 29.49146843 29.03515625 38.73242188 C29.13763672 40.28606445 29.13763672 40.28606445 29.2421875 41.87109375 C29.2922998 42.80880615 29.34241211 43.74651855 29.39404297 44.71264648 C29.77256568 47.17874554 29.77256568 47.17874554 32.04736328 48.32055664 C32.6917334 48.54477295 33.33610352 48.76898926 34 49 C33.11331232 67.19238525 31.99768685 88.70465009 23 105 C22.34 105 21.68 105 21 105 C20.34 106.98 19.68 108.96 19 111 C18.34 111 17.68 111 17 111 C17 111.66 17 112.32 17 113 C18.65 113 20.3 113 22 113 C22.20625 112.4225 22.4125 111.845 22.625 111.25 C24.56842873 108.0698439 26.73776636 106.75658734 30 105 C33.25 104.5625 33.25 104.5625 36 105 C38 108 38 108 38.125 110.5 C37 113 37 113 33.51953125 114.58203125 C28.91410944 116.18315897 24.40263447 116.7747643 19.5625 117.1875 C18.69794189 117.26645508 17.83338379 117.34541016 16.94262695 117.42675781 C-5.56416844 119.32891449 -5.56416844 119.32891449 -15 116 C-15.66 115.34 -16.32 114.68 -17 114 C-16.8125 111.5 -16.8125 111.5 -16 109 C-13 107 -13 107 -10.625 107.1875 C-7.73969482 108.08057065 -5.52717837 109.36074916 -3 111 C-2.34 111.33 -1.68 111.66 -1 112 C-1 112.66 -1 113.32 -1 114 C1.475 113.505 1.475 113.505 4 113 C3.60167969 112.48050781 3.20335937 111.96101563 2.79296875 111.42578125 C-5 101.16788321 -5 101.16788321 -5 97 C-5.66 97 -6.32 97 -7 97 C-7.66 94.69 -8.32 92.38 -9 90 C-8.34 90.33 -7.68 90.66 -7 91 C-7 91.66 -7 92.32 -7 93 C-6.34 93 -5.68 93 -5 93 C-5.495 90.525 -5.495 90.525 -6 88 C-3.07873974 89.46063013 -2.97996821 91.40463271 -1.875 94.4375 C0.69540001 100.83290001 4.10934654 106.11957804 9 111 C10.485 111.495 10.485 111.495 12 112 C12 111.34 12 110.68 12 110 C12.721875 109.401875 13.44375 108.80375 14.1875 108.1875 C17.95001233 104.63876678 19.19537619 99.82410292 20.88671875 95.05859375 C22 92 22 92 23.046875 90.04296875 C26.71063522 82.18990894 27.57168455 71.60410156 28 63 C28.06445312 61.77925781 28.12890625 60.55851562 28.1953125 59.30078125 C28.52017008 49.40519248 28.52017008 49.40519248 24 41 C23.195625 39.96875 22.39125 38.9375 21.5625 37.875 C19.9867245 36.10705676 18.3713504 34.3724159 16.6953125 32.69921875 C13.83509724 29.83485825 11.06000446 26.90929054 8.3125 23.9375 C7.58450195 23.1630957 7.58450195 23.1630957 6.84179688 22.37304688 C1.61383796 16.7124293 1.61383796 16.7124293 1 14 C2.3359375 10.984375 2.3359375 10.984375 4.375 7.75 C5.04273438 6.67234375 5.71046875 5.5946875 6.3984375 4.484375 C7.19121094 3.25460937 7.19121094 3.25460937 8 2 C5.36 1.67 2.72 1.34 0 1 C0 0.67 0 0.34 0 0 Z " fill="#B9BCC1" transform="translate(159,340)"/>
<path d="M0 0 C1 2 1 2 0.109375 4.765625 C-0.56351562 6.49039062 -0.56351562 6.49039062 -1.25 8.25 C-3.63480674 14.54360752 -5.15813248 20.71207769 -6.421875 27.33203125 C-7 30 -7 30 -8 31 C-8.28391411 32.45951921 -8.51384388 33.92965334 -8.71875 35.40234375 C-8.91017578 36.73749023 -8.91017578 36.73749023 -9.10546875 38.09960938 C-9.23566406 39.03611328 -9.36585938 39.97261719 -9.5 40.9375 C-9.75726598 42.7803905 -10.01753929 44.62286443 -10.28125 46.46484375 C-10.39533203 47.285896 -10.50941406 48.10694824 -10.62695312 48.95288086 C-11 51 -11 51 -12 53 C-12.09323979 55.77679725 -12.12576502 58.52832232 -12.11352539 61.30517578 C-12.11367142 62.16378204 -12.11381744 63.02238831 -12.1139679 63.90701294 C-12.11326963 66.75313824 -12.10548125 69.59919859 -12.09765625 72.4453125 C-12.09579176 74.41543543 -12.09436801 76.38555882 -12.09336853 78.35568237 C-12.08954576 83.54739659 -12.07971751 88.73908294 -12.06866455 93.93078613 C-12.05844528 99.225989 -12.0538698 104.52119637 -12.04882812 109.81640625 C-12.03809504 120.21094976 -12.02102148 130.60547256 -12 141 C-15.3 141 -18.6 141 -22 141 C-22.125 131.375 -22.125 131.375 -21 128 C-20.88062094 125.20826699 -20.81405906 122.43728695 -20.7890625 119.64453125 C-20.76315662 117.90461175 -20.73651406 116.1647031 -20.70922852 114.42480469 C-20.69594513 113.50904663 -20.68266174 112.59328857 -20.66897583 111.64978027 C-20.44400893 97.13512214 -19.98892418 82.70036463 -18.5625 68.25 C-18.4402002 67.00581299 -18.31790039 65.76162598 -18.19189453 64.47973633 C-15.80481156 41.6627618 -15.80481156 41.6627618 -12.78125 32.42578125 C-11.93719532 29.80499146 -11.24863691 27.16623855 -10.5625 24.5 C-5.38648453 5.38648453 -5.38648453 5.38648453 0 0 Z " fill="#C8D5E1" transform="translate(391,378)"/>
<path d="M0 0 C4.61981176 3.89858579 5.67430065 10.0103475 7.5 15.5625 C7.9029126 16.78090576 8.3058252 17.99931152 8.72094727 19.25463867 C11.53614896 28.01002575 13.62494201 36.52901844 14.70298767 45.66204834 C14.92931129 47.44356927 15.19155536 49.22056604 15.46998596 50.99468994 C16.7702581 59.36483273 17.37044954 67.56512036 17.5625 76.02734375 C17.63801794 78.63867196 17.71353886 81.25000008 17.7890625 83.86132812 C17.87980036 87.23588336 17.96622304 90.61054807 18.05212402 93.98522949 C18.17074141 98.62457958 18.3026362 103.26343127 18.4375 107.90234375 C18.46465088 109.11284897 18.49180176 110.32335419 18.51977539 111.57054138 C18.6928053 117.44691338 19.20462149 122.41691293 21 128 C20.625 131.9375 20.625 131.9375 20 135 C16.7 135 13.4 135 10 135 C10.16242188 133.38996094 10.32484375 131.77992188 10.4921875 130.12109375 C11.27154015 119.9523317 11.14893581 109.76427463 11.13037109 99.5715332 C11.12501812 96.0743373 11.13033746 92.5772701 11.13671875 89.08007812 C12.36403602 71.10393279 12.36403602 71.10393279 9 54 C8.6950789 51.79611481 8.43244302 49.58635473 8.1875 47.375 C7.3238798 40.07488433 6.24015353 32.81827523 5.0625 25.5625 C4.90483154 24.55687012 4.74716309 23.55124023 4.5847168 22.51513672 C3.68855337 17.08964205 2.51411479 12.02234644 0.60205078 6.86132812 C-0.15378832 4.52454089 -0.23577885 2.43638147 0 0 Z " fill="#C5D4E0" transform="translate(95,384)"/>
<path d="M0 0 C3.91757861 1.9587893 6.93812058 4.09328111 9 8 C10.38242317 14.02341524 10.18456076 17.48009468 7 23 C2.79487179 27 2.79487179 27 0 27 C0 27.66 0 28.32 0 29 C-5.63274431 29.62329548 -9.79996041 29.6886319 -14.5 26.25 C-17.80367643 23.56914782 -19.7112299 21.09639593 -20.30078125 16.81640625 C-20.33537253 10.16334915 -18.95735933 7.20202925 -14.5 2.1875 C-10.21558586 -1.19718717 -5.17337437 -0.83913364 0 0 Z " fill="#B4B7B9" transform="translate(326,374)"/>
<path d="M0 0 C0.19965055 4.6587689 0.34378176 9.31498514 0.43945312 13.97705078 C0.47937681 15.55822171 0.53374086 17.13910319 0.60351562 18.71923828 C1.2395269 33.50650034 1.2395269 33.50650034 -3.90625 40.1015625 C-6.07226562 42.43212891 -6.07226562 42.43212891 -8 44 C-8.66 44 -9.32 44 -10 44 C-10.39638672 44.88945312 -10.39638672 44.88945312 -10.80078125 45.796875 C-12.04370425 48.08029054 -13.30401646 49.47426723 -15.1875 51.25 C-18.33763734 54.30920554 -21.24007167 57.49864153 -24.109375 60.8203125 C-26.2579885 63.29743302 -28.43659177 65.7454683 -30.625 68.1875 C-31.33914063 68.98542969 -32.05328125 69.78335938 -32.7890625 70.60546875 C-34.2864083 72.22715245 -35.82356046 73.81281253 -37.39453125 75.36328125 C-40.44522104 78.45056102 -43.25410638 81.69351392 -46.0625 85 C-46.57876953 85.60328125 -47.09503906 86.2065625 -47.62695312 86.828125 C-49.89989229 89.4919518 -52.11802377 92.15435456 -54.24609375 94.9375 C-54.82488281 95.618125 -55.40367187 96.29875 -56 97 C-56.66 97 -57.32 97 -58 97 C-58.268125 97.5775 -58.53625 98.155 -58.8125 98.75 C-60.02929189 101.05550043 -61.30333879 103.02056192 -63 105 C-63.66 105 -64.32 105 -65 105 C-65.4021875 105.86625 -65.4021875 105.86625 -65.8125 106.75 C-67.02929189 109.05550043 -68.30333879 111.02056192 -70 113 C-70.66 113 -71.32 113 -72 113 C-70.28256011 108.82466709 -67.36722009 105.73611294 -64.4375 102.375 C-60.85426322 98.44179069 -60.85426322 98.44179069 -58 94 C-57.34 94 -56.68 94 -56 94 C-55.938125 93.443125 -55.87625 92.88625 -55.8125 92.3125 C-54.8933713 89.69651832 -53.55806401 88.46010321 -51.5703125 86.5859375 C-47.02103581 81.99139438 -43.21159567 76.62163452 -39.33203125 71.4609375 C-38.88239014 70.86603516 -38.43274902 70.27113281 -37.96948242 69.65820312 C-37.08233267 68.48156579 -36.20084191 67.30063752 -35.32543945 66.11523438 C-34.26360133 64.70707562 -33.13693167 63.34825726 -32 62 C-31.34 62 -30.68 62 -30 62 C-29.773125 61.29875 -29.54625 60.5975 -29.3125 59.875 C-27.66158712 56.25871465 -25.7091165 53.91230024 -23 51 C-22.34 51 -21.68 51 -21 51 C-20.77054687 50.29875 -20.54109375 49.5975 -20.3046875 48.875 C-18.74435295 45.43665799 -16.58020021 42.82025913 -14.125 40 C-12.41532098 38.00114679 -10.70782277 36.00044038 -9 34 C-8.22914063 33.15050781 -7.45828125 32.30101562 -6.6640625 31.42578125 C-4.71555567 28.58535228 -4.65358156 27.51750293 -5.25 24.1875 C-5.37890625 23.39730469 -5.5078125 22.60710937 -5.640625 21.79296875 C-5.81851563 20.90544922 -5.81851563 20.90544922 -6 20 C-6.66 20 -7.32 20 -8 20 C-8.84212256 18.08717875 -9.67338864 16.16957527 -10.5 14.25 C-10.9640625 13.18265625 -11.428125 12.1153125 -11.90625 11.015625 C-13 8 -13 8 -13 4 C-11.02144235 3.33152803 -9.04213695 2.66526889 -7.0625 2 C-5.96035156 1.62875 -4.85820312 1.2575 -3.72265625 0.875 C-1 0 -1 0 0 0 Z " fill="#D0DCE5" transform="translate(317,324)"/>
<path d="M0 0 C2.92126026 1.46063013 3.02003179 3.40463271 4.125 6.4375 C6.71617558 12.93489223 10.37203305 17.80932739 15 23 C18.73487777 22.5020163 20.81237635 22.12508244 24 20 C23.505 22.475 23.505 22.475 23 25 C24.65 25 26.3 25 28 25 C28.20625 24.4225 28.4125 23.845 28.625 23.25 C30.56842873 20.0698439 32.73776636 18.75658734 36 17 C39.25 16.5625 39.25 16.5625 42 17 C44 20 44 20 44.125 22.5 C43 25 43 25 39.51953125 26.58203125 C34.91410944 28.18315897 30.40263447 28.7747643 25.5625 29.1875 C24.69794189 29.26645508 23.83338379 29.34541016 22.94262695 29.42675781 C0.43583156 31.32891449 0.43583156 31.32891449 -9 28 C-9.66 27.34 -10.32 26.68 -11 26 C-10.8125 23.5 -10.8125 23.5 -10 21 C-7 19 -7 19 -4.625 19.1875 C-1.73969482 20.08057065 0.47282163 21.36074916 3 23 C3.66 23.33 4.32 23.66 5 24 C5 24.66 5 25.32 5 26 C6.65 25.67 8.3 25.34 10 25 C9.60167969 24.48050781 9.20335937 23.96101563 8.79296875 23.42578125 C1 13.16788321 1 13.16788321 1 9 C0.34 9 -0.32 9 -1 9 C-1.66 6.69 -2.32 4.38 -3 2 C-2.34 2.33 -1.68 2.66 -1 3 C-1 3.66 -1 4.32 -1 5 C-0.34 5 0.32 5 1 5 C0.67 3.35 0.34 1.7 0 0 Z " fill="#C0C2C6" transform="translate(153,428)"/>
<path d="M0 0 C0.12375 0.969375 0.2475 1.93875 0.375 2.9375 C0.58125 3.948125 0.7875 4.95875 1 6 C1.66 6.33 2.32 6.66 3 7 C2.39671875 7.32871094 1.7934375 7.65742188 1.171875 7.99609375 C-5.00171895 11.67037789 -8.05292 15.04614286 -10 22 C-12.02131356 31.76968222 -11.34613939 42.09369721 -10.0234375 51.92578125 C-10.01570312 52.61027344 -10.00796875 53.29476562 -10 54 C-12 56 -12 56 -14.625 56.125 C-15.40875 56.08375 -16.1925 56.0425 -17 56 C-19.464246 40.092412 -21.86088842 23.34837336 -12.65234375 9.1640625 C-9.78848677 5.41329 -4.93142863 0 0 0 Z " fill="#1C2127" transform="translate(156,335)"/>
<path d="M0 0 C0.33 0 0.66 0 1 0 C1 14.19 1 28.38 1 43 C2.32 43.33 3.64 43.66 5 44 C9.37794079 46.59102618 12.78936877 48.91839323 14.6875 53.75 C15.61071087 60.39711829 15.26434587 65.03412652 12 71 C8.14176895 75.99300489 3.88761181 77.42227396 -2 79 C-1.67 79.33 -1.34 79.66 -1 80 C-0.92741054 82.18639453 -0.91626217 84.37500389 -0.9375 86.5625 C-0.94652344 87.76003906 -0.95554687 88.95757812 -0.96484375 90.19140625 C-0.97644531 91.11824219 -0.98804688 92.04507813 -1 93 C-1.66 93 -2.32 93 -3 93 C-3 100.26 -3 107.52 -3 115 C-4.32 115 -5.64 115 -7 115 C-8.71743211 81.07614817 -8.71743211 81.07614817 -6 77 C-6.7425 76.9175 -7.485 76.835 -8.25 76.75 C-11.51221354 75.8603054 -12.80954878 74.51496251 -15 72 C-14.34 72 -13.68 72 -13 72 C-12.505 71.01 -12.505 71.01 -12 70 C-11.071875 70.9590625 -11.071875 70.9590625 -10.125 71.9375 C-5.86667102 74.74799713 -2.00598862 74.80559267 3 75 C3 74.34 3 73.68 3 73 C3.928125 72.443125 4.85625 71.88625 5.8125 71.3125 C9.70991457 68.48496394 10.69457735 66.60737406 12 62 C12.1899634 57.83663541 11.43724284 54.69355761 9.1875 51.125 C4.80447759 46.8672068 0.92064348 46.59206435 -5 46 C-4.67 45.34 -4.34 44.68 -4 44 C-2.68 44 -1.36 44 0 44 C0 29.48 0 14.96 0 0 Z " fill="#1E2226" transform="translate(323,328)"/>
<path d="M0 0 C2.73045487 -0.49644634 4.43963009 -0.36417913 6.78515625 1.16015625 C13.18040663 6.46916453 15.98718764 11.78108595 17 20 C17.15311079 24.67234869 17.11964435 29.32722338 17 34 C15 34 15 34 13.6328125 32.71484375 C10.71654967 29.27728005 8.32068636 25.9659753 6.21484375 21.953125 C4.06433517 18.49571571 1.23454343 15.5434709 -1.48828125 12.52734375 C-3 10 -3 10 -2.796875 6.83984375 C-2.09301592 4.33148319 -1.29800883 2.24988198 0 0 Z " fill="#E9EEF3" transform="translate(170,343)"/>
<path d="M0 0 C2.9640585 1.80767693 5.42197673 3.84395345 7 7 C7.43023798 10.87214182 7.31669086 12.52496371 5.125 15.8125 C2.29328934 18.72749627 0.64597205 19.20202475 -3.3125 19.375 C-6.86905532 19.31189983 -7.93115282 19.04355638 -11.0625 17.0625 C-13.31003311 13.50994766 -13.7961723 11.3081864 -13.546875 7.16015625 C-13 5 -13 5 -10.4375 1.9375 C-6.41915413 -0.32738586 -4.53425456 -0.80968831 0 0 Z " fill="#303236" transform="translate(324,378)"/>
<path d="M0 0 C7.92662109 0.83983068 12.83512838 5.46243115 18.0234375 11.26171875 C22.91497492 17.72324744 26.09888014 25.13807726 28 33 C27.625 35.4140625 27.625 35.4140625 27 37 C25.35 37 23.7 37 22 37 C21.59910156 35.96101563 21.19820313 34.92203125 20.78515625 33.8515625 C16.7301719 23.75409399 12.21132737 15.63398885 3.27734375 8.96875 C1 7 1 7 0.1875 3.25 C0.125625 2.1775 0.06375 1.105 0 0 Z " fill="#22262B" transform="translate(289,255)"/>
<path d="M0 0 C11.22 0.33 22.44 0.66 34 1 C34 3.64 34 6.28 34 9 C23.11 9 12.22 9 1 9 C1 12.96 1 16.92 1 21 C0.67 21 0.34 21 0 21 C0 14.07 0 7.14 0 0 Z " fill="#CBD9E5" transform="translate(320,421)"/>
<path d="M0 0 C3.63 0 7.26 0 11 0 C11 0.66 11 1.32 11 2 C11.99 2.33 12.98 2.66 14 3 C13.01 3 12.02 3 11 3 C9.33252824 6.42977604 8.66710414 9.18120892 9 13 C11.4730079 17.66622293 15.20070068 21.52612865 18.69555664 25.44262695 C20.40173163 27.47962682 21.69045184 29.69387745 23 32 C23.556875 32.556875 24.11375 33.11375 24.6875 33.6875 C25.120625 34.120625 25.55375 34.55375 26 35 C26 35.66 26 36.32 26 37 C26.66 37 27.32 37 28 37 C28 39.64 28 42.28 28 45 C24.73350526 41.82424122 21.84225739 38.55282173 19 35 C17.33619948 33.33047211 15.66905273 31.66427718 14 30 C12.08136414 27.99994724 10.19393303 25.9725194 8.3125 23.9375 C7.82716797 23.42123047 7.34183594 22.90496094 6.84179688 22.37304688 C1.61383796 16.7124293 1.61383796 16.7124293 1 14 C2.3359375 10.984375 2.3359375 10.984375 4.375 7.75 C5.04273438 6.67234375 5.71046875 5.5946875 6.3984375 4.484375 C6.92695313 3.66453125 7.45546875 2.8446875 8 2 C5.36 1.67 2.72 1.34 0 1 C0 0.67 0 0.34 0 0 Z " fill="#CBD7E1" transform="translate(159,340)"/>
<path d="M0 0 C1.9140625 0.7734375 1.9140625 0.7734375 4 2 C4.75487817 3.99013335 5.4837371 5.99363072 6.0859375 8.03515625 C7.23823604 11.77273998 8.61175735 15.40721888 10 19.0625 C10.74647942 21.03943999 11.49293823 23.01637245 12.23657227 24.99438477 C12.77063432 26.39742915 13.31638226 27.79605574 13.87084961 29.19116211 C16.04660091 34.74036638 16.04660091 34.74036638 15.5625 37.4375 C13.28922009 39.71077991 11.12381366 39.72836403 8 40 C7.67 40.99 7.34 41.98 7 43 C6.87044922 41.18242187 6.87044922 41.18242187 6.73828125 39.328125 C5.77942927 27.44768595 3.67339551 16.32433918 0.42724609 4.85913086 C0 3 0 3 0 0 Z " fill="#CAD7DF" transform="translate(316,285)"/>
<path d="M0 0 C0.33 0 0.66 0 1 0 C1.33745354 2.39531756 1.6700829 4.79114268 2 7.1875 C2.09539062 7.86103516 2.19078125 8.53457031 2.2890625 9.22851562 C2.78324613 12.84664577 3.11346131 16.34796401 3 20 C3.60328125 20.04898437 4.2065625 20.09796875 4.828125 20.1484375 C5.62734375 20.22320312 6.4265625 20.29796875 7.25 20.375 C8.03890625 20.44460938 8.8278125 20.51421875 9.640625 20.5859375 C12.085877 21.01507113 13.84836903 21.78600638 16 23 C15.67 23.598125 15.34 24.19625 15 24.8125 C13.79212012 27.05386471 13.79212012 27.05386471 14 30 C11.69 29.34 9.38 28.68 7 28 C7 27.34 7 26.68 7 26 C0.565 26.495 0.565 26.495 -6 27 C-6.33 25.02 -6.66 23.04 -7 21 C-6.34 20.67 -5.68 20.34 -5 20 C-4.53348793 17.87423218 -4.53348793 17.87423218 -4.375 15.4375 C-4.30023438 14.61121094 -4.22546875 13.78492188 -4.1484375 12.93359375 C-4.09945312 12.29550781 -4.05046875 11.65742188 -4 11 C-3.34 11.66 -2.68 12.32 -2 13 C-0.18884044 11.18884044 -0.61800552 8.38721773 -0.4375 5.9375 C-0.35371094 4.83277344 -0.26992187 3.72804688 -0.18359375 2.58984375 C-0.12300781 1.73519531 -0.06242188 0.88054687 0 0 Z " fill="#141920" transform="translate(163,314)"/>
<path d="M0 0 C3.125 -0.1875 3.125 -0.1875 6 0 C5.34 0.66 4.68 1.32 4 2 C4.33 2.33 4.66 2.66 5 3 C5.07258946 5.18639453 5.08373783 7.37500389 5.0625 9.5625 C5.05347656 10.76003906 5.04445313 11.95757812 5.03515625 13.19140625 C5.02355469 14.11824219 5.01195312 15.04507812 5 16 C4.34 16 3.68 16 3 16 C3 23.26 3 30.52 3 38 C1.68 38 0.36 38 -1 38 C-2.71743211 4.07614817 -2.71743211 4.07614817 0 0 Z " fill="#39769F" transform="translate(317,405)"/>
<path d="M0 0 C0.66 0 1.32 0 2 0 C1.67 0.99 1.34 1.98 1 3 C0.91856145 4.62719482 0.8924698 6.25751719 0.90234375 7.88671875 C0.90484131 8.73194092 0.90733887 9.57716309 0.90991211 10.44799805 C0.91901611 11.51703369 0.92812012 12.58606934 0.9375 13.6875 C0.958125 17.090625 0.97875 20.49375 1 24 C-6.59 24 -14.18 24 -22 24 C-22 21.69 -22 19.38 -22 17 C-15.07 17 -8.14 17 -1 17 C-1.03957157 11.77936725 -1.03957157 11.77936725 -1.09008789 6.55883789 C-1.09723945 4.70566241 -1.0502852 2.85250692 -1 1 C-0.67 0.67 -0.34 0.34 0 0 Z " fill="#CDDAE5" transform="translate(315,405)"/>
<path d="M0 0 C3.91757861 1.9587893 6.93812058 4.09328111 9 8 C10.4234127 14.2020125 9.92069661 17.39226251 7 23 C5.68 22.67 4.36 22.34 3 22 C3.11859375 21.26394531 3.2371875 20.52789062 3.359375 19.76953125 C4.3104377 13.57045233 4.3104377 13.57045233 2.1875 7.875 C-0.5882471 5.4957882 -1.5618466 5.04213013 -5.25 4.6875 C-9.5984842 5.04987368 -11.60382025 6.34932312 -15 9 C-15.33 7.35 -15.66 5.7 -16 4 C-11.43607603 -1.03605404 -6.3565289 -0.933411 0 0 Z " fill="#BFC1C5" transform="translate(326,374)"/>
<path d="M0 0 C0.17128418 0.87736816 0.34256836 1.75473633 0.51904297 2.65869141 C1.1607511 5.9356925 1.80600248 9.21195537 2.45361328 12.48779297 C2.73236516 13.90157856 3.00973131 15.31563815 3.28564453 16.72998047 C3.68411788 18.77125729 4.0876825 20.81147344 4.4921875 22.8515625 C4.73308105 24.07697754 4.97397461 25.30239258 5.22216797 26.56494141 C5.95613 29.80626147 6.93703774 32.85505998 8 36 C8.37531446 38.32694964 8.71917202 40.65976685 9 43 C8.34 43 7.68 43 7 43 C-0.04072012 30.67873979 -2.03875803 15.75087364 -5 2 C-1.125 0 -1.125 0 0 0 Z " fill="#BBBEC2" transform="translate(145,390)"/>
<path d="M0 0 C0.42667969 0.57105469 0.85335937 1.14210938 1.29296875 1.73046875 C5.19848064 6.92292277 9.13595877 12.06513813 13.4375 16.9375 C16 20 16 20 16 22 C16.66 22 17.32 22 18 22 C18.95546999 23.39596507 19.90318948 24.79792677 20.80908203 26.2265625 C22.91897606 29.36847931 25.44956933 32.15487578 27.9375 35 C28.96784039 36.18715949 29.9977921 37.37465642 31.02734375 38.5625 C31.52218262 39.13226563 32.01702148 39.70203125 32.52685547 40.2890625 C34.71707111 42.83281975 36.85963329 45.41421628 39 48 C38.505 48.99 38.505 48.99 38 50 C26.09448667 37.17567037 26.09448667 37.17567037 20.83984375 31.0859375 C18.91226652 28.90053147 16.93582484 26.76399706 14.95336914 24.62841797 C14.47375732 24.11166504 13.99414551 23.59491211 13.5 23.0625 C13.02618896 22.55219238 12.55237793 22.04188477 12.06420898 21.51611328 C8.58989214 17.73635537 5.43764496 13.80723239 2.4375 9.64453125 C0.99849595 7.71830151 0.99849595 7.71830151 -2 7 C-1.125 1.125 -1.125 1.125 0 0 Z " fill="#C7D3DC" transform="translate(194,386)"/>
<path d="M0 0 C2.8125 0.875 2.8125 0.875 4.8125 2.875 C5.36891422 9.88581917 5.36891422 9.88581917 3.6875 12.875 C0.86730125 14.379106 -1.04360056 14.32412849 -4.1875 13.875 C-7.27634321 11.76158096 -8.05858765 10.56253254 -8.75 6.875 C-8.1875 3.875 -8.1875 3.875 -6.0625 1.4375 C-3.1875 -0.125 -3.1875 -0.125 0 0 Z " fill="#BDBEC2" transform="translate(322.1875,381.125)"/>
<path d="M0 0 C1.17955505 3.53866514 0.85978816 5.71947264 0.44140625 9.41796875 C0.30283203 10.67158203 0.16425781 11.92519531 0.02148438 13.21679688 C-0.12998047 14.52712891 -0.28144531 15.83746094 -0.4375 17.1875 C-0.58718827 18.52271936 -0.73628381 19.85800531 -0.88476562 21.19335938 C-1.25067565 24.46294253 -1.62265958 27.73171955 -2 31 C-4.64 30.01 -7.28 29.02 -10 28 C-9.71682074 26.39431334 -9.42312209 24.79047953 -9.125 23.1875 C-8.96257812 22.29417969 -8.80015625 21.40085937 -8.6328125 20.48046875 C-8 18 -8 18 -6 15 C-5.48195331 13.57604966 -5.00547723 12.13656112 -4.5625 10.6875 C-3.35703018 6.923482 -1.87858673 3.48880393 0 0 Z " fill="#CBD5DF" transform="translate(160,295)"/>
<path d="M0 0 C3.4375 0.8125 3.4375 0.8125 5.4375 3.8125 C4.99305556 9.25694444 4.99305556 9.25694444 2.4375 11.8125 C-1 12.1875 -1 12.1875 -4.5625 11.8125 C-6.5625 10.1875 -6.5625 10.1875 -7.5625 7.8125 C-7.4375 4.6875 -7.4375 4.6875 -6.5625 1.8125 C-3.5625 -0.1875 -3.5625 -0.1875 0 0 Z " fill="#CFDAE4" transform="translate(243.5625,454.1875)"/>
<path d="M0 0 C1.32 0.66 2.64 1.32 4 2 C3.34 2 2.68 2 2 2 C1.896875 3.093125 1.79375 4.18625 1.6875 5.3125 C1.22660846 8.89081074 0.53758411 12.36840305 -0.3125 15.875 C-0.64701172 17.26332031 -0.64701172 17.26332031 -0.98828125 18.6796875 C-2.24865416 21.57027246 -3.12206928 21.86103095 -6 23 C-8.56681288 24.56522871 -11.11483654 26.15789725 -13.66015625 27.7578125 C-16 29 -16 29 -19 29 C-19 29.66 -19 30.32 -19 31 C-26.8022142 33.48605403 -33.73594051 35.56993514 -42 35 C-42 34.67 -42 34.34 -42 34 C-41.19175781 33.89042969 -40.38351563 33.78085937 -39.55078125 33.66796875 C-38.48214844 33.50941406 -37.41351563 33.35085938 -36.3125 33.1875 C-35.25675781 33.03667969 -34.20101563 32.88585937 -33.11328125 32.73046875 C-29.86248692 31.96773532 -27.79365378 30.78483436 -25 29 C-23.4982749 28.4074137 -21.97665447 27.86217585 -20.4375 27.375 C-19.69371094 27.13523437 -18.94992187 26.89546875 -18.18359375 26.6484375 C-16.13335188 26.03960002 -14.07923993 25.49977196 -12 25 C-12 24.34 -12 23.68 -12 23 C-11.01 23 -10.02 23 -9 23 C-8.34 21.68 -7.68 20.36 -7 19 C-6.34 19 -5.68 19 -5 19 C-4.71125 18.13375 -4.4225 17.2675 -4.125 16.375 C-3.39995211 14.19985633 -2.65161693 12.03226924 -1.875 9.875 C-0.80589226 6.86308472 -0.80589226 6.86308472 -1 3 C-0.67 2.01 -0.34 1.02 0 0 Z " fill="#D0BBAE" transform="translate(291,264)"/>
<path d="M0 0 C2 3 2 3 2.125 5.5 C0.80270896 8.43842454 0.19386299 8.67397298 -2.6875 9.875 C-6.41396804 11.07686987 -9.17803392 11.05104067 -13 10 C-13.4375 7.8125 -13.4375 7.8125 -13 5 C-9.35137882 1.08698598 -5.41501149 -1.007444 0 0 Z " fill="#111519" transform="translate(195,445)"/>
<path d="M0 0 C1.32 0.99 2.64 1.98 4 3 C2.63125844 9.95776959 0.5466871 16.38603107 -2 23 C-2.66 23 -3.32 23 -4 23 C-4.66 24.98 -5.32 26.96 -6 29 C-6.66 28.34 -7.32 27.68 -8 27 C-8.66 27.66 -9.32 28.32 -10 29 C-10.99 28.67 -11.98 28.34 -13 28 C-12.278125 27.443125 -11.55625 26.88625 -10.8125 26.3125 C-7.10912715 22.67225282 -5.81501248 17.85337393 -4.11328125 13.05859375 C-3 10 -3 10 -1.89453125 7.80078125 C-0.64553213 5.28642057 -0.37674039 2.76276284 0 0 Z " fill="#C1C4C8" transform="translate(184,422)"/>
<path d="M0 0 C3.46102753 1.12684617 5.89444268 2.53662643 8.6875 4.875 C9.125 7.5625 9.125 7.5625 8.6875 9.875 C8.3575 10.205 8.0275 10.535 7.6875 10.875 C5.89393446 10.86331553 4.10056914 10.76579285 2.3125 10.625 C1.33539063 10.55796875 0.35828125 10.4909375 -0.6484375 10.421875 C-3.56733288 9.82268826 -4.60673009 9.28761292 -6.3125 6.875 C-6.1875 4.3125 -6.1875 4.3125 -5.3125 1.875 C-2.3125 -0.125 -2.3125 -0.125 0 0 Z " fill="#17191D" transform="translate(148.3125,447.125)"/>
<path d="M0 0 C2.91147521 2.46531186 3.87481933 4.85257748 5.078125 8.4375 C5.43390625 9.49710937 5.7896875 10.55671875 6.15625 11.6484375 C6.5171875 12.75445312 6.878125 13.86046875 7.25 15 C7.62640625 16.10601562 8.0028125 17.21203125 8.390625 18.3515625 C8.74125 19.41117187 9.091875 20.47078125 9.453125 21.5625 C9.77442383 22.53316406 10.09572266 23.50382812 10.42675781 24.50390625 C11 27 11 27 10 30 C9.67 29.67 9.34 29.34 9 29 C9 33.62 9 38.24 9 43 C8.67 43 8.34 43 8 43 C7.86424561 42.16863525 7.72849121 41.33727051 7.58862305 40.48071289 C7.07446723 37.35421907 6.5536719 34.22891965 6.02856445 31.10424805 C5.80395212 29.75962888 5.58188109 28.41458233 5.36254883 27.0690918 C4.11530576 19.42937288 2.61075076 12.28581607 0 5 C-0.1875 1.9375 -0.1875 1.9375 0 0 Z " fill="#D1DCE5" transform="translate(95,384)"/>
<path d="M0 0 C1.8871875 0.061875 1.8871875 0.061875 3.8125 0.125 C5.8125 5.875 5.8125 5.875 5.8125 8.125 C0.8625 8.125 -4.0875 8.125 -9.1875 8.125 C-7.12801166 1.94653497 -6.36046776 -0.20853993 0 0 Z " fill="#B4BEC6" transform="translate(244.1875,510.875)"/>
<path d="M0 0 C0 5.28 0 10.56 0 16 C-0.33 16 -0.66 16 -1 16 C-1.33 12.7 -1.66 9.4 -2 6 C-4.31 6.66 -6.62 7.32 -9 8 C-8.67 8.556875 -8.34 9.11375 -8 9.6875 C-6.8690399 12.30284522 -6.84337026 14.1806646 -7 17 C-7.66 17 -8.32 17 -9 17 C-9.67595315 15.58774074 -10.34040059 14.16997095 -11 12.75 C-11.37125 11.96109375 -11.7425 11.1721875 -12.125 10.359375 C-13 8 -13 8 -13 4 C-11.02144235 3.33152803 -9.04213695 2.66526889 -7.0625 2 C-5.96035156 1.62875 -4.85820312 1.2575 -3.72265625 0.875 C-1 0 -1 0 0 0 Z " fill="#CED9E1" transform="translate(317,324)"/>
<path d="M0 0 C0.33 0 0.66 0 1 0 C1 4.29 1 8.58 1 13 C2.44375 13.474375 3.8875 13.94875 5.375 14.4375 C7.67730051 15.19397017 9.83217629 15.91608814 12 17 C12 19.31 12 21.62 12 24 C8.37 23.34 4.74 22.68 1 22 C0.31445965 18.57229824 -0.12324755 16.14542877 -0.09765625 12.79296875 C-0.09443359 12.04208984 -0.09121094 11.29121094 -0.08789062 10.51757812 C-0.07951172 9.74865234 -0.07113281 8.97972656 -0.0625 8.1875 C-0.05573242 7.00510742 -0.05573242 7.00510742 -0.04882812 5.79882812 C-0.03711312 3.86585239 -0.01917998 1.93291607 0 0 Z " fill="#C9D0D6" transform="translate(165,312)"/>
<path d="M0 0 C0.33 0 0.66 0 1 0 C0.90150757 1.80138428 0.90150757 1.80138428 0.80102539 3.63916016 C-0.04993638 20.14597318 -0.3078118 36.65442898 -0.53222656 53.17858887 C-0.58343432 56.89383537 -0.63858954 60.60902336 -0.69335938 64.32421875 C-0.79931905 71.54942896 -0.90108867 78.77468948 -1 86 C-1.33 86 -1.66 86 -2 86 C-2.04640755 75.82059381 -2.08191197 65.64121294 -2.10362434 55.46172237 C-2.11404691 50.73461601 -2.1281782 46.00758219 -2.15087891 41.28051758 C-2.17266177 36.71584424 -2.18458011 32.15124056 -2.18975449 27.58651924 C-2.19344048 25.84786445 -2.20063826 24.10921332 -2.21146011 22.3705883 C-2.22604744 19.92918634 -2.22797493 17.48806962 -2.22705078 15.04663086 C-2.23424133 14.33308945 -2.24143188 13.61954803 -2.24884033 12.88438416 C-2.22971609 8.1936904 -1.4502248 4.40901472 0 0 Z " fill="#E8F1F8" transform="translate(380,423)"/>
<path d="M0 0 C3.77384561 3.77384561 4.125 9.87477764 4.125 15.0625 C4.08375 16.031875 4.0425 17.00125 4 18 C3.34 17.34 2.68 16.68 2 16 C1.34 18.31 0.68 20.62 0 23 C-0.33 23 -0.66 23 -1 23 C-1.53257191 20.43944242 -2.05131844 17.87733671 -2.5625 15.3125 C-2.71396484 14.59126953 -2.86542969 13.87003906 -3.02148438 13.12695312 C-3.80997493 9.11115237 -4.19640878 6.01708115 -3 2 C-2.01 2.33 -1.02 2.66 0 3 C0 2.01 0 1.02 0 0 Z " fill="#0F141B" transform="translate(316,289)"/>
<path d="M0 0 C1.32 0 2.64 0 4 0 C3.6567733 5.50797126 1.4969737 8.22144532 -2.375 11.875 C-2.87 12.37257813 -3.365 12.87015625 -3.875 13.3828125 C-7.59156078 17 -7.59156078 17 -11 17 C-10.49396008 14.83125748 -10.00016187 13.00032373 -9 11 C-8.34 11 -7.68 11 -7 11 C-6.773125 10.29875 -6.54625 9.5975 -6.3125 8.875 C-4.63441028 5.19918442 -2.83309478 2.90054942 0 0 Z " fill="#CEDBE4" transform="translate(294,375)"/>
<path d="M0 0 C0.74805717 7.02639415 1.13794954 13.93391809 1 21 C-1.55375615 17.82505993 -3.37447153 14.51896339 -5.1875 10.875 C-5.71730469 9.82054687 -6.24710937 8.76609375 -6.79296875 7.6796875 C-8 5 -8 5 -8 3 C-1.125 0 -1.125 0 0 0 Z " fill="#F0F6FB" transform="translate(316,329)"/>
<path d="M0 0 C0.92455784 2.77367352 0.98636372 4.83181332 0.9375 7.8125 C0.88526071 11.84238777 1.74161154 15.15492416 3 19 C3.33 20.175625 3.66 21.35125 4 22.5625 C4.65890021 24.82746945 5.36643101 27.07893576 6.125 29.3125 C7 32 7 32 7 34 C7.66 34 8.32 34 9 34 C9.061875 34.598125 9.12375 35.19625 9.1875 35.8125 C9.83569219 38.25540917 9.83569219 38.25540917 12.5 39.5 C15 41 15 41 15.8125 43.1875 C15.9053125 44.0846875 15.9053125 44.0846875 16 45 C8.19218788 41.4738913 5.00813852 34.68146189 2.03515625 26.9765625 C-0.90991684 18.50808819 -2.91241779 8.73725338 0 0 Z " fill="#E6C9BA" transform="translate(167,142)"/>
<path d="M0 0 C1.28961193 2.57922387 0.79211692 3.40291211 0.00390625 6.1328125 C-0.22490234 6.93847656 -0.45371094 7.74414062 -0.68945312 8.57421875 C-0.93630859 9.41597656 -1.18316406 10.25773437 -1.4375 11.125 C-1.80198242 12.39923828 -1.80198242 12.39923828 -2.17382812 13.69921875 C-2.7761431 15.80141612 -3.38510525 17.90145431 -4 20 C-5.12758089 16.61725734 -4.81750262 15.23221777 -4.0625 11.8125 C-3.86785156 10.91144531 -3.67320312 10.01039063 -3.47265625 9.08203125 C-3.31667969 8.39496094 -3.16070312 7.70789063 -3 7 C-4.3303125 7.86625 -4.3303125 7.86625 -5.6875 8.75 C-12.74153426 12.78087672 -20.86556073 15.34250271 -29 15 C-25.9530371 13.30566082 -23.17178534 12.50532888 -19.75 11.875 C-18.41195313 11.62363281 -18.41195313 11.62363281 -17.046875 11.3671875 C-16.37140625 11.24601562 -15.6959375 11.12484375 -15 11 C-15 10.34 -15 9.68 -15 9 C-14.33613281 8.68546875 -13.67226563 8.3709375 -12.98828125 8.046875 C-8.24303558 5.74698951 -3.95396814 3.55857132 0 0 Z " fill="#84A0AF" transform="translate(287,284)"/>
<path d="M0 0 C2.30153291 2.30153291 2.7577028 3.84875905 3.6875 6.9375 C3.95949219 7.81277344 4.23148437 8.68804687 4.51171875 9.58984375 C5 12 5 12 4 15 C2.35 15 0.7 15 -1 15 C-2.67110042 12.03821227 -3.32682752 9.62928808 -3.625 6.25 C-3.69976562 5.45078125 -3.77453125 4.6515625 -3.8515625 3.828125 C-3.90054687 3.22484375 -3.94953125 2.6215625 -4 2 C-3.34 1.67 -2.68 1.34 -2 1 C-1.34 1.33 -0.68 1.66 0 2 C0 1.34 0 0.68 0 0 Z " fill="#1B2025" transform="translate(312,277)"/>
<path d="M0 0 C-0.83497758 7.82152466 -0.83497758 7.82152466 -3.69140625 10.7109375 C-5.625 12.0625 -5.625 12.0625 -9 14 C-11 11 -11 11 -10.875 8.5625 C-9.22698278 3.73616386 -5.19958902 0 0 0 Z " fill="#17171C" transform="translate(192,256)"/>
<path d="M0 0 C0.99 0 1.98 0 3 0 C2.96519531 0.61488281 2.93039062 1.22976563 2.89453125 1.86328125 C2.86746094 2.67152344 2.84039062 3.47976563 2.8125 4.3125 C2.77769531 5.11300781 2.74289062 5.91351563 2.70703125 6.73828125 C2.81881161 9.06141957 2.81881161 9.06141957 4.328125 10.765625 C6.9500936 12.70147097 8.84056096 12.45134843 12 12 C14.37719693 10.12498069 14.37719693 10.12498069 16 8 C16.1875 10.375 16.1875 10.375 16 13 C11.96514506 15.68990329 8.73771348 15.77993882 4 15 C0.9375 13.0625 0.9375 13.0625 -1 10 C-1.44089967 6.94482463 -1.44192627 4.05560449 -1 1 C-0.67 0.67 -0.34 0.34 0 0 Z " fill="#232528" transform="translate(312,382)"/>
<path d="M0 0 C0.66 0 1.32 0 2 0 C3.9661995 11.27427159 4.99500612 22.60737649 6 34 C4.515 34.495 4.515 34.495 3 35 C2.93941406 34.09636719 2.87882812 33.19273437 2.81640625 32.26171875 C2.73261719 31.08222656 2.64882813 29.90273437 2.5625 28.6875 C2.48128906 27.51574219 2.40007812 26.34398437 2.31640625 25.13671875 C2.1132629 21.97409042 2.1132629 21.97409042 1 19 C0.72971771 15.35333415 0.5544294 11.70706284 0.37890625 8.0546875 C0.25386719 7.04664063 0.12882812 6.03859375 0 5 C-0.66 4.67 -1.32 4.34 -2 4 C-2 3.34 -2 2.68 -2 2 C-1.34 2 -0.68 2 0 2 C0 1.34 0 0.68 0 0 Z " fill="#D9AC9C" transform="translate(284,220)"/>
<path d="M0 0 C0.66 0.33 1.32 0.66 2 1 C3.04724347 25.29023054 3.04724347 25.29023054 -3.63671875 32.8515625 C-4.31154297 33.42003906 -4.31154297 33.42003906 -5 34 C-4.51986301 28.71849313 -3.53999472 24.15688555 -1.71875 19.17578125 C-0.21568589 14.62574479 0.1150499 10.46954114 0.0625 5.6875 C0.05347656 4.61886719 0.04445313 3.55023438 0.03515625 2.44921875 C0.02355469 1.64097656 0.01195312 0.83273438 0 0 Z " fill="#E6C8B9" transform="translate(314,143)"/>
<path d="M0 0 C0.99 0.495 0.99 0.495 2 1 C2 1.66 2 2.32 2 3 C2.66 3 3.32 3 4 3 C4.95546999 4.39596507 5.90318948 5.79792677 6.80908203 7.2265625 C8.91897606 10.36847931 11.44956933 13.15487578 13.9375 16 C14.96784039 17.18715949 15.9977921 18.37465642 17.02734375 19.5625 C17.52218262 20.13226563 18.01702148 20.70203125 18.52685547 21.2890625 C20.71707111 23.83281975 22.85963329 26.41421628 25 29 C24.67 29.66 24.34 30.32 24 31 C0 5.14778325 0 5.14778325 0 0 Z " fill="#D7DEE5" transform="translate(208,405)"/>
<path d="M0 0 C0.33 0.66 0.66 1.32 1 2 C1.99 2 2.98 2 4 2 C3.25 3.9375 3.25 3.9375 2 6 C-0.125 6.75 -0.125 6.75 -2 7 C-2 7.66 -2 8.32 -2 9 C-5.3 9 -8.6 9 -12 9 C-10.68 8.01 -9.36 7.02 -8 6 C-8.99 5.01 -9.98 4.02 -11 3 C-10.28972656 2.86722656 -9.57945312 2.73445313 -8.84765625 2.59765625 C-7.92855469 2.42105469 -7.00945312 2.24445313 -6.0625 2.0625 C-4.68771484 1.80146484 -4.68771484 1.80146484 -3.28515625 1.53515625 C-1.04710156 1.22285012 -1.04710156 1.22285012 0 0 Z " fill="#A9ACAF" transform="translate(328,394)"/>
<path d="M0 0 C0.99 0.33 1.98 0.66 3 1 C2.71125 1.66 2.4225 2.32 2.125 3 C-0.12788788 9.00770101 -2.29273511 15.54724572 -0.4375 21.9375 C0.47498478 26.23921397 -0.82937679 30.81920283 -2 35 C-2.99 35 -3.98 35 -5 35 C-5 34.34 -5 33.68 -5 33 C-4.34 33 -3.68 33 -3 33 C-3.03480469 31.70707031 -3.06960937 30.41414063 -3.10546875 29.08203125 C-3.29377288 18.89399295 -3.0098166 9.8177351 0 0 Z " fill="#D8B39F" transform="translate(186,123)"/>
<path d="M0 0 C3.125 -0.1875 3.125 -0.1875 6 0 C5.34 0.66 4.68 1.32 4 2 C3.75639927 5.12814514 3.75639927 5.12814514 3.875 8.625 C3.89304687 9.81351562 3.91109375 11.00203125 3.9296875 12.2265625 C3.95289063 13.14179688 3.97609375 14.05703125 4 15 C3.67 15 3.34 15 3 15 C3 12.03 3 9.06 3 6 C2.01 6.495 2.01 6.495 1 7 C0.52998967 10.27555608 0.52998967 10.27555608 0.375 14.0625 C0.30023438 15.35285156 0.22546875 16.64320313 0.1484375 17.97265625 C0.09945313 18.97167969 0.05046875 19.97070312 0 21 C-0.33 21 -0.66 21 -1 21 C-1.9173273 17.08117779 -2.16438768 13.39654323 -2.1875 9.375 C-2.20876953 7.68503906 -2.20876953 7.68503906 -2.23046875 5.9609375 C-2 3 -2 3 0 0 Z " fill="#25658E" transform="translate(317,405)"/>
<path d="M0 0 C1 2 1 2 0.07421875 4.90625 C-0.38339844 6.0921875 -0.84101563 7.278125 -1.3125 8.5 C-3.47925157 14.26160635 -5.06040613 19.91367555 -6 26 C-6.99 26 -7.98 26 -9 26 C-10.84098885 22.3180223 -8.44730436 18.22673841 -7.25390625 14.484375 C-3.18914186 3.18914186 -3.18914186 3.18914186 0 0 Z " fill="#D1DAE2" transform="translate(391,378)"/>
<path d="M0 0 C0.33 0 0.66 0 1 0 C1 14.19 1 28.38 1 43 C2.32 43.33 3.64 43.66 5 44 C4.67 44.66 4.34 45.32 4 46 C1.03 46 -1.94 46 -5 46 C-4.67 45.34 -4.34 44.68 -4 44 C-2.68 44 -1.36 44 0 44 C0 29.48 0 14.96 0 0 Z " fill="#2C3136" transform="translate(323,328)"/>
<path d="M0 0 C0.67095703 0.58007812 0.67095703 0.58007812 1.35546875 1.171875 C2.6127729 2.25492591 3.87337222 3.33415971 5.13671875 4.41015625 C6.6001332 5.65881386 8.05224748 6.92071655 9.5 8.1875 C12.50622297 10.36701165 15.56151369 11.61254061 19 13 C21.0072458 13.98537521 23.00980253 14.98063057 25 16 C25 16.33 25 16.66 25 17 C20.26194558 17.33056194 17.88674477 16.6908233 14 14 C13.13375 13.505 12.2675 13.01 11.375 12.5 C9 11 9 11 7.5 9.375 C5.48463916 7.5275859 3.66166951 7.35968507 1 7 C0.67 4.69 0.34 2.38 0 0 Z " fill="#839BA9" transform="translate(191,280)"/>
<path d="M0 0 C0.33 0 0.66 0 1 0 C1.02578125 0.98742187 1.0515625 1.97484375 1.078125 2.9921875 C1.13484375 4.27351563 1.1915625 5.55484375 1.25 6.875 C1.29640625 8.15117187 1.3428125 9.42734375 1.390625 10.7421875 C1.69226563 12.35480469 1.69226563 12.35480469 2 14 C3.32 14.66 4.64 15.32 6 16 C5.67 20.62 5.34 25.24 5 30 C4.67 30 4.34 30 4 30 C3.67 28.35 3.34 26.7 3 25 C2.34 25.33 1.68 25.66 1 26 C-0.01286753 17.30019136 -0.10621544 8.74507107 0 0 Z " fill="#AAAFB4" transform="translate(187,373)"/>
<path d="M0 0 C7.59 0 15.18 0 23 0 C23 4.62 23 9.24 23 14 C24.32 14 25.64 14 27 14 C26.34 15.32 25.68 16.64 25 18 C22.35186989 15.58214207 21.12099649 13.76512528 20.8671875 10.0625 C20.86976563 9.381875 20.87234375 8.70125 20.875 8 C20.87113281 6.9790625 20.87113281 6.9790625 20.8671875 5.9375 C21 4 21 4 22 1 C14.74 1 7.48 1 0 1 C0 0.67 0 0.34 0 0 Z " fill="#DDF0F9" transform="translate(293,429)"/>
<path d="M0 0 C2.51580465 0.97721338 3.74991936 1.53343165 5.046875 3.953125 C7.66006601 12.48954895 7.66006601 12.48954895 7 17 C6.01 17.66 5.02 18.32 4 19 C3.32900016 16.39688008 2.66304662 13.79264602 2 11.1875 C1.80921875 10.44951172 1.6184375 9.71152344 1.421875 8.95117188 C0.64737086 5.89464659 0 3.16626522 0 0 Z " fill="#C5CFD7" transform="translate(316,285)"/>
<path d="M0 0 C0.8765625 0.144375 1.753125 0.28875 2.65625 0.4375 C15.11341099 2.26049917 27.43019852 2.20466861 40 2 C36.77605033 3.90585515 34.39951337 4.24696978 30.67578125 4.23046875 C29.64646484 4.22853516 28.61714844 4.22660156 27.55664062 4.22460938 C26.48607422 4.21236328 25.41550781 4.20011719 24.3125 4.1875 C23.26126953 4.18685547 22.21003906 4.18621094 21.12695312 4.18554688 C4.23427965 4.09093949 4.23427965 4.09093949 1.25512695 1.45776367 C0.63383911 0.73617065 0.63383911 0.73617065 0 0 Z " fill="#9EA5AC" transform="translate(216,297)"/>
<path d="M0 0 C1.32 0.33 2.64 0.66 4 1 C4.33 2.98 4.66 4.96 5 7 C4.01 7 3.02 7 2 7 C1.01 9.64 0.02 12.28 -1 15 C-1.66 15 -2.32 15 -3 15 C-3.33 15.99 -3.66 16.98 -4 18 C-3.31195504 11.80759538 -1.71951285 5.98044406 0 0 Z " fill="#F5F0EE" transform="translate(293,266)"/>
<path d="M0 0 C1.2989839 0.90626784 2.58893167 1.82549537 3.875 2.75 C4.59429687 3.26046875 5.31359375 3.7709375 6.0546875 4.296875 C8.08570565 6.07503547 8.97855012 7.52701607 10 10 C9.34 10.66 8.68 11.32 8 12 C7.54625 11.505 7.0925 11.01 6.625 10.5 C5.12364481 8.77390663 5.12364481 8.77390663 3 9 C3 8.34 3 7.68 3 7 C1.35 6.67 -0.3 6.34 -2 6 C-1.34 4.02 -0.68 2.04 0 0 Z " fill="#32373C" transform="translate(297,258)"/>
<path d="M0 0 C3.6563187 0.10156441 4.98471036 0.98644782 7.75 3.4375 C10.89667622 7.47195321 10.8923501 12.04810469 11 17 C10.34 17 9.68 17 9 17 C8.84144531 16.40832031 8.68289063 15.81664062 8.51953125 15.20703125 C6.9451256 9.87492813 5.35561359 6.68551919 1 3 C0.34 2.34 -0.32 1.68 -1 1 C-0.67 0.67 -0.34 0.34 0 0 Z " fill="#1F2225" transform="translate(327,373)"/>
<path d="M0 0 C0.33 1.32 0.66 2.64 1 4 C1.66 4 2.32 4 3 4 C6 9.75 6 9.75 6 12 C7.32 12.33 8.64 12.66 10 13 C10 13.99 10 14.98 10 16 C10.99 16.33 11.98 16.66 13 17 C12.67 17.99 12.34 18.98 12 20 C7.125 16.25 7.125 16.25 6 14 C5.01 14.495 5.01 14.495 4 15 C3.91363281 14.30132812 3.82726562 13.60265625 3.73828125 12.8828125 C3.31795176 10.16031137 2.86256547 7.61803791 2 5 C-0.45748398 3.24431996 -0.45748398 3.24431996 -3 3 C-2.01 2.01 -1.02 1.02 0 0 Z " fill="#C9B8B0" transform="translate(186,267)"/>
<path d="M0 0 C0.12375 0.969375 0.2475 1.93875 0.375 2.9375 C0.58125 3.948125 0.7875 4.95875 1 6 C1.66 6.33 2.32 6.66 3 7 C1.02 7.99 -0.96 8.98 -3 10 C-3.33 9.34 -3.66 8.68 -4 8 C-4.99 8.495 -4.99 8.495 -6 9 C-5.67 7.68 -5.34 6.36 -5 5 C-6.32 5.33 -7.64 5.66 -9 6 C-3.2 0 -3.2 0 0 0 Z " fill="#262A32" transform="translate(156,335)"/>
<path d="M0 0 C-0.6875 3.375 -0.6875 3.375 -2 7 C-4.72478653 8.72091781 -6.13472319 9.14031516 -9.3125 8.625 C-9.869375 8.41875 -10.42625 8.2125 -11 8 C-11.33 8.99 -11.66 9.98 -12 11 C-12.33 10.34 -12.66 9.68 -13 9 C-10.03160376 4.72550941 -5.61996393 0 0 0 Z " fill="#E1E6EA" transform="translate(161,341)"/>
<path d="M0 0 C0.66 0.33 1.32 0.66 2 1 C1.01 2.98 0.02 4.96 -1 7 C-1.66 7 -2.32 7 -3 7 C-3.268125 7.5775 -3.53625 8.155 -3.8125 8.75 C-5.02929189 11.05550043 -6.30333879 13.02056192 -8 15 C-8.66 15 -9.32 15 -10 15 C-10.4021875 15.86625 -10.4021875 15.86625 -10.8125 16.75 C-12.02929189 19.05550043 -13.30333879 21.02056192 -15 23 C-15.66 23 -16.32 23 -17 23 C-15.28256011 18.82466709 -12.36722009 15.73611294 -9.4375 12.375 C-5.85426322 8.44179069 -5.85426322 8.44179069 -3 4 C-2.34 4 -1.68 4 -1 4 C-0.67 2.68 -0.34 1.36 0 0 Z " fill="#DBE3E9" transform="translate(262,414)"/>
<path d="M0 0 C0.33 0.66 0.66 1.32 1 2 C0.67 2.99 0.34 3.98 0 5 C-0.53977977 10.54312299 -0.36776793 14.3693191 3 19 C3 19.66 3 20.32 3 21 C1.125 20.8125 1.125 20.8125 -1 20 C-2.80328182 16.43140019 -3.29592192 13.41071331 -3.3125 9.4375 C-3.32925781 8.50808594 -3.34601563 7.57867187 -3.36328125 6.62109375 C-2.94541502 3.60616644 -2.00188259 2.24485514 0 0 Z " fill="#0C0E11" transform="translate(307,379)"/>
<path d="M0 0 C1.97265721 2.15003511 3.50242994 4.50192569 5 7 C3.02 7 1.04 7 -1 7 C-1 6.34 -1 5.68 -1 5 C-1.969375 4.71125 -2.93875 4.4225 -3.9375 4.125 C-7 3 -7 3 -8 1 C-3.18181818 -0.60606061 -3.18181818 -0.60606061 0 0 Z " fill="#D5DADD" transform="translate(159,447)"/>
<path d="M0 0 C0 5.28 0 10.56 0 16 C-0.33 16 -0.66 16 -1 16 C-1.33 12.7 -1.66 9.4 -2 6 C-4.31 6 -6.62 6 -9 6 C-8.375 4.125 -8.375 4.125 -7 2 C-2.1 0 -2.1 0 0 0 Z " fill="#C5CFD4" transform="translate(317,324)"/>
<path d="M0 0 C0.33 0 0.66 0 1 0 C0.49249981 12.01355766 -0.03855859 24.01266665 -1 36 C-1.33 36 -1.66 36 -2 36 C-2.04978833 31.9981675 -2.08590164 27.99645735 -2.10986328 23.99438477 C-2.11986243 22.63562882 -2.13346624 21.27689406 -2.15087891 19.91821289 C-2.17539594 17.95468704 -2.18546962 15.99099799 -2.1953125 14.02734375 C-2.20578613 12.84906006 -2.21625977 11.67077637 -2.22705078 10.45678711 C-1.97692853 6.64874307 -1.16789726 3.61886504 0 0 Z " fill="#DCE7F0" transform="translate(380,423)"/>
<path d="M0 0 C0.99 0.33 1.98 0.66 3 1 C3.33 2.98 3.66 4.96 4 7 C4.66 7 5.32 7 6 7 C6.33 11.62 6.66 16.24 7 21 C5.25051469 18.37577203 4.42389003 16.56738891 3.5 13.625 C2.68722695 11.07941131 1.8532327 8.65239324 0.8125 6.1875 C0 4 0 4 0 0 Z " fill="#85A7BD" transform="translate(193,289)"/>
<path d="M0 0 C1.32 0.66 2.64 1.32 4 2 C3.34 2 2.68 2 2 2 C1.8453125 3.7634375 1.8453125 3.7634375 1.6875 5.5625 C1.14508418 9.86362824 0.00168264 13.1506103 -2 17 C-2.99 17.66 -3.98 18.32 -5 19 C-3.98268577 15.9480573 -2.96473892 12.90205254 -1.875 9.875 C-0.80589226 6.86308472 -0.80589226 6.86308472 -1 3 C-0.67 2.01 -0.34 1.02 0 0 Z " fill="#E3C1B0" transform="translate(291,264)"/>
<path d="M0 0 C0.7425 0.2475 1.485 0.495 2.25 0.75 C2.58 2.07 2.91 3.39 3.25 4.75 C1.25 3.75 1.25 3.75 0.25 2.75 C-0.08 4.07 -0.41 5.39 -0.75 6.75 C-2.4 7.08 -4.05 7.41 -5.75 7.75 C-6.5 6 -6.5 6 -6.75 3.75 C-4.62771652 0.72982736 -3.76812267 -0.34255661 0 0 Z " fill="#2D3135" transform="translate(148.75,447.25)"/>
<path d="M0 0 C0.66 0.33 1.32 0.66 2 1 C1.67 3.64 1.34 6.28 1 9 C-0.98 9 -2.96 9 -5 9 C-5.33 9.66 -5.66 10.32 -6 11 C-6.66 10.67 -7.32 10.34 -8 10 C-7.04367001 8.70684939 -6.08486149 7.41553147 -5.125 6.125 C-4.59132812 5.40570313 -4.05765625 4.68640625 -3.5078125 3.9453125 C-2 2 -2 2 0 0 Z " fill="#383D42" transform="translate(177,265)"/>
<path d="M0 0 C0.92455784 2.77367352 0.98636372 4.83181332 0.9375 7.8125 C0.87775078 11.83063514 1.76957555 15.16397083 3 19 C3.75 21.75 3.75 21.75 4 24 C3.34 24.99 2.68 25.98 2 27 C-0.58750018 18.31339225 -2.95901563 8.87704689 0 0 Z " fill="#E9D2C3" transform="translate(167,142)"/>
<path d="M0 0 C-0.66 2.97 -1.32 5.94 -2 9 C-2.33 8.34 -2.66 7.68 -3 7 C-4.33076989 6.65657551 -5.66431979 6.32380126 -7 6 C-7.66 5.34 -8.32 4.68 -9 4 C-3.375 0 -3.375 0 0 0 Z " fill="#27282B" transform="translate(192,256)"/>
<path d="M0 0 C-3.23767769 2.75597443 -6.32386601 3.95516204 -10.375 5.1875 C-11.47585938 5.53167969 -12.57671875 5.87585938 -13.7109375 6.23046875 C-16.93757437 6.98539448 -19.70098827 7.14451864 -23 7 C-19.9530371 5.30566082 -17.17178534 4.50532888 -13.75 3.875 C-12.41195313 3.62363281 -12.41195313 3.62363281 -11.046875 3.3671875 C-10.37140625 3.24601562 -9.6959375 3.12484375 -9 3 C-9 2.34 -9 1.68 -9 1 C-2.25 -1.125 -2.25 -1.125 0 0 Z " fill="#859AA4" transform="translate(281,292)"/>
<path d="M0 0 C0.66 0 1.32 0 2 0 C2 0.66 2 1.32 2 2 C2.66 2 3.32 2 4 2 C5.2982126 7.76081841 6.25706972 13.08739655 6 19 C3.62400281 15.43600422 2.84268195 11.91618826 1.875 7.8125 C1.69324219 7.06291016 1.51148438 6.31332031 1.32421875 5.54101562 C0.87748314 3.69529219 0.4380306 1.84780868 0 0 Z " fill="#7EA4B8" transform="translate(227,399)"/>
<path d="M0 0 C0.33 0.99 0.66 1.98 1 3 C3.00016466 4.20882096 3.00016466 4.20882096 5 5 C5 5.99 5 6.98 5 8 C4.34 8 3.68 8 3 8 C3 7.01 3 6.02 3 5 C0.55519921 5.18828772 0.55519921 5.18828772 -2 6 C-3.36020151 7.96758273 -3.36020151 7.96758273 -4 10 C-4.33 10 -4.66 10 -5 10 C-5 8.02 -5 6.04 -5 4 C-3.35 3.34 -1.7 2.68 0 2 C0 1.34 0 0.68 0 0 Z " fill="#D5B8A7" transform="translate(173,136)"/>
<path d="M0 0 C0.66 0 1.32 0 2 0 C1.67 0.99 1.34 1.98 1 3 C0.91856145 4.62719482 0.8924698 6.25751719 0.90234375 7.88671875 C0.90556641 8.82451172 0.90878906 9.76230469 0.91210938 10.72851562 C0.92467773 12.19321289 0.92467773 12.19321289 0.9375 13.6875 C0.94201172 14.67556641 0.94652344 15.66363281 0.95117188 16.68164062 C0.96295697 19.12115474 0.97940989 21.56054689 1 24 C0.34 24 -0.32 24 -1 24 C-1.02887236 20.18751574 -1.04675492 16.3750593 -1.0625 12.5625 C-1.07087891 11.47388672 -1.07925781 10.38527344 -1.08789062 9.26367188 C-1.09111328 8.22919922 -1.09433594 7.19472656 -1.09765625 6.12890625 C-1.10289307 5.17056885 -1.10812988 4.21223145 -1.11352539 3.22485352 C-1 1 -1 1 0 0 Z " fill="#B2D8EC" transform="translate(315,405)"/>
<path d="M0 0 C0.33 0.66 0.66 1.32 1 2 C4.02934491 2.65772428 4.02934491 2.65772428 7 3 C6.34 4.98 5.68 6.96 5 9 C4.01 8.67 3.02 8.34 2 8 C2 7.34 2 6.68 2 6 C0.68 6 -0.64 6 -2 6 C-1.34 4.02 -0.68 2.04 0 0 Z " fill="#25292F" transform="translate(141,348)"/>
<path d="M0 0 C2.58700227 1.29350113 2.64610732 2.17859851 3.5625 4.875 C5.2540293 10.18025097 5.69986219 15.4629749 6 21 C3.74982247 17.62473371 2.86995001 14.36925005 1.875 10.5 C1.60236328 9.48486328 1.60236328 9.48486328 1.32421875 8.44921875 C0.56317822 5.54810937 0 3.0122546 0 0 Z " fill="#91B2C6" transform="translate(208,336)"/>
<path d="M0 0 C0.33 0 0.66 0 1 0 C1 1.65 1 3.3 1 5 C2.32 5 3.64 5 5 5 C5.33 6.65 5.66 8.3 6 10 C4.68 9.67 3.36 9.34 2 9 C2 8.01 2 7.02 2 6 C1.01 7.98 0.02 9.96 -1 12 C-1.66 12 -2.32 12 -3 12 C-2.01 8.04 -1.02 4.08 0 0 Z " fill="#D3B7A8" transform="translate(307,133)"/>
<path d="M0 0 C0.66 0 1.32 0 2 0 C3.38529821 5.45461169 4.2396943 10.36718401 4 16 C3.34 16.33 2.68 16.66 2 17 C1.66151348 15.10507994 1.32943089 13.20901534 1 11.3125 C0.814375 10.25675781 0.62875 9.20101562 0.4375 8.11328125 C0.04931926 5.35095938 -0.08259976 2.78257957 0 0 Z " fill="#D6B19D" transform="translate(296,124)"/>
<path d="M0 0 C2.375 0.3125 2.375 0.3125 5 1 C7 4 7 4 6.625 6.6875 C6.41875 7.450625 6.2125 8.21375 6 9 C2.91910327 6.22719294 1.31224548 3.93673644 0 0 Z " fill="#B9BDC0" transform="translate(155,440)"/>
<path d="M0 0 C3 3 3 3 3.29296875 5.69921875 C3.25816406 6.68535156 3.22335937 7.67148437 3.1875 8.6875 C3.16042969 9.68136719 3.13335937 10.67523438 3.10546875 11.69921875 C3.07066406 12.45847656 3.03585937 13.21773438 3 14 C2.01 13.67 1.02 13.34 0 13 C0 8.71 0 4.42 0 0 Z " fill="#20618D" transform="translate(316,428)"/>
<path d="M0 0 C3.28788824 3.11016455 5.83735988 6.01618925 8 10 C5 10 5 10 3.359375 8.57421875 C2.82828125 7.95160156 2.2971875 7.32898438 1.75 6.6875 C1.20859375 6.07261719 0.6671875 5.45773437 0.109375 4.82421875 C-0.25671875 4.22222656 -0.6228125 3.62023437 -1 3 C-0.67 2.01 -0.34 1.02 0 0 Z " fill="#D0DAE1" transform="translate(201,397)"/>
<path d="M0 0 C0.66 0 1.32 0 2 0 C0.95518663 6.70880162 -0.69800644 12.0564116 -4 18 C-5.97650679 14.04698642 -2.71625201 8.11180369 -1.375 4.0625 C-0.91816537 2.707827 -0.46036629 1.35347689 0 0 Z " fill="#E8CEC2" transform="translate(294,196)"/>
<path d="M0 0 C4.58716587 4.44381694 8.78762713 9.20228499 13 14 C12.67 14.66 12.34 15.32 12 16 C9.99074192 13.90403286 7.99268779 11.79912074 6 9.6875 C5.42765625 9.09259766 4.8553125 8.49769531 4.265625 7.88476562 C3.72421875 7.30791016 3.1828125 6.73105469 2.625 6.13671875 C2.12226563 5.60780029 1.61953125 5.07888184 1.1015625 4.53393555 C0 3 0 3 0 0 Z " fill="#E0E5EC" transform="translate(220,420)"/>
<path d="M0 0 C3.63 0 7.26 0 11 0 C11 0.66 11 1.32 11 2 C11.99 2.33 12.98 2.66 14 3 C13.01 3 12.02 3 11 3 C10.34 4.32 9.68 5.64 9 7 C8.01 7 7.02 7 6 7 C6.66 5.35 7.32 3.7 8 2 C5.36 1.67 2.72 1.34 0 1 C0 0.67 0 0.34 0 0 Z " fill="#B0B7BD" transform="translate(159,340)"/>
<path d="M0 0 C0.66 0.33 1.32 0.66 2 1 C1.814375 1.61875 1.62875 2.2375 1.4375 2.875 C0.76313824 5.04160178 0.76313824 5.04160178 2 7 C0.5625 9.625 0.5625 9.625 -1 12 C-1.3449145 10.66961551 -1.67516582 9.33542939 -2 8 C-2.2475 7.154375 -2.495 6.30875 -2.75 5.4375 C-3 3 -3 3 -1.5625 1.1875 C-1.046875 0.795625 -0.53125 0.40375 0 0 Z " fill="#282E33" transform="translate(181,261)"/>
<path d="M0 0 C2.7839183 1.39195915 2.97898997 3.15575779 4 6 C2.125 7.0625 2.125 7.0625 0 8 C-0.66 7.67 -1.32 7.34 -2 7 C-2.125 4.625 -2.125 4.625 -2 2 C-1.34 1.34 -0.68 0.68 0 0 Z " fill="#2C3033" transform="translate(184,448)"/>
<path d="M0 0 C1.32 0 2.64 0 4 0 C5.0625 2.375 5.0625 2.375 6 5 C5.67 5.66 5.34 6.32 5 7 C2.13275314 6.42655063 1.1385485 6.1385485 -1 4 C-0.625 1.875 -0.625 1.875 0 0 Z " fill="#22282E" transform="translate(165,283)"/>
<path d="M0 0 C2.9719385 1.12451727 5.33440687 2.22293791 8 4 C8 4.66 8 5.32 8 6 C6.35 6.66 4.7 7.32 3 8 C2.01 5.36 1.02 2.72 0 0 Z " fill="#E6EBEF" transform="translate(312,276)"/>
<path d="M0 0 C0.33 0 0.66 0 1 0 C1.1875 2.375 1.1875 2.375 1 5 C-2.08888522 7.05925681 -2.70935927 7.2390374 -6.1875 7.125 C-8.0746875 7.063125 -8.0746875 7.063125 -10 7 C-9.67 6.34 -9.34 5.68 -9 5 C-7.865625 4.690625 -6.73125 4.38125 -5.5625 4.0625 C-1.76783002 3.34378643 -1.76783002 3.34378643 0 0 Z " fill="#090B0F" transform="translate(327,390)"/>
<path d="M0 0 C1 2 1 2 0.328125 4.34765625 C-0.02765625 5.24355469 -0.3834375 6.13945312 -0.75 7.0625 C-1.26820313 8.41021484 -1.26820313 8.41021484 -1.796875 9.78515625 C-3 12 -3 12 -6 13 C-3.10933941 3.40546697 -3.10933941 3.40546697 0 0 Z " fill="#DDE5EA" transform="translate(391,378)"/>
<path d="M0 0 C1.56393356 3.97376829 0.36145292 6.81377903 -0.9375 10.75 C-1.31777344 11.92046875 -1.69804687 13.0909375 -2.08984375 14.296875 C-2.39019531 15.18890625 -2.69054687 16.0809375 -3 17 C-4.08635236 13.67930592 -3.90041441 11.33794786 -3.1875 7.9375 C-3.01605469 7.08027344 -2.84460938 6.22304688 -2.66796875 5.33984375 C-2 3 -2 3 0 0 Z " fill="#6B97AF" transform="translate(259,370)"/>
<path d="M0 0 C4.75 0.75 4.75 0.75 7 3 C6.34 3.66 5.68 4.32 5 5 C2.375 4.625 2.375 4.625 0 4 C0 2.68 0 1.36 0 0 Z " fill="#C3C8C9" transform="translate(314,397)"/>
<path d="M0 0 C3.65316671 1.24976756 4.78065836 1.67098753 7 5 C6.01 5 5.02 5 4 5 C3.34 5.66 2.68 6.32 2 7 C0.4375 4.625 0.4375 4.625 -1 2 C-0.67 1.34 -0.34 0.68 0 0 Z " fill="#B5B7BB" transform="translate(326,375)"/>
<path d="M0 0 C1.5625 1.25 1.5625 1.25 3 3 C2.875 5.125 2.875 5.125 2 7 C1.01 7.33 0.02 7.66 -1 8 C-1.66 7.67 -2.32 7.34 -3 7 C-3 6.01 -3 5.02 -3 4 C-2.34 3.67 -1.68 3.34 -1 3 C-0.67 2.01 -0.34 1.02 0 0 Z " fill="#11151A" transform="translate(187,347)"/>
<path d="M0 0 C0.66 0 1.32 0 2 0 C1.67 1.65 1.34 3.3 1 5 C-0.8125 5.6875 -0.8125 5.6875 -3 6 C-4.75 4.5625 -4.75 4.5625 -6 3 C-4.68 2.34 -3.36 1.68 -2 1 C-1.67 1.33 -1.34 1.66 -1 2 C-0.67 1.34 -0.34 0.68 0 0 Z " fill="#1E2327" transform="translate(195,448)"/>
<path d="M0 0 C0.66 0 1.32 0 2 0 C2.29296875 6.0546875 2.29296875 6.0546875 2 8 C1.01 8.66 0.02 9.32 -1 10 C-1.02689216 8.52093108 -1.04634621 7.04172517 -1.0625 5.5625 C-1.07410156 4.73878906 -1.08570313 3.91507812 -1.09765625 3.06640625 C-1 1 -1 1 0 0 Z " fill="#236EAA" transform="translate(318,411)"/>
<path d="M0 0 C1.32 0.33 2.64 0.66 4 1 C3.67 3.31 3.34 5.62 3 8 C2.01 8.33 1.02 8.66 0 9 C0 6.03 0 3.06 0 0 Z " fill="#B3B7BC" transform="translate(189,388)"/>
<path d="M0 0 C2.0625 1.6875 2.0625 1.6875 4 4 C3.75 6.75 3.75 6.75 3 9 C1.35 7.35 -0.3 5.7 -2 4 C-1.34 2.68 -0.68 1.36 0 0 Z " fill="#C7CACA" transform="translate(162,445)"/>
<path d="M0 0 C0.33 0 0.66 0 1 0 C1.33 2.31 1.66 4.62 2 7 C2.66 7 3.32 7 4 7 C3.67 8.65 3.34 10.3 3 12 C2.34 11.67 1.68 11.34 1 11 C0.33203125 8.75 0.33203125 8.75 -0.1875 6 C-0.36667969 5.0925 -0.54585937 4.185 -0.73046875 3.25 C-0.81941406 2.5075 -0.90835938 1.765 -1 1 C-0.67 0.67 -0.34 0.34 0 0 Z " fill="#6E90A7" transform="translate(237,424)"/>
<path d="M0 0 C1 2 2 4 3 6 C3.66 5.67 4.32 5.34 5 5 C5.1875 7.875 5.1875 7.875 5 11 C4.01 11.66 3.02 12.32 2 13 C-0.28571429 4.57142857 -0.28571429 4.57142857 0 0 Z " fill="#9EA8B2" transform="translate(318,291)"/>
<path d="M0 0 C2.0625 0.4375 2.0625 0.4375 4 1 C3.01 1 2.02 1 1 1 C2.21044132 5.60742865 2.21044132 5.60742865 4 10 C2.68 10 1.36 10 0 10 C-0.19412181 8.52168779 -0.38012131 7.04230684 -0.5625 5.5625 C-0.66691406 4.73878906 -0.77132813 3.91507812 -0.87890625 3.06640625 C-0.91886719 2.38449219 -0.95882813 1.70257813 -1 1 C-0.67 0.67 -0.34 0.34 0 0 Z " fill="#BF9585" transform="translate(288,254)"/>
<path d="M0 0 C0.33 0 0.66 0 1 0 C1.13277344 0.91523438 1.26554688 1.83046875 1.40234375 2.7734375 C1.57894531 3.96195312 1.75554687 5.15046875 1.9375 6.375 C2.11152344 7.55835938 2.28554687 8.74171875 2.46484375 9.9609375 C2.83462786 12.90702381 2.83462786 12.90702381 4 15 C2.68 14.67 1.36 14.34 0 14 C0 9.38 0 4.76 0 0 Z " fill="#060D13" transform="translate(188,373)"/>
<path d="M0 0 C2.97 0.495 2.97 0.495 6 1 C5.2884375 1.61875 5.2884375 1.61875 4.5625 2.25 C2.83733482 4.182185 2.43415125 5.48192275 2 8 C-0.1519437 4.77208445 -0.20086443 3.71599191 0 0 Z " fill="#382E2D" transform="translate(289,255)"/>
<path d="M0 0 C2.64 0 5.28 0 8 0 C8.73080266 1.97746603 9.39421747 3.98072489 10 6 C9.67 6.66 9.34 7.32 9 8 C8.443125 6.824375 8.443125 6.824375 7.875 5.625 C5.56693694 2.39371171 3.78383679 1.92493788 0 1 C0 0.67 0 0.34 0 0 Z " fill="#CDD5DC" transform="translate(240,511)"/>
<path d="M0 0 C-0.33 0.33 -0.66 0.66 -1 1 C-0.01 1.66 0.98 2.32 2 3 C0.35 3.66 -1.3 4.32 -3 5 C-3.33 4.01 -3.66 3.02 -4 2 C-4.66 2.66 -5.32 3.32 -6 4 C-6 2.68 -6 1.36 -6 0 C-3 -1 -3 -1 0 0 Z " fill="#D7E1E8" transform="translate(310,328)"/>
<path d="M0 0 C0.66 0.66 1.32 1.32 2 2 C1.01 4.97 0.02 7.94 -1 11 C-1.33 11 -1.66 11 -2 11 C-2.28571429 3.57142857 -2.28571429 3.57142857 0 0 Z " fill="#80A3B9" transform="translate(274,323)"/>
<path d="M0 0 C1.65 0 3.3 0 5 0 C5 3 5 3 3 6 C2.34 6 1.68 6 1 6 C0.67 4.02 0.34 2.04 0 0 Z " fill="#17181D" transform="translate(291,257)"/>
<path d="M0 0 C0.33 0.66 0.66 1.32 1 2 C-2.3125 3.125 -2.3125 3.125 -6 4 C-6.99 3.34 -7.98 2.68 -9 2 C-5.5647952 -0.29013653 -4.014669 -0.17842973 0 0 Z " fill="#22262A" transform="translate(195,445)"/>
<path d="M0 0 C0.66 0.66 1.32 1.32 2 2 C1.34 2 0.68 2 0 2 C-0.4021875 2.86625 -0.4021875 2.86625 -0.8125 3.75 C-2.02929189 6.05550043 -3.30333879 8.02056192 -5 10 C-5.66 10 -6.32 10 -7 10 C-5.33248852 6.05860922 -2.77289351 3.2107188 0 0 Z " fill="#E5EAEE" transform="translate(252,427)"/>
<path d="M0 0 C2.1875 1.4375 2.1875 1.4375 4 3 C1 5 1 5 -3 5 C-3 3.68 -3 2.36 -3 1 C-2.01 0.67 -1.02 0.34 0 0 Z " fill="#E4EEF3" transform="translate(308,401)"/>
<path d="M0 0 C0.33 1.32 0.66 2.64 1 4 C1.66 4 2.32 4 3 4 C3.33 6.97 3.66 9.94 4 13 C3.67 13 3.34 13 3 13 C2.67 10.36 2.34 7.72 2 5 C-0.475 4.01 -0.475 4.01 -3 3 C-2.01 2.01 -1.02 1.02 0 0 Z " fill="#DECCC2" transform="translate(186,267)"/>
<path d="M0 0 C1.98 1.65 3.96 3.3 6 5 C5.67 5.66 5.34 6.32 5 7 C3.35 6.67 1.7 6.34 0 6 C0 4.02 0 2.04 0 0 Z " fill="#DCE0E1" transform="translate(297,268)"/>
<path d="M0 0 C3.31012244 3.31012244 3.50351065 4.53159589 4 9 C3.01 9.495 3.01 9.495 2 10 C1.34 6.7 0.68 3.4 0 0 Z " fill="#6995AC" transform="translate(232,411)"/>
<path d="M0 0 C0.33 0.66 0.66 1.32 1 2 C0.34 2 -0.32 2 -1 2 C-1.33 3.65 -1.66 5.3 -2 7 C-3.32 7.33 -4.64 7.66 -6 8 C-4.73058503 4.08597051 -3.48832306 2.20927127 0 0 Z " fill="#303337" transform="translate(311,373)"/>
<path d="M0 0 C2.60018816 3.90028225 2.15085514 7.47434569 2 12 C-0.12055529 8.46574118 -0.61577388 5.07279689 -1 1 C-0.67 0.67 -0.34 0.34 0 0 Z " fill="#E7CABC" transform="translate(188,194)"/>
<path d="M0 0 C1.9375 0.25 1.9375 0.25 4 1 C4.66 1.99 5.32 2.98 6 4 C4.02 4 2.04 4 0 4 C-0.33 3.01 -0.66 2.02 -1 1 C-0.67 0.67 -0.34 0.34 0 0 Z " fill="#F4F7F8" transform="translate(158,450)"/>
<path d="M0 0 C1.32 0 2.64 0 4 0 C4 1.65 4 3.3 4 5 C1.525 4.01 1.525 4.01 -1 3 C-0.67 2.01 -0.34 1.02 0 0 Z " fill="#BCC0C3" transform="translate(322,374)"/>
<path d="M0 0 C1.33333333 0.66666667 2.66666667 1.33333333 4 2 C4.99 2.33 5.98 2.66 7 3 C4.09399739 4.25664978 2.20395416 5 -1 5 C-0.67 3.35 -0.34 1.7 0 0 Z " fill="#D3D6DA" transform="translate(309,369)"/>
<path d="M0 0 C3.375 4.5 3.375 4.5 4 8 C3.34 8 2.68 8 2 8 C1.67 8.99 1.34 9.98 1 11 C0.67 7.37 0.34 3.74 0 0 Z " fill="#E5AE96" transform="translate(195,228)"/>
<path d="M0 0 C0.33 1.32 0.66 2.64 1 4 C0.34 4 -0.32 4 -1 4 C-1.33 4.66 -1.66 5.32 -2 6 C-2.33 5.67 -2.66 5.34 -3 5 C-3.33 5.66 -3.66 6.32 -4 7 C-4.66 7 -5.32 7 -6 7 C-4.60667426 3.63279613 -3.0210714 2.0140476 0 0 Z " fill="#47413D" transform="translate(198,51)"/>
<path d="M0 0 C0.12375 0.639375 0.2475 1.27875 0.375 1.9375 C0.684375 2.9584375 0.684375 2.9584375 1 4 C1.66 4.33 2.32 4.66 3 5 C1.02 5 -0.96 5 -3 5 C-3.33 4.01 -3.66 3.02 -4 2 C-2.68 2 -1.36 2 0 2 C0 1.34 0 0.68 0 0 Z " fill="#BBBEC0" transform="translate(181,451)"/>
<path d="M0 0 C0.66 0 1.32 0 2 0 C3.35439668 2.70879335 3.06501451 5.00933268 3 8 C2.34 8 1.68 8 1 8 C0.67 5.36 0.34 2.72 0 0 Z " fill="#0B0C10" transform="translate(335,382)"/>
<path d="M0 0 C0.82638376 2.89234315 1 4.88742431 1 8 C0.01 7.67 -0.98 7.34 -2 7 C-1.125 2.25 -1.125 2.25 0 0 Z " fill="#B9C4CC" transform="translate(107,511)"/>
<path d="M0 0 C6.625 0.75 6.625 0.75 10 3 C3.47692308 3.36923077 3.47692308 3.36923077 1.0625 1.5 C0.5365625 0.7575 0.5365625 0.7575 0 0 Z " fill="#8599A8" transform="translate(216,297)"/>
<path d="M0 0 C0.66 0 1.32 0 2 0 C0.75023244 3.65316671 0.32901247 4.78065836 -3 7 C-3 5.35 -3 3.7 -3 2 C-2.01 2 -1.02 2 0 2 C0 1.34 0 0.68 0 0 Z " fill="#E4C8B8" transform="translate(307,177)"/>
<path d="M0 0 C0 2.62113708 -0.31292445 4.50935112 -1 7 C-1.66 7 -2.32 7 -3 7 C-3.33 5.35 -3.66 3.7 -4 2 C-2.68 1.34 -1.36 0.68 0 0 Z " fill="#2F1B11" transform="translate(181,136)"/>
<path d="M0 0 C0 0.66 0 1.32 0 2 C-2.64 2.33 -5.28 2.66 -8 3 C-8 2.34 -8 1.68 -8 1 C-5.10765685 0.17361624 -3.11257569 0 0 0 Z " fill="#341B0F" transform="translate(261,87)"/>
</svg>
